/* XPM */
static char *result[] = {
/* columns rows colors chars-per-pixel */
"60 60 255 2 ",
"   c #020003",
".  c #181600",
"X  c #300B0B",
"o  c #332A09",
"O  c #251C2A",
"+  c #303632",
"@  c #4A1203",
"#  c #503108",
"$  c #5B3716",
"%  c #653700",
"&  c #5B3425",
"*  c #584A14",
"=  c #694A02",
"-  c #6E4E0E",
";  c #7A5803",
":  c #755419",
">  c #796D09",
",  c #776517",
"<  c #584E32",
"1  c #71532A",
"2  c #5E6733",
"3  c #75682E",
"4  c #223146",
"5  c #443141",
"6  c #4D4F53",
"7  c #6C5D50",
"8  c #756C53",
"9  c #4A5464",
"0  c #665D61",
"q  c #5B686E",
"w  c #736E6B",
"e  c #6F7071",
"r  c #767777",
"t  c #875603",
"y  c #90530A",
"u  c #86591A",
"i  c #996700",
"p  c #897301",
"a  c #86730F",
"s  c #987902",
"d  c #896819",
"f  c #976418",
"g  c #9A771C",
"h  c #A56A00",
"j  c #A97501",
"k  c #B77904",
"l  c #A56B19",
"z  c #B36E10",
"x  c #AA751C",
"c  c #B8791B",
"v  c #875232",
"b  c #896827",
"n  c #996925",
"m  c #8B7627",
"M  c #967A26",
"N  c #8C7535",
"B  c #A56C28",
"V  c #AA7724",
"C  c #B57926",
"Z  c #AC7534",
"A  c #C97B00",
"S  c #C77C1B",
"D  c #C67D28",
"F  c #8C7751",
"G  c #A7794C",
"H  c #867B68",
"J  c #8D7971",
"K  c #7A8176",
"L  c #9B8500",
"P  c #998015",
"I  c #A78700",
"U  c #B88601",
"Y  c #AB9401",
"T  c #B89600",
"R  c #AF8C1B",
"E  c #B9841D",
"W  c #BCA211",
"Q  c #9C8328",
"!  c #948431",
"~  c #A68828",
"^  c #B78827",
"/  c #AC9225",
"(  c #B7972A",
")  c #AB8C36",
"_  c #B99736",
"`  c #BBA128",
"'  c #BCAA32",
"]  c #C78600",
"[  c #C59800",
"{  c #D59800",
"}  c #C4841A",
"|  c #D18B14",
" . c #D8951C",
".. c #E69700",
"X. c #EE9C0E",
"o. c #C5A602",
"O. c #D6AB03",
"+. c #D9B703",
"@. c #C8A618",
"#. c #D5AE15",
"$. c #D9B71B",
"%. c #ECB00E",
"&. c #C98826",
"*. c #D58A26",
"=. c #C99628",
"-. c #D99828",
";. c #CF8A31",
":. c #C69835",
">. c #D79A33",
",. c #E69329",
"<. c #E69829",
"1. c #F59C27",
"2. c #C9A62A",
"3. c #D6A92C",
"4. c #CCB52E",
"5. c #D9B52B",
"6. c #C6A734",
"7. c #D6AA37",
"8. c #D9B635",
"9. c #E9A629",
"0. c #F5A72A",
"q. c #FAAB2B",
"w. c #E9B92B",
"e. c #F4B92E",
"r. c #EAA936",
"t. c #F7A736",
"y. c #E7B934",
"u. c #F7B936",
"i. c #ECC301",
"p. c #F4C702",
"a. c #E9C918",
"s. c #F4C717",
"d. c #DEC038",
"f. c #E8C42D",
"g. c #F4C32E",
"h. c #F7CA29",
"j. c #EDC534",
"k. c #EAC836",
"l. c #F4C533",
"z. c #FAC334",
"x. c #F4CA33",
"c. c #FACC35",
"v. c #F3C539",
"b. c #F4CB3B",
"n. c #FBCD3B",
"m. c #F8D337",
"M. c #8E854B",
"N. c #968659",
"B. c #B79E44",
"V. c #AC9155",
"C. c #B8A657",
"Z. c #9B9464",
"A. c #88847C",
"S. c #968C72",
"D. c #958876",
"F. c #A78967",
"G. c #AC9671",
"H. c #B3A86E",
"J. c #CC964E",
"K. c #E39F50",
"L. c #CCAD49",
"P. c #EBB249",
"I. c #CCB270",
"U. c #EDB86D",
"Y. c #EECA4E",
"T. c #F6CB47",
"R. c #FAD343",
"E. c #DBC671",
"W. c #EACD6A",
"Q. c #E9D268",
"!. c #F4D669",
"~. c #E8C876",
"^. c #F6D776",
"/. c #787B82",
"(. c #857E89",
"). c #788995",
"_. c #888A8A",
"`. c #968B88",
"'. c #97948A",
"]. c #868B95",
"[. c #899299",
"{. c #989998",
"}. c #AB9785",
"|. c #A79985",
" X c #A69A96",
".X c #9EA59C",
"XX c #B8AD8E",
"oX c #A9A69A",
"OX c #B5AC9A",
"+X c #989BA5",
"@X c #A59DA5",
"#X c #98A8AA",
"$X c #A9A5A7",
"%X c #B6ACA5",
"&X c #ACB2AB",
"*X c #B8B5AA",
"=X c #ABAFB7",
"-X c #B7B7B6",
";X c #BDBBB5",
":X c #C7BA8B",
">X c #CAB190",
",X c #E3BB84",
"<X c #C6BAA8",
"1X c #C4BCB8",
"2X c #BBC2B3",
"3X c #DACE91",
"4X c #D7C799",
"5X c #EDD28F",
"6X c #F8D88A",
"7X c #F4E28E",
"8X c #CCC8AB",
"9X c #C8C5BA",
"0X c #D6CCB6",
"qX c #F3DBAC",
"wX c #EDE5AD",
"eX c #F8E5A8",
"rX c #F4E7B9",
"tX c #9AB2C1",
"yX c #BABAC3",
"uX c #B3C9CD",
"iX c #B5D9E7",
"pX c #C7C7C6",
"aX c #CDCBC5",
"sX c #D4CCC8",
"dX c #C9D2CF",
"fX c #D8D5CC",
"gX c #D6D5D3",
"hX c #DDDAD3",
"jX c #D9D7D8",
"kX c #E1DBCB",
"lX c #E2DCD7",
"zX c #F4EACD",
"xX c #E6E6DA",
"cX c #DFDDE2",
"vX c #D8EEF0",
"bX c #E4E5E3",
"nX c #E6E8E5",
"mX c #EBEBE5",
"MX c #EEEEEE",
"NX c #F5EBE6",
"BX c #F1EEEC",
"VX c #EAF6E6",
"CX c #EDF1EC",
"ZX c #F6F7E9",
"AX c #F2F3ED",
"SX c #EEEEF1",
"DX c #F2EEF2",
"FX c #EEF3F4",
"GX c #F3F3F3",
"HX c #F9F6F5",
"JX c #F5F9F4",
"KX c #FAFAF6",
"LX c #F5F7F9",
"PX c #FBF5FA",
"IX c #FAFAFA",
/* pixels */
"MXMXMXMXMXMXMXMXMXMXMXMXMXMXMXMXMXMXMXMXMXMXMXMXMXMXMXSXMXMXMXMXMXMXMXMXMXSXMXMXMXMXMXMXMXMXDXMXMXMXMXMXMXMXMXMXMXMXMXMX",
"MXMXMXMXMXSXMXMXSXMXMXMXMXMXMXMXMXMXMXMXSXBXMXMXMXMXMXMXMXMXMXMXMXMXMXMXMXMXMXMXSXMXMXSXBXGXJXIXGXGXMXMXMXMXMXMXMXMXMXMX",
"MXMXMXMXMXMXMXMXMXCXMXMXMXMXMXMXMXMXSXMXMXMXMXGXMXMXMXMXMXMXMXMXMXMXMXMXMXMXMXMXMXGXGXIXPXIXnXgXMXHXGXMXMXMXMXMXMXMXMXMX",
"MXMXMXMXMXMXMXMXMXSXBXMXMXMXBXSXMXMXMXGXGXAXJXAXGXMXSXSXMXBXSXSXMXMXSXMXMXMXMXMXSXGXGXxXxXlX$X*X$XxXGXGXAXBXMXFXMXMXDXMX",
"MXMXMXMXMXCXMXMXMXMXMXMXMXMXMXMXMXMXBXHXHXAXnXAXGXGXDXMXmXmXSXMXMXmXMXMXMXMXMXFXFXGX9X;X1X{.sXxXsX9XKXAXHXHXAXJXGXFXMXSX",
"MXSXBXMXBXSXMXSXMXMXMXMXMXMXMXMXMXMXHXGXgX;X-X2XAXIXGXGXAXGXDXSXHXDXMXMXMXMXGXGXLXgX1XlXfX9XhXfX9XsXKXHXmXgXoXpXGXGXMXmX",
"MXMXMXMXMXMXMXMXMXMXMXMXMXMXMXMXMXMXHXhX;XfXhX9XsXmXBXPXPXPXPXKXPXPXPXGXGXGXGXHXGXpXfXhXfXhXhX1XA.jXKXbX-X%X;X$XnXPXSXMX",
"MXMXMXMXMXMXMXMXMXSXMXMXMXMXMXSXMXMXHXpXsXhXhXsX$X1XhXMXjXpX2X8XpXjXmXIXIXHXGXHXmXpXlXkXhXkXhXlX9X-XKXdXsXlXaX`.lXHXMXMX",
"MXMXMXSXMXMXMXMXMXMXMXBXMXMXMXMXMXBXPXsXsXhXjX0X0XpXA.M.L Y Y T U ~ w $XmXLXFXGXPXdX<X$X9XkXhXfXfX&XAXaX1X9XlX-XfXPXBXBX",
"MXMXCXMXMXMXMXMXMXSXMXMXMXMXMXMXMXJXHXpX9XhXjXkXoXN I.7X7XU.j.n.n.x.a.L 0 jXJXSXBXFXnX-XfXkX1XoX-XjXAXnX-X$XgX*XbXHXMXSX",
"MXSXMXMXMXMXMXMXMXSXMXMXMXMXMXMXDXIXgX-X9XfXkX$XI ^.zXzX0X0X!.s.m.n.b.R.T 7 xXJXCXGXHXpXpX9X;XnXGXAXAXJXGXaX%XgXHXGXDXMX",
"MXBXMXMXMXMXMXSXMXMXMXMXMXMXMXMXGXGX;XjXxXxX;X/ h.wXmXzX8XzX^.8.L.8.g.f.R.o.w FXZX8X:X}.XXhXnXJXGXJXGXAXGXGXGXIXJXMXMXMX",
"MXMXMXMXMXMXCXBXMXCXMXMXMXSXMXMXGXHX2X0XOX'.Z.h.a.rXNXkXsXzXV.< 6 N.L.h.g.R.s 2X0X8.zX~.W xXHXJXJXGXMXMXDXGXHXGXBXMXMXMX",
"MXMXMXMXMXMXSXMXMXMXMXMXMXMXMXSXSXGXcXoXH.V.O.@.= L.eX8X3XY.O [.#Xq Z.Y.x.b.5.w V.E.sX^.W gXIXAXZXGXMXSXCXSXBXMXMXMXMXMX",
"MXMXMXMXMXMXMXMXMXMXMXMXMXBXNXFXJXJXPX*XE.I.+.).uX8 $.' g.I [.vXvXiX0 L.h.x.x., U K.L.3.n cXIXLXDXDXDXSXCXMXMXMXMXMXMXMX",
"MXMXSXMXMXMXMXMXMXSXMXBXCXGXHXIXxXdXdXI.2.' o.tXvX_.+.6.k.a iXvXvXvXr ( x.x.c.m &.q.-.C b '.;XbXIXGXAXMXMXMXMXMXMXMXMXMX",
"MXMXMXMXBXMXMXMXMXMXMXMXGXGXFXgXV.T p G.S.%.3.K ).V.j.:.m.p iXvXvXvX9 W m.f.c.! A.V.p ) ! > ; 2 aXIXCXCXDXMXMXMXMXMXMXMX",
"MXSXMXMXCXMXMXMXMXMXMXMXGXFX-X4XE.T T C.6  .x.#.T a.8.3.m.o.].vXvX#X* d.x.k.x.m 7 L.3X:XP.g.R.$.R kXLXAXSXMXMXMXMXSXMXMX",
"MXMXMXMXSXMXMXSXMXMXMXGXJXpX`.rXE./.'.+.~ ~ 9.z.R.c.4.2.c.x.Y 9 0 p y.c.h.e.c.m T Q.0XzX7Xp.+.5.L.S.nXHXDXSXMXMXMXMXMXMX",
"MXMXMXMXMXMXMXMXMXmXFXLXxX|.&XI.K _._.a =./ x <.q.z.5.y.l.g.v.+.O.z.r.*.} ;.=.1 8 K <XNX3X) }. X&X$X=XGXDXSXMXMXMXMXMXMX",
"BXMXMXMXMXMXMXMXMXSXVXHX8X=.;Xr S..X+ z K.L.P m D D &.3.<.0.0.r.7.C x ( 8.Y 6 %X+X X X:X'.$XpXgXuXyX(.cXGXSXSXMXMXBXSXMX",
"MXMXMXFXSXBXMXMXMXSXZXDXE.i.H.e J e t U.ZX4Xp ; j I s > : f E ^ &.3.y.8.$.F [.*X&X(.'.[.2XpXuX$XG.C.Y aXIXBXCXSXMXMXMXMX",
"MXMXMXMXSXMXSXmXMXAXGXDXI.h.#.F =X_.] 6X0XM.4.!.6X^.!.b.y./ o 7.x.2./ _ b #XuX(.0 8 _.-X2X=XD.o.a.n.O.9XIXAXMXMXMXMXMXMX",
"MXMXMXAXCXGXSXGXGXGXPXAXXX+.q.N.).r  .>.R ^.eX8XOX*X:XI.y.m.4.* / 3.b.a.H $X=XF ] N.{.9X#XF +.n.x.n.+.pXLXBXMXMXMXMXMXMX",
"SXBXVXPXGXKXKXFXKXJXCXKXjXQ X.G +X'.k L qX8Xe B ] A y c : / c.2.* b.n.$.w K /.B ;.).@X XZ.y.c.j.8.8.T aXLXAXMXMXMXMXMXMX",
"BXGXAX0X*X1XlXnX8XN.N.OX2Xw f M .X`.; 7X>X  ] 1.q.) ^ 0.<.V Q m./ a n.@.$X-X3 j J [.(.G.d.v.7._ ( 6.U sXJXFXMXMXMXMXMXMX",
"JXGX4X+.+.$.7.N.! E.5Xi.s 3 6 2.B.o H.8X4 N.e.u.>.H w.e.q.q.x :.m.1 6.W )./.j &._.`.C.y.w.Y s s m p C.NXAXMXMXMXMXMXMXMX",
"IX<X+.T.x.6X^.O.Y.^.rX6X$.^ g g.g.Q wX0 [.7.c.a.Z.G.s.v.x.l.0.l f.4., 5.1 v 3.9.8 F $.y.n 7 ).'.$X@X{.mXJXGXSXMXSXMXMXMX",
"cXB.v.b.p.eX5X[ y.p.rX7X%.;./ k.[ :XH.].OX+.n.L.K 8.b.x.x.j.c.=.~ m.a 6.e.w.>.( =.R 1 3 + 0 w e ).yXOX{.MXPXIXGXFXMXMXMX",
"2XO.h.u.p.eX,XU v.n.rX~.O.,.2.R./ E.M.=XC.h.p.H V.p.i.x.l.g.x.f.Q x.2.m m.5./ j.m.2., ` 4.#.o.o.I 2 7 / Z.=XmXKXSXSXMXMX",
"$XP.!.Y.T.eXK.T c.T.zXI.] D 5.x._ +.'.=X' s.H.#XH.H.|.7.h.l.l.x.~ j.5.M x.Q $.!.E.= @.~.^.h.m.n.b.w.j ! p.[ H gXKXHXSXMX",
"&X7.6X5X5XeXJ.:.%.!.qXJ.X.&.6.g._ O.&X=X@.h.H.XXH.Z.K L.h.v.l.c.( y.j.( 8.Q s.^.I.p +.5X^.p.v.v.v.c.x.( 8.n.$.3 aXIXDXDX",
"jXt %.0.P.U.,.=.s.7X7X] ;.c I.!._ @.&X$Xo.n.g.i.s.$.M.f.v.x.l.x.' y.e.` ` ` b.6XV.h L.qXW.p.%.h.g.x.b.y.3 1 k.a.3 gXJXMX",
"LX=Xi S S } S 7.7XrXU.j ;.S L.T.6.@.&X=X#.m.l.T.%.'.C.h.k.x.l.j.6.e.<.B.C.[ !.6Xh z K.qXrXeX!.Y.k.x.v.4.! 3 2.R.o.e AXGX",
"JXxX_ =.U j V ;.Y.W.>.x -.D @.h._ [ &X=X@.x.b.i.H.[.+.c.l.x.z.e.L.e. .B.H.L.7XU.t 1 | >.U.qX6X6XT.z.c.=.~ ( ( x.y.% pXJX",
"IX*Xf.eXeX~.| S U ] C &.*.c 6.m.:.o.'.&X_ x.x.6.tXC.s.z.j.x.h.7.I.q.=.=.@.I.6X*.$ * u v % ; n ;.-.-.2.P ` ` M f.u.y .XJX",
"HX}.f.!.7XrXJ...C C &.0.-.c ( n.2.2.N #XZ.h.W =X=XO.b.x.x.v.s.H.I.X.~ 6.z.j j y : 9.*.P C B - # $ : @ E =./ ) 8.u.j w NX",
"MXZ.i.e.i.wXI.X.;.^ 0.<.1.c d y.f.^ ] ].[.T oXiX) e.k.x.x.z.X.>XU...M x.b.y._ ' / 1.J.I.P.q.r.*.&.B < E b ~ 2.3.z.z F NX",
"nXF.s.b.k.rXI...,.^ q.1.9.E u &.m.6.} V._.0 cX=X{ P.e.e.t.{ G.5XX.~ =.c.v.x.c.y.^ ..XX4Xx.g.c.3.3.-.* ^ &.) =.4.z.S F xX",
"SXS.p.b.s.qXH.X.;.f x 3.e.S b v 9.f.V U ;.r ).N...0.1...] G 4XP.| g v.x.l.j.c.5.c -.XX3Xs.v.x.6.8.2.4 ;.3.~ ( 3.u.k 8 lX",
"GXD.%.u.%.~.J.%.&.C c : *.} N O &.q.y.Q k *.i t B D :.G.>X~.P.j Q f.g.x.x.x.c.7.*.*.>XQ.i.z.v.=.j.4.5 -.4./ ~ 5.t.h H CX",
"PX%XU 1.t.<.-.g f 0.0.x : *.b < d -.9.r.M g ;.<.-.-.P.U.K.s # ( k.x.x.x.e.e.e.*.V U ,XeX!.l.f.( v.Q 3 3.8.~ ~ f.r.t {.KX",
"HXCX*XG z B n C *.*.0.=.$ ,.+ ) l V -.<.q.-.M g M d ; = = Q 5.m.x.j.q.9.0.<.*.*.: # k I.6Xv.( ;. .5 M.3._ M ~ z.;.# 9XKX",
"AXAXPX$Xk >.<.1.1.&.9.V l Z 4 ..j # c &. .q.q.9.n :.6.8.k.x.e.e.q.9.9.<.,.| ;.B V 8./ t i V ; &.l 9 N E ( m ' u.l < xXGX",
"MXSXHXdXk t.1.<.9.-.*.f Z o = Z pX1X@ z C } ,.<.n 3.q.0.q.1.9.0.0.<.,.} S ^ i % -.l.c.r.*.C l &.^ 7 ;.-.( b w.r.% '.JXAX",
"MXMXHXAXD.] P.0.0.t.C u # r 8XhXIXIXyX& t B c } : ~ q.,.,.,.,.-.*.S c c M % 6 F ..r.g.x.z.x.w.w.N 1 *.*.~ ~ z.C o hXLXmX",
"MXMXSXHXxX8 k X.X.j # 1 $XmXJXJXGXHXJXgX6 . : l u , 3.x C c x l x l g :   K mXaXk t.t.y.g.5.6.2.O ~ ~ ^ m w.r.   XHXGXSX",
"MXMXSXDXPXnX XG G `.<XlXPXHXDXMXCXCXCXJX'.= O X - $ ~ f f f l f t #   < ; 2XIXJXOXk t.t.<.Z 7.Z b d.^ g ` T.y q BXHXSXMX",
"MXmXBXDXGXHXJXnXbXZXPXJXGXGXDXSXMXSXAXIXOX{ P.m X # & $ = * X o * m _ f.I sXIXAXVXOXj ] h A A @ ^ :.C ' k.h e bXAXGXMXMX",
"SXSXBXBXCXCXCXJXGXGXGXCXCXMXCXmXBXJXJXLXaXi ..+.d $ - : $   m 5.3.[ U Z A.xXGXGXDXAXsXoXF N.G. X# [ o.T N {.xXJXDXMXMXMX",
"MXSXMXMXMXSXFXmXmXDXMXCXMXMXSXBXCXLXnXvXJXlX9X:XB.: * X * / 8.g # r ;XcXAXKXJXLXGXHXIXHXHXMXGXHXsX|.S.'.gXIXJXCXDXMXMXMX",
"MXMXMXMXMXMXMXMXMXMXMXMXMXMXmXDXLXsX7 e xXZXHXHX<X% ~ 8.y.u.d X 8 8XgXSXAX-X+XxXHXGXFXGXPXPXHXHXHXHXGXJXKXGXGXFXCXMXMXSX",
"MXMXMXMXMXMXMXMXMXMXDXMXMXmXMXPXnXV.+.L e NXAXJXfX= b 3.<.c 1 h %X$X_.dX{.i L r SXFXSXMXMXMXSXMXFXGXGXFXGXGXMXMXMXMXMXMX",
"MXMXMXMXMXCXMXMXMXMXMXMXMXMXMXIXxX8.R.Y.= '.BXIXnXv y $ * : B h <X$X{.aX> x.R.> jXHXMXMXMXMXMXMXSXSXSXCXCXMXMXMXMXMXMXMX",
"MXMXMXMXMXMXMXMXMXMXMXMXSXmXDXGXbXJ.e.x.) L |.nXdXv *.f : u B k H.lXAX'.T n.h.Q jXLXMXMXMXMXMXMXmXMXMXmXMXMXMXMXMXMXMXMX",
"MXMXMXSXMXMXMXMXMXMXMXMXSXCXBXFXFXF...w.=.n [ V._ R 2.3.V D y.2.N $XoX3 5.u.w.N bXGXMXMXMXMXMXMXMXMXMXMXMXMXMXMXMXMXMXMX",
"MXMXSXMXMXMXMXMXMXBXMXMXMXSXmXFXIXOXA P.t.;.Z <.q.r.B M ) :._ ;.y.U = _ r.P.X.G DXDXSXSXMXMXMXMXMXMXMXMXMXMXMXMXMXMXMXMX",
"MXMXMXMXMXMXMXMXSXMXMXMXMXBXBXMXFXmXF.A ..{ t = h j h t t t t h i t h k ....h *XPXPXMXMXMXSXMXMXMXMXMXMXMXSXMXMXMXMXMXMX",
"MXSXMXMXMXMXMXMXMXMXMXMXMXMXAXCXFXIXlX{.S.F.F.H J V.G F 7 F.G.D.S.J H N.F.D.[.xXGXSXMXMXMXMXMXMXMXMXMXMXMXMXMXMXMXMXMXMX",
"MXMXCXMXMXMXMXMXMXSXMXMXMXSXBXmXDXDXAXPXCXFXxXmXDXxXmXlXbXGXDXDXBXDXBXBXCXCXGXAXHXMXMXMXMXMXMXMXSXMXMXMXMXMXCXMXMXSXMXMX"
};
