/* XPM */
static char *result[] = {
/* columns rows colors chars-per-pixel */
"60 60 211 2 ",
"   c #000100",
".  c #000B00",
"X  c #001400",
"o  c #001D00",
"O  c #002400",
"+  c #002C00",
"@  c #003400",
"#  c #003A00",
"$  c #093A00",
"%  c #153E00",
"&  c #213F00",
"*  c #243E1A",
"=  c #024300",
"-  c #0C4200",
";  c #0A4B00",
":  c #144200",
">  c #1B4401",
",  c #1B4B00",
"<  c #184608",
"1  c #224502",
"2  c #244B03",
"3  c #294E00",
"4  c #24450D",
"5  c #234C0C",
"6  c #294C0C",
"7  c #304E01",
"8  c #245100",
"9  c #27550E",
"0  c #2B530D",
"q  c #264614",
"w  c #2A4715",
"e  c #274A14",
"r  c #2A4B15",
"t  c #274718",
"y  c #294619",
"u  c #264B19",
"i  c #2C4C1A",
"p  c #314D1B",
"a  c #2D5216",
"s  c #2E5C11",
"d  c #2E521A",
"f  c #2E581B",
"g  c #315617",
"h  c #365519",
"j  c #32541C",
"k  c #345B1C",
"l  c #395C1F",
"z  c #36611E",
"x  c #3A631E",
"c  c #3C681F",
"v  c #3F761E",
"b  c #2F4D20",
"n  c #334E22",
"m  c #3C4F25",
"M  c #2B5123",
"N  c #345323",
"B  c #3B5525",
"V  c #355C23",
"C  c #395C23",
"Z  c #355429",
"A  c #39552A",
"S  c #375A29",
"D  c #3B5B2A",
"F  c #3E5B33",
"G  c #3D543B",
"H  c #366121",
"J  c #3B6423",
"K  c #3E6A24",
"L  c #3D642B",
"P  c #3E6B29",
"I  c #3E7323",
"U  c #3E7229",
"Y  c #3F6233",
"T  c #41741F",
"R  c #435E2D",
"E  c #435A34",
"W  c #455D3A",
"Q  c #4B5E39",
"!  c #416624",
"~  c #426C25",
"^  c #41652C",
"/  c #436C2A",
"(  c #437325",
")  c #457726",
"_  c #44732A",
"`  c #49732C",
"'  c #426332",
"]  c #446B32",
"[  c #496E33",
"{  c #4D653F",
"}  c #4C6B3B",
"|  c #51633D",
" . c #467331",
".. c #4A7334",
"X. c #4D6443",
"o. c #4C6946",
"O. c #516642",
"+. c #546B44",
"@. c #52664B",
"#. c #596D4F",
"$. c #5A744C",
"%. c #526851",
"&. c #5C6C53",
"*. c #5E7458",
"=. c #627355",
"-. c #687855",
";. c #64765B",
":. c #6A765C",
">. c #65795B",
",. c #6A7B5C",
"<. c #677361",
"1. c #6C7D63",
"2. c #6A835B",
"3. c #6E8367",
"4. c #728269",
"5. c #768468",
"6. c #768A6C",
"7. c #7A8D6A",
"8. c #799068",
"9. c #7A8977",
"0. c #7D8E77",
"q. c #818D79",
"w. c #839675",
"e. c #84947C",
"r. c #89947D",
"t. c #899A7E",
"y. c #849382",
"u. c #8A9783",
"i. c #8C9A84",
"p. c #8F9F8D",
"a. c #909F86",
"s. c #929E8A",
"d. c #8EA285",
"f. c #8EA885",
"g. c #97A788",
"h. c #94A38C",
"j. c #99A592",
"k. c #9FAC97",
"l. c #99A798",
"z. c #A3AB94",
"x. c #A4AB9C",
"c. c #A7B494",
"v. c #A5B19D",
"b. c #A9B29B",
"n. c #ABB99F",
"m. c #A4B2A2",
"M. c #ABB6A4",
"N. c #ABB9A5",
"B. c #ADBAAC",
"V. c #B3BCA7",
"C. c #B3BEAD",
"Z. c #B4BDB1",
"A. c #B3C2A7",
"S. c #B4C4AC",
"D. c #B9C3AF",
"F. c #B5C3B1",
"G. c #BAC4B4",
"H. c #BBCEB3",
"J. c #BEC5B9",
"K. c #BECBBA",
"L. c #C4C8B7",
"P. c #C1C6BC",
"I. c #C5C8B9",
"U. c #C2CABC",
"Y. c #C5D1BC",
"T. c #C9D7BE",
"R. c #C5C6C2",
"E. c #C4CBC2",
"W. c #C6CBCA",
"Q. c #D0CFC7",
"!. c #C6D2C4",
"~. c #CAD2C2",
"^. c #CAD7C5",
"/. c #CDD4CB",
"(. c #CEDBCC",
"). c #D0D6CC",
"_. c #D3DBCD",
"`. c #D8DECC",
"'. c #CDD4D1",
"]. c #D6D7D3",
"[. c #D2DCD1",
"{. c #D9DCD4",
"}. c #DEDEDB",
"|. c #D6E1D1",
" X c #DAE2D7",
".X c #DCE4DC",
"XX c #E1E3D7",
"oX c #E3E5DD",
"OX c #E4EBDC",
"+X c #DDE5E2",
"@X c #E2E6E4",
"#X c #EAE7E5",
"$X c #E4ECE4",
"%X c #EAEDE5",
"&X c #E5ECEA",
"*X c #EEEEEE",
"=X c #F1EDED",
"-X c #EDF0E7",
";X c #E9F3E9",
":X c #EDF1EC",
">X c #F1F3ED",
",X c #F4F9EC",
"<X c #EEEDF1",
"1X c #F1EEF2",
"2X c #F4EDF8",
"3X c #EEF2F2",
"4X c #F3F3F3",
"5X c #F8F5F4",
"6X c #F4F3F9",
"7X c #F7FBFA",
"8X c #F8FAF9",
/* pixels */
"*X*X=X*X<X*X*X*X*X*X*X*X*X*X*X<X*X:X*X=X*X*X*X<X*X*X<X<X*X-X1X*X*X<X*X*X*X*X*X*X*X*X*X*X<X:X=X<X*X*X*X*X:X*X=X*X<X*X*X*X",
"*X*X:X*X*X*X*X*X*X*X*X*X*X*X*X*X*X*X*X<X<X*X*X3X=X*X:X<X*X*X*X*X:X=X*X*X*X*X*X*X*X*X*X*X*X*X*X*X*X*X*X*X<X*X:X<X*X*X*X=X",
"*X*X*X*X*X*X*X:X*X*X*X*X*X*X*X=X*X*X*X*X*X*X*X*X1X4X^.oX*X*X*X*X*X*X*X*X*X*X*X*X*X*X*X*X*X*X*X*X:X<X=X*X<X*X*X*X:X*X=X*X",
"*X*X*X<X*X*X*X1X=X*X*X*X*X*X<X:X:X*X*X*X*X*X*X;X<X4Xh.J.,X*X*X*X*X*X*X*X=X3X*X*X<X*X*X*X*X*X*X*X*X*X*X*X*X*X*X*X*X*X<X*X",
"*X*X*X*X*X*X*X*X*X*X*X*X=X*X*X*X<X=X*X*X*X*X*X*X<X:X5.r.>X=X=X*X*X*X*X*X*X<X*XR.*X*X*X*X*X*X*X*X*X*X*X<X=X*X*X*X*X*X*X*X",
"*X*X*X*X*X*X*X*X*X*X*X*X`.1X-X*X*X*X<X1X=X<X*X*X=X*X4.0 @X1X*X<X*X*X*X;X*X5X^.4.&X*X*X*X*X*X*X*X*X=X*X<X1X=X:X*X*X*X<X:X",
"=X3X<X*X*X*X<X>X*X=X=X=Xg.Y.6X<X*X*X4XP.`.4X<X*X=X%X1.X J.5X*X*X*X*X*X-X<X4Xj.o.&X<X*X*X*X*X*X:X*X*X5X).Q.4X*X*X*X*X*X*X",
"*X*X*X*X*X*X*X*X*X*X*X=Xb.| @X<X*X*X4Xx.7.:X<X<X=X#X*.X u.:X*X*X*X*X*X*X1XXXW @.&X4X*X*X*X*X*X*X*X3X XQ ~.4X*X*X=X<X:X*X",
"*X*X*X*X*X*X*X*X*X=X*X4XE.  s.:X*X%X4XG.  K.4X<X>X@X&.# +.+X*X*X*X*X<X*X4XJ.X &.@X>X*X*X*X*X*X=X<X$X3.i .X4X*X*X*X*X*X*X",
"*X*X*X*X*X*X<X*X*X*X*X:X+XX.O R.4X*X4XK.X *.oX<X=XoXO.6 @ !.4X*X*X*X*X*X*Xq.O #.+X:X*X*X*X*X*X1X3Xj.  0.*X*X*X*X*X*X:X*X",
"*X*X*X*X*X*X*X*X*X*X*X=X1X6.+ } .X2X5X!.: @ k.3X5XXX| i + h.3X*X*X*X:X4X(.d % #.&X4X*X*X*X-X*X2XC.# + b.,X*X*X*X*X*X*X*X",
"*X*X*X<X*X*X*X*X*X*X*X*X5Xb.@ @ i.=X4X{.N < n [.4XXXO.r , >.&X<X*X*X*X3Xm.@ > =.&X*X*X*X*X*X4X`.m p # E.>X%X<X*X*X*X=X*X",
">X*X*X*X<X>X*X*X*X*X*X*X4X/.% A @ K.4X@X@.5 @ t.:XoX+.6 V 6 _.4X*X*X*X&X3.% : 1.&X>X*X*X*X3X$X4.$ p { oX>X*X*X*X*X*X*X*X",
"*X*X*X*X*X*X*X*X*X*X*X*X2X&X=.3 6 +.oX:X3.# A # ~.-X+., ' O C.4X*X*X3X(., S @ 6.;X*X%X*X3X>Xk.O E + t.3X*X*X*X*X*X*X*X*X",
"*X*X*X*X*X*X*X1X=X=X*X*X=X2Xj.+ } O x.,Xu.+ F + 9.OX=.: [ O s.>X*X&X3Xm.O ' @ r.:X*X*X=X>XY.> n A + G.4X*X1X=X=X*X:X*X<X",
"<X*X*X<X<X>X].}.=X=X;X;X<X1XT.$ ^ k % [.N.X Z N # F.4.# ` > #.OX*X3X$X1.= [ O d.:X2X*X=XOX-.# ^ i ! .X1XOX'.*X*X*X*X=X*X",
":X*X*X<X*X5X).,.oX1X*X*X1X=X%X;.8 } O i.S.+ N D $ 1.>.: ` S % `.4X<X_.r k ] O z.:X<X*X4Xx.O R ^ + w.*X5Xc.i.1X*X*X*X*X*X",
"=X*X*X<X*X1XoXh y.*X=X*XoX*X4Xx.@ ..k i f.' 4 L a y p r ( L O V.4X>Xn.O L ] o M.,X<X>X/.4 e ~ L + F.8XE.  M.4X*X*X*X*X*X",
"<X*X*X<X*X=X:Xq.  v.4X3Xj.U.7X/.- U _ > X.Y 1 J x i i d U ] O a.>X:X6.+ / / + G.4X<X$X3.@ L  ., O.&X{.Q + ^.4X*X*X*X*X*X",
"*X*X*X<X*X*X4Xx.O > U.7Xm.> [.3X1.;  .z q i r l ~ r i a ( / # :.=X}.l e ` L @ E.4X:XC.O V P ] O j.:X9.O @.+X4X<X:X=X*X*X",
"*X<X<X*X*X*X4XK.# e R @X'.. %.$XV.X .._ a i w j _ f i p ~ / r 3 oXL.O R ` H : ).5X`.S q x ) S @ ^.m.O # e.:X*X<X<X<X1X1X",
"*X6X<X<X*X*X4X.X' n O t..X%.X 7.T.G s  .V u i i P K i r J _ V O Y.z.X ] ` a B  X>Xa.O D ( / @ 7.H.* A @ M.4X*X%X<X3X`.}.",
"+XW.3X3X*X*X*X3Xu.+ E o B.i.@ + d.0.=  ./ a r r ~ ) j r V  .C + f.3.# P ` 8 Q $X~.# b J _ J @ g.:.# n 1 ^.4X*X-X4X.X=.].",
"#X&.A.4X*X*X*X5XF.O D , X.f.: M i $.e P ) H r i x _ J t e ] J 1 X.S e U ` ; ;.oX4.# D ( ( 9 W ,.% D $ :.*X<X*X:XOX3.o.&X",
"4Xh.  Z.4X<X&X4X XR 6 P > +.' u i 1 e z ) ~ r i z ( _ d u V J r i r f _ ` @ e.A.+ d K ( K r m w k L o b.>X1X<X:Xh.  p.4X",
"4XE.@ = B.3X&X*X-Xe.+ ] N q i r h p e d ( ( l t j ( _ H i i P a i i z ( _ # 6.>.@ C ) I k i i i J V % _.4X*X>XB.@ # G.4X",
"4X.X+.4 # V.4X<X4XG.+ Y / i i r B C a r c ( J t a ( _ P r i k d r r ~ ) K r N b i ~ ) U d i r l [ @ 4.&X<X4XE.& q R .X<X",
"<X:Xs.@ N % K.:X*X.XO.2  .h i i i ! j r k ` K a r / ( ( k e d d i r ~ ` J r i r k ) ( K 6 r 6 / / o B.3X3X Xo.2 # 0.<X*X",
"<X4XE.@ A i , U.1X3Xh.O / / i i e J ~ 4 r ~ _ d e J ( v K w i i i g T ( J r i a ~ T ( f r r z ` 0 h  X4X%X0.@ Y O F.3X*X",
"<X>X&X<.# A : R /.7XW.@ J ` l e i j _ V e d U k e C ( ( ( h i i r h ) ( J i e V ) T K d a a I / @ q.:X6XM.O Y 8 X..X3X*X",
"*X*X4XN.O D Z $ ' |.:X;.= ` ( d i d K U d e H J q N ( ( ) k u i e H ( ( V i d P I ) J e q H ) L + D.5X/.: d [ + h.4X<X*X",
"*X*X<X.XW 3 C Z $ $.$XM.. ^ ) J r r k _ J e i j i d _ _ ( ~ d i i ! ` / a t k _ ( ( f r d _ ` , o.OX$X<.# ] ^ # !.4X*X*X",
"*X*X*X4Xl.+ ' h B O y.^.p 0 ) ( g e h U ( j e i i d / _ ( ( j e i / ` x r i P ( ) ! e r c I ] + j.:Xl.O ^ ` = 1.%X1X<X*X",
"*X*X*X2X[.; C ~ r Z + f.w.+ ~ ( c i e C _ I a u i i K U U ) K r u J ( a r N ( ) _ j r h T ) D + _.).# d / ] o D.4X1X;X:X",
"*X*X*X*X3Xy.@ ` K e r i 2.6 x ) ( k w h ( ( z r i r H ) ( _ ~ g r V J r i P ( ) J i r K ( ` # 1.OX1.@ ^  .3 X..X1X<X*X*X",
"*X*X*X*X6XW.# C _ k d i 1 r h ~ ( K i r x ) / d i r k _ ~ _ _ l t i p r f U ( ` j y k U ) ^   D.n.  R _  .O j.>X*X*X*X*X",
"*X*X*X%X1X%X6.#  ./ a i i r r c _ _ k e k ( ) U i r a ( _ ( _ ! q i i 6 J _ _ H r i ~ _ _ 2 ' S.E 4 ^ ` k 1 /.3X*X*X*X*X",
"*X*X*X*X*X4XG.o ' ) J e i i r l _ I P r a P I I k w d ( _ ~ ( _ a i i a ~ ( / d r l ( ( / + 7.8.+ J ` ` # 0.:X*X*X*X*X*X",
"*X*X*X;X*X*X$X>.; _ ( l e i i i _ I ) k 4 V U I K r i K ( ( ( ~ z r w l T T H y p ! v ( S i 2.N d / ( L O G.4X*X*X*X*X*X",
"*X*X*X*X*X*X4XB.O L _ ` g r i q J ( ( ( r i I I ( d r J _ ( ( ( ~ e w l ) T i i l ) T ( r n B 4 J _ ` , &.oX<X*X*X*X*X*X",
"1X*X*X*X*X*X<X.XE 5 _ ( ! r i i s ( U ( V w H U I N t J ` T ( ( / g t h ( z r d P ( ) c 6 i r h _ U  .+ k.4X<X*X*X*X=X*X",
"*X*X*X*X*X*X<X4Xj.O L ) _ C u i r K U ( J q f U ( j y x ( T ( I ` h e i J j e h _ ( / g e p e ~ _ _ C : /.4X*X*X*X*X<X*X",
":X*X*X*X*X*X%X>X).1 j _ / ~ d r r V ) ( ~ a i P ) h w h ` ( ( U ) c r i p p r ! ( ( ~ p r r h ) ( _ # 4.*X<X*X*X*X*X*X:X",
"*X*X*X*X*X*X*X=X;X6.@ L ( ( c r i d ( ( ) C t V ) x w g ~ T ( _ T ~ p r p 6 g ) v ) ! w i r ~ ) I P O B.4X<X*X*X<X:X*X*X",
"*X*X*X*X*X*X*X*X6XG.+ A ( ( ( g p i K ( ) P y i ( c 6 i ( ( ( ( ( _ j r p w J ) ( ` h p i l ( T _ a N {.4X*X*X*X*X*X*X*X",
"*X*X=X<X*X*X*X*X6X+X' > ~ ( ( L r r l _ ( / p w c K 6 i P ( ( _ ( ) C w i f / ( ( ~ p p e / ) ~  .@ 6.:X*X*X*X*X*X=X:X<X",
"*X*X:X*X*X*X*X*X<X:Xi.+ D _ ( _ k e j / ( ` C 6 k L r i K _ / ( U ` ^ p r C _ ( ( ! r r h ` ( ` L o N.4X*X*X*X<X<X*X*X*X",
"*X*X<X*X*X*X*X;X*X4XK.@ N / ( ( J r a ~ ( / J 5 d J h 6 J ) ( _ ( _ C i r K _ ( ( l r r ~ ( ) ~ d 1 _.1X*X*X:X*X=X*X*X*X",
"*X*X*X*X*X*X*X:X*X=X.XO.% J ) ( K r r ! ( ( ! r u V a e J ( ( _ ( _ d u k ( _ _ ~ d r k ( T _ / # -.#X<X*X*X*X*X<X:X=X<X",
"*X*X*X*X*X<X*X:X*X*X:Xu.O S ( I ( g w x ) T / h i N j e J ) I _ ) K r u H ` I ( / p i J ( T _ L O h.4X*X*X*X*X*X*X*X*X*X",
"=X*X*X*X*X*X*X*X*X*X4XZ.O S K ( ( g r g ( ( ( h i i i w z ) I U ( k r i K ( ( ( L i N P ( ( ~ S + Z.4X*X*X*X*X*X*X*X*X<X",
"3X*X*X*X*X*X*X*X*X*X4X_.2 i J ( ( l r i ~ ) ( l r g r t z ) I ) / a r k _ ( ( ( j e H ) ( ( ~ i 1 _.4X*X*X*X*X*X*X*X*X=X",
"*X*X<X:X*X*X*X*X*X*X<X&X=.# C ( ) x e i K ( ) x r i i r z ) I ( P r r x ( ( ( ~ r i ~ _ U _ L : +.@X=X*X*X*X*X*X*X*X*X:X",
"*X*X*X=X*X*X=X*X*X*X*X3Xt.+ S K _ J y i J ( ) ! r i i i z ) I ( H u r K ( ~ ) C t k _ ( ( _ L + 7.*X1X*X*X*X*X*X*X<X*X*X",
"*X*X*X*X<X*X:X*X<X*X*X4XB.O Z ! ) K i i C ( ( ~ r i i i H ( I ( k t a ~ ( _ ` j q H _ ( ( ( D + s.>X1X*X<X:X*X*X*X*X*X*X",
"<X*X*X*X*X*X*X*X*X*X*X3XE.@ Z H ) ~ i i h ( ( ~ a i i e x ( I I g y d ( ( ( ~ d e K ( T ( ~ D O b.4X*X=X*X*X*X*X=X:X<X*X",
">X*X*X*X*X*X*X*X*X*X*X4X).7 i H ` / p r h ` ` / j i p r x ` ` / i w C ` _ _ K e j [ ) ` ` ~ Z O Z.4X=X*X*X*X*X*X*X1X*X*X",
"*X*X*X*X*X*X*X*X*X<X*X3X+XO.t A S S n Z N L ^ L Z n n n S J J D n n B L L L S n Z ! ! ! / L Z @ I.5X=X*X*X*X*X*X*X*X*X*X",
"*X*X*X*X*X*X*X*X*X*X*X3X&XX.o # @ + @ @ @ + @ @ @ @ @ # @ @ @ @ @ @ @ @ @ + @ @ @ @ # # # # $ X I.4X<X*X*X<X*X*X*X*X*X*X",
"*X*X*X<X*X3X=X*X*X*X*X*X=XW.Z.J.J.J.J.P.J.J.J.J.J.J.J.J.J.J.J.P.L.K.L.P.K.P.P.K.P.P.K.R.U.P.P.E.oX1X*X*X*X*X*X*X*X*X*X*X"
};
