/* XPM */
static char *result[] = {
/* columns rows colors chars-per-pixel */
"60 60 256 2 ",
"   c #010101",
".  c #0B0102",
"X  c #040008",
"o  c #140203",
"O  c #1B0203",
"+  c #1D050A",
"@  c #180809",
"#  c #240204",
"$  c #2B0304",
"%  c #270A05",
"&  c #2C0A04",
"*  c #23040A",
"=  c #2C050A",
"-  c #240A0B",
";  c #2C0C0C",
":  c #330404",
">  c #3C0303",
",  c #330A05",
"<  c #340509",
"1  c #340A0B",
"2  c #3B0808",
"3  c #3B0B0C",
"4  c #37130C",
"5  c #3A0D12",
"6  c #2A1010",
"7  c #351313",
"8  c #3C1414",
"9  c #3A1917",
"0  c #430303",
"q  c #4C0304",
"w  c #470A06",
"e  c #4C0509",
"r  c #420C0C",
"t  c #4B0C0D",
"y  c #540304",
"u  c #5B0404",
"i  c #530509",
"p  c #580908",
"a  c #5C0A0B",
"s  c #46120C",
"d  c #4B120D",
"f  c #57150A",
"g  c #430E12",
"h  c #4B0E15",
"j  c #550E13",
"k  c #421212",
"l  c #4B1313",
"z  c #471A19",
"x  c #541313",
"c  c #5A1414",
"v  c #551C13",
"b  c #5A1817",
"n  c #541C1B",
"m  c #5B1B1B",
"M  c #64050A",
"N  c #690708",
"B  c #640A0B",
"V  c #760508",
"C  c #740A0C",
"Z  c #7B0B0C",
"A  c #66170B",
"S  c #78150B",
"D  c #720A11",
"F  c #671716",
"G  c #641C1B",
"H  c #6B1C1C",
"J  c #771A17",
"K  c #49241B",
"L  c #592319",
"P  c #55321E",
"I  c #74280F",
"U  c #672619",
"Y  c #6D241C",
"T  c #76261A",
"R  c #541E22",
"E  c #711D23",
"W  c #482825",
"Q  c #592725",
"!  c #512F2E",
"~  c #5C3529",
"^  c #593836",
"/  c #682926",
"(  c #742423",
")  c #7B2C24",
"_  c #782828",
"`  c #6C3525",
"'  c #64332C",
"]  c #783527",
"[  c #7B2A32",
"{  c #653A36",
"}  c #773934",
"|  c #6A4439",
" . c #714831",
".. c #794639",
"X. c #684743",
"o. c #774B47",
"O. c #6C544C",
"+. c #79564A",
"@. c #6A5451",
"#. c #725855",
"$. c #870809",
"%. c #930000",
"&. c #980708",
"*. c #8F1604",
"=. c #8C0C11",
"-. c #980D11",
";. c #8C1B15",
":. c #871A19",
">. c #981516",
",. c #A60106",
"<. c #AD0F0C",
"1. c #AA1418",
"2. c #B7181C",
"3. c #87261B",
"4. c #95281B",
"5. c #89361C",
"6. c #97341C",
"7. c #A8291D",
"8. c #BA1E21",
"9. c #882726",
"0. c #842D2C",
"q. c #8C2C2C",
"w. c #952A29",
"e. c #932C2B",
"r. c #883629",
"t. c #92342C",
"y. c #973829",
"u. c #882D34",
"i. c #942B31",
"p. c #883533",
"a. c #993B31",
"s. c #B72A27",
"d. c #A5362A",
"f. c #AD312A",
"g. c #A63834",
"h. c #C9201F",
"j. c #C61C22",
"k. c #C72726",
"l. c #CA332E",
"z. c #CE3935",
"x. c #D33936",
"c. c #8C422B",
"v. c #97452B",
"b. c #884737",
"n. c #984734",
"m. c #8A563D",
"M. c #985439",
"N. c #A3462C",
"B. c #A74935",
"V. c #B64536",
"C. c #A6563A",
"Z. c #B6573C",
"A. c #B0643B",
"S. c #CC483B",
"D. c #894C49",
"F. c #88564B",
"G. c #9A5844",
"H. c #875953",
"J. c #945552",
"K. c #A75844",
"L. c #AE564F",
"P. c #B55944",
"I. c #906D58",
"U. c #996858",
"Y. c #A9674A",
"T. c #B96848",
"R. c #BA734A",
"E. c #A96855",
"W. c #B76954",
"Q. c #AE7557",
"!. c #B87557",
"~. c #876C69",
"^. c #976A64",
"/. c #97766A",
"(. c #9B7B77",
"). c #A56A62",
"_. c #A7766B",
"`. c #BA7A63",
"'. c #A77B74",
"]. c #D74B45",
"[. c #CC554B",
"{. c #D95C55",
"}. c #E15852",
"|. c #C5684A",
" X c #C66A56",
".X c #CE6E55",
"XX c #C77757",
"oX c #D96B61",
"OX c #C67A64",
"+X c #D97767",
"@X c #E6766C",
"#X c #A7856D",
"$X c #A6876D",
"%X c #A98579",
"&X c #B7877A",
"*X c #CB8657",
"=X c #CE8A51",
"-X c #D4875A",
";X c #C98768",
":X c #D98969",
">X c #D99665",
",X c #D28B74",
"<X c #CB9678",
"1X c #D79A7A",
"2X c #E3946E",
"3X c #E99C78",
"4X c #DAA870",
"5X c #EAA877",
"6X c #EEAD77",
"7X c #9D8E83",
"8X c #A88C83",
"9X c #B79586",
"0X c #B1938B",
"qX c #B39792",
"wX c #BBA397",
"eX c #BCA6A4",
"rX c #C69887",
"tX c #DD9785",
"yX c #D09188",
"uX c #E79687",
"iX c #D4AB8D",
"pX c #C9A897",
"aX c #DAB398",
"sX c #E7A886",
"dX c #F2AA87",
"fX c #E5B688",
"gX c #EBB38C",
"hX c #F3B787",
"jX c #E7AC99",
"kX c #E8B697",
"lX c #F6B997",
"zX c #C6ABA8",
"xX c #C7B5A7",
"cX c #D4B7AB",
"vX c #C3B4B1",
"bX c #D4BAB5",
"nX c #E8BAA9",
"mX c #DFCD9E",
"MX c #EBC39A",
"NX c #F5C49A",
"BX c #D9C8B6",
"VX c #F5C9A6",
"CX c #E8C7B4",
"ZX c #F3D1B3",
"AX c #F8D9B4",
"SX c #FDE5BA",
"DX c #D9CAC4",
"FX c #DCD4CC",
"GX c #EAD6C5",
"HX c #ECD5CE",
"JX c #F5DAC7",
"KX c #EDE3CC",
"LX c #EAE3D7",
"PX c #F5E4D7",
"IX c #F3ECE5",
"UX c #F1ECE8",
/* pixels */
"                            X     X . . . . . . o O O O O O O O o o o o o . . .         . .                             ",
"                                .   . . . o o o O O O O O o o o o O + O # O o o X X                                     ",
"                              . . o o o o O O O # # O O O o o o o O # 3 n k $ # o X X . .                               ",
"                          . . o @ + + * # # # # # # # # O o O o o # # l / m 3 = O o . o . .         X X                 ",
"                      . . o + = ; = : < < : : : k 3 2 = $ $ $ # # # $ 0 m x 3 # + o o O # O o .                         ",
"                      . O % $ , < 2 0 q B Y ` ( A G F x x d e 2 , $ % : 2 r 1 % O O # $ : $ % o . X                     ",
"                  . . + % , r d f A ] G.T.T.W.XXP.9.3.T J S F m k 1 $ $ : $ & # O O 1 m m h : # O o .                   ",
"      X         . O = : w t f A b.E.!.E.c.c.5.P.3XR.5.y.a.a.t._ G t 2 , & & O o o O r ( ) J t = - + o .                 ",
"              . o * 2 r x A ..E.`.G.Y M A I v.T.>X6X-XA.V.B.N.r.9.F t r > $ # O O # 3 H 9._ m 2 = - * o X               ",
"              @ % , d f G G.!.E.U y A Y Y ) n.v.XXhX6X-XA.Z.V.6.3.J H a t 2 < % * $ < h H E G g ; * - - @               ",
"            . # , s f T Y.Q. .> p A Y b.b.Y I ] Y.4XlX6X2X3X:XT.5.T H F a g 2 = * * $ 1 e F E h < = - - - @ .           ",
"          . @ : w f ) Y.Y.f > v L ] G.K.b./ m ] b.E.1X#XE.;X2X5XT.5.) G f t 3 < $ # ; ; 1 j F c 2 % ; = ; 6 o .         ",
"        . O % h v ] XXY.0 w v v b.G.M.c.Y U / L U F._.' $ q u ;X2Xv.0.J A f w > > : , , 4 e F E t % ; 1 1 1 6 . .   X   ",
"      . o # 3 x I Y.!.y d L ' v ] c.n.] ` ' L f D.U.F.L K K 0 A.6XT.9._ S F F F G m d s 3 r E _ t , ; 3 2 3 7 6     X   ",
"    . X o $ r c ] ;XM.q L Q ' d f ] c...c.U U _._...~ ' z n y Y.6XT.N.V.B.n.v.6.N.M.r.T B c _ ) x 3 3 1 2 1 5 7 - .     ",
"  . . o O < 2 c A :X!.u L f v L L ] } b.} D.9X%X..O./.+.| P > Y.6X=X=X>X-X>X*X*X=X=XXXC.r._ n.c.f r 3 1 1 = 5 g 8 o     ",
"  . X @ + = 2 F T Q.dXW.f v s K L ` / L o.'.^.^ +.qXxX0XX.z $ _.NX6X4XfXfX6X6X6X6X4X>X=XA.C.R.b.j h 5 2 1 1 3 8 k -     ",
"  . o o O < 2 c 0.5.*XhXY.U L 9 ~ _._.'.^.| #.qXbXbXbX(.k z :  .fXVXAXmXfX*XM.A.*X2X6X>X=X=X|.5.F j g 3 1 1 1 k 8 9 .   ",
"  . o + # < > j p.c.R.6X!.U ' P /.<X9XpXBXcXeXLXIXDX'.Q z 4 3 > U &X<X<X<Xp.p y u 5.A.>X5X=XA.c.F j h 3 3 1 1 3 g 9 -   ",
". . o O O : r F r.M.>X6X!.f ~ | $XI.$X%XwXGXLXDXbX~.m ' d w v L f q u M q t c x d y u 3.XX4X>XB.E m j r 5 1 3 3 g k 6 X ",
"  o o O # , x ( T A.6X6Xm.P  .#X$X .X.~ O.$XDXeX~ Q } F I ) 0.) T ` U L 4 4 3 = < g x u ] 5X5XA.r.F x g 5 3 1 2 r g 5 . ",
"  o O o # 2 x ( I XX6X4X> ^ +.&XI.P $XwX#.eXDXqXq } T L.OXP.a.B.p.] ~ , & 9 & & - < 2 0 / kXlX:XZ.) b l g 3 3 3 r r 8 + ",
". o o o # 2 b H 3.T.6XXX0 ..I.$XO.#.$XwXvX7XIXeX# ] OXjXuX:XXXP.B.0.v 4 ~ 9 ; 6 1 1 1 : ] jXAXmX;Xn.( v k r 3 3 3 g g ; ",
"o o o O $ : t Y ) B.-XT.q b.I.$XO.^ /.$XwX#.BX%XV +XdXkXnXkX3X2X+XT 0 +.| 4 4 ; ; 1 k > } ;XkXAXgX!. .U v d r r 5 5 h 5 ",
"o @ o + # : > G ] y.A.|.M.M.G.I.+.~ I.I.H.+.rXY.[.@XuXkXBXSXVXtXJ.} ^.~.W W z 7 7 1 8 < U.OXW.sXAXiXY.0.U x l r r g h k ",
"o o O # = $ : j _ v.B.|.:XXX=X#XI.L |  . .I.Q.B.|.+XuXCXKXKXVX/.D.yX%XX.^ ~ W W W z $ ' ,X:X|.T.fXNX;XN.] U x l g h l l ",
"o O O O % $ , r G 0.N.N.A.-X6X4XY.H... . .M.B.C.T.:XgXZXJXcXI./.).0X/.H.o.| { ~ ' ~ : E.OXoX{.Z.Q.MXkXT.c.T G v j l x n ",
"O + + * # $ , > t F 3.r.N.|.5X6Xm.{ ..` I b.Z.[.[.:XsXjXOX^.wXHX0X'.'.^.J.D...} } G p. XP.N.d.B.d.,XVX<XC.r.Y F c x b m ",
"O + * # # % % > j F J 3.v.R.4XfXU.0 f Y T K.P.S.S.{.OXG.8XHXIXHXwXqX8X).).J.D.D._ 9.P.V.7.4.4.w.d.V.gXaXT.n.] H b c G b ",
"O # # # $ $ & r j F E 9.C.A.=XfX .q L ) r.Z.V.g.f.i.L.rXHXIXUXHXbXpX9X#X_.).E.G.;.f.l.7.4.4.4.7.g.$.!.VX;XC.t.( G m G G ",
"* # # $ $ , 2 r j F ( v.A.=XNX<X> L L Y n.n.9.Z p.E.%XGXLXUXUXHXCXxXrX'.'.yXE.S V.S.h.f.f.7.7.f.w.I y.lXsXC.v.9.T G H H ",
"+ # % $ : : 3 t j A 3.v.*XfXaXF.P ~ l m U U U J.yXpX0XwXeXBXFXLXLXCXpXpXnX&X_.uXV.l.k.s.s.f.f.1.;.3.$.1XfXR.B.t.( ( ( E ",
"+ # # = 1 : 3 d F I M.;X,XU.f  .X.P 6 , 4 ' H./.'.(.'.8X9XxXBXLXUXIXHXJXrX%XHXPXtXs.x.x.z.s.>.-.;.4.%.;XhXR.K.a.9.Y T J ",
"+ * $ $ 1 2 r b I Y.>XY.` ' $X%X#.! 9 6 K ! ! W ^ o.^.'.9XpXxXHXUXUXPX9XrXKXIXPXnX[.].].s.>.=.1.;.4.%.XXhX!.P.v.r.3.9._ ",
"+ - * $ < 3 d I G.,Xc.> K ^ zXvX~.. 6 @ % 6 K ^ o.H.^.).&XrXpXPXIXDX8XcXKXKXLXLXJX+Xf.s.1.-.-.-.;.4.%..XhX*XZ.v.9.0.9.( ",
"O * # $ : 2 n I OXOX# z . X.eXzX#.  - % 6 6 K ! { o.J.).'.rXCXGXqX9XbXJXGXSXFXHXZX[.,.8.2.-.=.-.3.6.&.XXhXR.C.y.t.0.q./ ",
"o + $ $ < k b 5.:Xm.: W   ~.eXqX^ X + @ ; 6 9 K ' o.H.U.9XjX9X/.aXJXJXZXGXJXGXGXnX[.2.j.1.=.$.$.:.3.*.XXhXT.N.a.r.q.q./ ",
". + # $ : s d n.,XU 0 9   7XFXvX! O + @ - 6 7 K ' ..D.).'.^.0XHXPXPXHXJXZXCXCXaXuXx.j.2.-.$.D D :.w.*.+XdXP.n.t.w.q.u.Q ",
". + # $ 2 k e M.!.f r 8 9 qXeXqX! $ - @ @ 6 7 9 / b.D.a.g.tXAXCXnXZXnXcXjXjXiXyX@Xl.j.2.=.V D D J :.*.2X3XC.n.e.w.3.[ k ",
". + ; $ 2 3 l ] XXM.0 9 6 @.%X0X| # - @ + ; 1 z G E =.7.[.@XuXuXyXyXuXtXtXtX,X@X}.j.j.-.$.V D M :.3.7.3X:Xn.t.e.w.9.` $ ",
"  @ - = 1 3 s A G.;X..> $ ^ qX8Xo.: % # = = 1 r j Z >.8.k.x.{.@X{.[.oX@X@X+XoX{.x.j.1.$.C N B B J ;.N.3X:Xv.q.e.q.p.Q . ",
"  o * ; 1 2 k b A !.E.: k . O.~.O.K > 2 < < 2 0 M D =.1.j.z.z.].].S.].}.}.].].z.j.1.=.V N B u M A ;.P.3X|.y.q.i.r.} 9   ",
"  . + ; 1 1 5 b U n.!.U > = 8 o.^ X./ c t r 0 q a N $.-.2.8.k.z.z.l.k.z.x.z.k.2.1.-.Z D a u y p J *.:X3XZ.a.r.u.u.'     ",
"  X O ; ; : 5 h G I Y.G.: 7 * W X.X.p.F a 0 0 e u M D =.=.1.2.8.h.h.j.k.k.h.2.1.=.D B M u q y a J d.3X*XB.t.q.q.u.z     ",
"X X . * 1 = 3 g x I c.!.b.> 4 $ W X.F.) p q > 0 q p N C $.=.-.1.1.1.2.1.1.1.-.&.Z N a q i e e F $..XsXY.y.e.u.u./ O X   ",
"    . o - 1 < 3 s L I M.;Xb.q s 1 X.o.` a i : > > e a N D Z Z Z =.=.=.=.=.$.Z V V N u q q e a V V.dX;Xr.r.w.i.u.9 X . . ",
"    . . O ; 1 g g c I r.W.;X] d 3 ^ } ] A u 2 > > 0 i a M M N N C V V Z V N B a u u y u q B $.6.gXsXB.w.w.i.u.Q         ",
"      . o - ; 5 l x U ] v.*XY.0 5 ~ } ) J M 0 > 0 > 0 e e i u a B B M M a M M p p e q i p J %.:XNXQ.a.i.w.q._ %   X     ",
"      . . o - 8 h R F T 5.Y.Y.q r Q ] 5.C N p q q 0 2 0 > w r e i i i e e u i i q q p B 9.%.T.lX;Xv.t.i.i.[ g   X       ",
"          . + 8 k n G ( I C.Y.q d ` 5.3.3.C N a p q 0 > > > > 0 0 e q q q > > q y N Z ;.,.|.MX1XB.a.r.u.[ z . X         ",
"          X X ; z n G Y J G.M.: w  .1X X&.;.J C N u i 0 > > > 0 q q i i i w f A $.4.&.<.+XlX1XC.d.d.i.[ W .             ",
"            . o 1 n m H ] K.U v F.<XhXlX:Xd.%.;.J F a i e e 2 e i a M D D $.%.,.,.%.Z.5XNX<XB.a.a.i.q.L O   X     .     ",
"                o 9 K G p.W.Y.`.;X*XR.1XNXgXXXd.*.$.Z J J C A N =.*.4.*.*.S. X XOXiXNXkXR.N.g.a.i.u.Q o   .             ",
"                  o 4 K ` G.E.K.b.y.n.C.*XgXNXgX;XP.6.%.%.%.&.,.,.<.,.S.2XlXZXAXAXNX,XV.d.g.d.t.[ z .                   ",
"                      % K U Y I J T 5.t.v.K.;XsXlXlXdX,XXXT.Z.Z.Z.T.;XNXSXSXAXMX,XK.y.a.a.i.p._ 8   X X                 ",
"              X X X     O K / _ J 3.9.4.w.w.y.C.W.;X1XsXgXgXhXgXgXMXVXmXiXrX!.C.y.w.t.q.p.p./ $   .                     ",
"                    X   . . 4 L / E _ 9.9.w.w.t.t.y.5.v.C.K.T. XXXW.W.K.B.a.r.e.w.w.w.9./ 9 X         X                 ",
"                    X X X .   O 7 Q / ( E 9.) ) 9.r.t.w.w.w.w.y.y.g.g.g.g.i.i.i.u.[ / h O   .         .                 ",
"                      X X X       o 1 R / ( 0.9.9.9.9.9.9.9.9.u.q.q.w.w.i.i.q.E R 7 X     .                             ",
"                    X X           .   . $ g c E E [ _ _ [ 9.9.u.u.0.[ [ / R 5 O     . . . X X                           "
};
