/* XPM */
static char *result[] = {
/* columns rows colors chars-per-pixel */
"60 60 256 2 ",
"   c #010000",
".  c #0B0100",
"X  c #080B04",
"o  c #140301",
"O  c #1C0301",
"+  c #170B05",
"@  c #0C1709",
"#  c #1A1507",
"$  c #230200",
"%  c #290802",
"&  c #350900",
"*  c #241303",
"=  c #281809",
"-  c #391906",
";  c #2B1912",
":  c #371C13",
">  c #0F2613",
",  c #3C2507",
"<  c #32330F",
"1  c #2B2618",
"2  c #392517",
"3  c #162E2A",
"4  c #0C353C",
"5  c #083939",
"6  c #0C3A3D",
"7  c #12383C",
"8  c #303425",
"9  c #441B06",
"0  c #451C13",
"q  c #47240A",
"w  c #57280B",
"e  c #493208",
"r  c #492917",
"t  c #532C13",
"y  c #582916",
"u  c #48341B",
"i  c #5B331B",
"p  c #583418",
"a  c #652B0D",
"s  c #6D300F",
"d  c #632D13",
"f  c #682B14",
"g  c #653214",
"h  c #6C3413",
"j  c #63321A",
"k  c #6C341B",
"l  c #683A19",
"z  c #6C3A1C",
"x  c #733414",
"c  c #7B3B15",
"v  c #73351B",
"b  c #733B1C",
"n  c #783818",
"m  c #7B3C1A",
"M  c #452B23",
"N  c #4A3626",
"B  c #4E362A",
"V  c #5A3A26",
"C  c #663924",
"Z  c #6C3A22",
"A  c #743A24",
"S  c #7C3C24",
"D  c #0F4312",
"F  c #2F4119",
"G  c #0A463C",
"H  c #15493B",
"J  c #085435",
"K  c #185739",
"L  c #314A31",
"P  c #146737",
"I  c #474C1A",
"U  c #6A431B",
"Y  c #7B4D16",
"T  c #78421A",
"R  c #7C441D",
"E  c #534A2F",
"W  c #464739",
"Q  c #6A4529",
"!  c #7B4422",
"~  c #784828",
"^  c #7A542A",
"/  c #694936",
"(  c #774C34",
")  c #6A5736",
"_  c #795638",
"`  c #746634",
"'  c #0C3743",
"]  c #103743",
"[  c #0D4543",
"{  c #154948",
"}  c #175748",
"|  c #10514C",
" . c #185655",
".. c #2A5848",
"X. c #1C694C",
"o. c #1B7351",
"O. c #24674B",
"+. c #27774A",
"@. c #256955",
"#. c #277756",
"$. c #357B55",
"%. c #2C7465",
"&. c #4E5849",
"*. c #6E5949",
"=. c #5A6756",
"-. c #516F53",
";. c #706C53",
":. c #537C65",
">. c #6C7A69",
",. c #833A19",
"<. c #853922",
"1. c #82421C",
"2. c #87481B",
"3. c #91501B",
"4. c #A4561A",
"5. c #854A25",
"6. c #8C4D22",
"7. c #8B4E2D",
"8. c #88552B",
"9. c #975929",
"0. c #885936",
"q. c #945B35",
"w. c #A35D2D",
"e. c #94622C",
"r. c #8D6338",
"t. c #98653A",
"y. c #A76737",
"u. c #AE6931",
"i. c #C27B3C",
"p. c #905C47",
"a. c #886647",
"s. c #966947",
"d. c #8E754D",
"f. c #9A7648",
"g. c #987556",
"h. c #A26B44",
"j. c #A6774C",
"k. c #B8764A",
"l. c #A67755",
"z. c #B87E57",
"x. c #927F68",
"c. c #C27F5B",
"v. c #24844B",
"b. c #288656",
"n. c #358A5C",
"m. c #34975A",
"M. c #37A75E",
"N. c #2B8863",
"B. c #398966",
"V. c #2A9867",
"C. c #389869",
"Z. c #3A8A75",
"A. c #3B9973",
"S. c #3BA668",
"D. c #3CA776",
"F. c #3BB577",
"G. c #458A5D",
"H. c #75855B",
"J. c #46996A",
"K. c #50926D",
"L. c #459A77",
"P. c #738971",
"I. c #46A86B",
"U. c #47B86A",
"Y. c #58B86E",
"T. c #48A875",
"R. c #55A979",
"E. c #4CB578",
"W. c #56B87B",
"Q. c #6AAF79",
"!. c #56C47A",
"~. c #67C87A",
"^. c #75C373",
"/. c #B9803D",
"(. c #8A885C",
"). c #B38954",
"_. c #B68658",
"`. c #8A9073",
"'. c #A98665",
"]. c #B78F69",
"[. c #C58753",
"{. c #C99868",
"}. c #D0966A",
"|. c #C59876",
" X c #D2A772",
".X c #D7A577",
"XX c #DDAC70",
"oX c #6F8B81",
"OX c #4DAC82",
"+X c #56AE86",
"@X c #58BA85",
"#X c #74AD88",
"$X c #66B986",
"%X c #68BB94",
"&X c #5BC586",
"*X c #66C889",
"=X c #6FCE8B",
"-X c #67CA95",
";X c #77CA96",
":X c #69D497",
">X c #78D599",
",X c #7DE29A",
"<X c #76C7A5",
"1X c #7AD7A2",
"2X c #77E5A8",
"3X c #889B89",
"4X c #939B8A",
"5X c #8FAC93",
"6X c #A5B199",
"7X c #8CBAA0",
"8X c #ABB7A4",
"9X c #B6BDAE",
"0X c #D7AA85",
"qX c #D2B08B",
"wX c #CEA295",
"eX c #E4B78C",
"rX c #86CC9B",
"tX c #84D69C",
"yX c #97D299",
"uX c #9ADB9A",
"iX c #98C9A8",
"pX c #86D8A6",
"aX c #96DBAB",
"sX c #94D5B2",
"dX c #ACCBAC",
"fX c #B6CAB4",
"gX c #A7D9B7",
"hX c #B8D7BA",
"jX c #89E4A8",
"kX c #95E3AA",
"lX c #8DE5B3",
"zX c #98E8B7",
"xX c #A6E8BC",
"cX c #B5E8B9",
"vX c #AAF2BE",
"bX c #C6D7BB",
"nX c #C8E6B9",
"mX c #A8DCC2",
"MX c #B8D8C3",
"NX c #9CE8C1",
"BX c #A8EBC5",
"VX c #ACECC4",
"CX c #B8E9C7",
"ZX c #AAF3C7",
"AX c #B7F2C9",
"SX c #BCF3D3",
"DX c #CBDAC6",
"FX c #D5DDCC",
"GX c #C8E8C9",
"HX c #D4EECD",
"JX c #C6F2CB",
"KX c #C7ECD3",
"LX c #D7EDD4",
"PX c #C7F4D5",
"IX c #D7F3D6",
"UX c #E4F4E0",
/* pixels */
"7 7 7 4 ] ' ' 4 5 G J C.E.@X:X&XW.A.%. .| | @.Z.#.G %.K.$X;XsXzXzX>XI.m.+.X.} { } O.#.L.L.N.Z.n.} [ { ' ' 6 6 4 4 ] 4 7 ",
"H G 7 7 ] ] ' 4 G H } B.T.@X&X&X&XT.B.#.X.X.#.A.V.| #.+X;XaXzXNXzX:XU.I.b.+.@.@.O.O.B.%X-XI.I.#.| | | ] ' ' 4 4 ' ] 4 5 ",
"O.} H 7 ] ' ' ' 5 { O.B.T.E.&X:X;X@XD.N.b.#.N.I.C.n.L.#XrXBXBXBXNX1XE.U.S.v.+.#.+.I.-X2XW.I.L.@.|  .] ] ] 4 ] 4 ' ] G | ",
"b.+.K H 7 6 [ 5 H } @.n.T.E.-X1XpX1X-XE.J.C.J.T.I.I.R.rXsXAXAXVXxXtXY.U.U.M.M.n.I.:X2X*XU.T.B.@. .{ { ] 4 4 4 4 4 5 [ %.",
"n.n.+.+.....} } X.O.+.b.T.U.-X1XlXlX1X1X*XR.W.$XQ.Q.7XsXcXAXJXcXxXaX=XU.!.!.&X*X:X2X2X&X!.E.B. . .| [ ' 4 4 5 6 ' | %.OX",
"b.V.V.B.b.+.+.+.o.+.+.m.I.E.-X1XlXlXpX1X>X>X=X;X>XaXxXSXAXCXcXVXVXzXjX~.~.,XjXjXjX2X-X&X&XE.%.@.{ | [ ' 4 4 ' 5 [ %.A.OX",
"b.V.V.D.L.C.N.b.+.b.m.I.E.W.*XpXNXlX2XjXpXjXkXVXZXPXKXPXPXKXPXSXCXBXxXzXkXkXmXVXvXvXtX;X;X$XA.Z.@. .| ' ' ' [ | %.N.OX-X",
"N.V.V.D.T.D.T.J.S.S.I.E.E.*X>XlXNXZXZXZXZXVXvXgXiX7X#X3X5X5X5X3X#X#X7XsXSXIXLXLXIXIXAXxXaXpX+XZ.Z.%.|  . .%. .%.Z.T.-X-X",
"V.V.M.D.OX&X&XE.F.E.OX&X-X;XpXzXvXcXgXiX7X3X>.&.1 . . .       . = < 8 -.5XMXDXMXfXMXKXPXSXZXsX%XZ.Z.%.%.Z.A.B.A.T.@X@XI.",
"V.V.S.U.&X:X:X&X:X:X:X:X1XpXxXgX5X5X:.8 +     O = r r r M r 2 r r : + . > L @.&.&.=.>.iXJXPXPXmX<X<X%X%XE.Y.T.Y.&X@XT.v.",
"V.S.S.I.&X1X1XpX>XpX1X1XzXAXMX:.F F , , q u M y p p j l Z Z C j d y 0 0 : % O .       3 P.gXcXVXZXNXNX<XtXtX,X=X~.~.T.#.",
"A.S.D.J.%X2XzXzXzXzXNXBXPXMXoX  1 8 i Q Z ! A A Z m R c n n v A b k h l A C C i 2 M 2   X ..R.7XmXZXNXNXzXzXkX,X~.W.J. .",
"D.E.I.W.*X1XlXZXZXAXAXMX5X>.8 o 2 i Z A S S S v n n ,.,.,.,.<.n m T T R ! T b k z z Q V ;     3 :.sXSXZXBXNXzX2X!.W.N. .",
"@X!.&X-X-X:XlXBXZXSXGXP.    o 0 j A S v S A A A v S <.S <.<.S v f v v b b b x n ,.c S 7.Z r = o   &.7XmXCXZXzX,X!.R.%.| ",
"W.&X=X=X;X>XzXZXmXgX6XW ; 2 0 y Z v v v v f f Z A A Z A ( A A S A A A v v A v x s x h k ~ _ p - ; . 8 :.iXSXBX>X*XOX%.@.",
"!.&X=X;X;XlXBXVX5X=.*.2 r i C k v f f h b f j s x s d ! ! ! ~ 7.5.! 5.b s s m S v f s f T ^ r.U ; * #   L 8XCXkX:X+XoXB.",
"E.W.>XkXxXBXCXCXP.O r 0 j j k h k h g z ! l g c 6.1.5.q.8.9.9.e.e.e.8.Y ^ 8.8.8.^ Q j b ! m ^ 8.^ t , ; * *.5XgXsXsX%XK.",
"!.&XjXZXAXVXCXdXW : y f j z g f v S b b m 6.6.8.0.~ Q / Q Q ~ ^ 8.e.e.^ ^ ^ ^ p l ~ k k S f a ! r.e.U q , $ * H.sXBXsX$X",
"&X>XvXBXVXKXfX&.O t f v k f f m ,.,.R ,.8.s.7.M 2 =     . + = - q ^ 0.~ e q * o $ t z s a k z j T 9.8.T l p 2 = W #XaXpX",
"&XlXxXVXJXfX>.+ r i f s f y y n 2.9.3.9.h._ r .   # ; = = = = 2 - p Q w - = X X   + i s f j Z z x 5.6.9.q.^ e 2 % W yXzX",
"2XBXAXAXgX;.O 2 t i d a S S d g 8.q.y.).d.: O ; = r u t p t t p i y f d d V : O X O i ~ j i g k b 1.6.6.8.8.i : % ;.aXzX",
"NXAXKXdX=.. r C V y y y ~ 7.f z 8.r.l.g.V % : - 9 y v x x b U b S 5.A Z Z A k y ; % i ( / C Q b m 1.6.6.6.0._ 2 O P.vXzX",
"VXCX8XW   : A A Z B y t f 6.3.3.t.l._ q % : M j a x m c n x x x s h j q y Z ! m 0 % - - u V Q ,.5.1.6.3.6.r._ = % 3XxXzX",
"AXhX*.  2 C S x y i y y f 6.4.w.y.j.p $ q y C A z b n x s a a a s w q - 9 d x c C y - $ * 2 w c ,.<.6.9.6.8.Q * - `.vXzX",
"KX6X$ 2 t ~ 7.S d y t w w ,.w.u.y.t., % - w Z Z Z S b b h g j h Y Q Q ) ) Z w h ( ( y & * = - s 5.,.2.2.3.~ i * , 3XcXzX",
"CX4X& r l 7.7.b d j d f a c w.w.h./ O = 2 V 0.7.! b b b b k Z U ~ ^ ^ f.g.Q w i Z 7.( M % * & g ,.5.2.2.6.~ t % , 4XCXzX",
"hXx.& r ^ w.5.y a s n 5.,.5.w.w.0.u X X = u _ s.0.7.5.R T m ! ~ ~ 8.s.j.0.w r i l t.s.V = ; - i 5.5.,.1.2.Y t 2 $ ;.iXzX",
"fX;.& C 9.w.1.h d a b 5.2.9.y.q.~ r O O o O ; C ( 0.p.t.r.r.f.f.d.l.s._ w 9 t y 8.'.g.r $ : t l ,.1.1.,.R h U Q p = P.nX",
"hX*.* z w.w.6.s d d j b R 6.9.e.^ - $ ; : ;     ; u Q _ g.].).(.g.a.E - 0 w i A e._.g.2 % r l T 1.R 1.R h h ^ s.) o >.GX",
"fX/ $ Q u.u.9.k d d y a T 6.3.w.~ O O M C V r r $ $ & 9 Q ;.*./ E q & y 0 w ( q.s.].a.= * t z c c R R h z ^ 0.r._ + ;.GX",
"fXB   ( k.u.q.m k j g a R 8.9.u.( o O M / ! b C y q q q - % % % & , r y j z p.l.].'.N & - w s c Y 1.h g Z ( _ p._ . ;.nX",
"fXW . *.c.k.9.1.n b m x R e.9.y.~ + + 2 Q 0.6.S ~ ! b g w t N p u Q _ ( 0.7.s._.l./ & 9 w w c 2.2.R g g r & y d.a.  >.bX",
"fXW   a.}.h.9.<.,.,.5.n m q.u.y.*.o + ; t ~ h.h.q.q.<.m ~ 0.0.) _ f.'.f.f.q.t.j.( - 9 d z h b R 2.3.U z r $ r g.a.  =.GX",
"dXB . ;.}.k.w.6.n v A k z ! ~ ( V X + ; - 9 ( p.k.l.8.2.q.t.p.r.g.).d.).'.'.s.p 9 9 i b b x b R 2.2.5._ i & C g.0.  =.bX",
"MXW   ;.|.c.y.0.h i r r : & $ % * X . * % $ ; V a.l.l.j.s.r.j.].|.].].].'.g.V & 9 y k S n h s Y 2.2.q.a.p q _ g.Q   ;.GX",
"9X&.  C p.8.Q t 9 - : : : : , ; = . . + + + # : M V _ a.a.a.a.x.'.'.g.) y % & 0 q s x n c x w i 2.2.y.r.q t s.l.i o `.GX",
"mX&.  M : & : r r N N r r r r u : + X # ; X o ; O . : N B B M r 2 % $ & & 0 y y g z m n m b z z 1.3.q.q.w l l.'.e 8 6XGX",
"fXL o M A *./ ( _ _ / C V y B M : # + ; 3 ; o + o = 0 9 $ & & - 0 r i C k v z v v m ! ! ! 5.8.r.8.7.7.5.5.s.'.d.q ;.8XGX",
"fX3   2 / ;.p.*.p._ ) / / B N M ; ; ; 8 2 ; * + o = / *.7.0.A C Z A A v v n n c <.<.Y Q ^ ` r.f.t.~ m 6.y.z.).e I (.6XcX",
"MXoX&.  O B p.p._ V u N N M 2 : #       ; : = + . / l.l.h.p.0.S v v n n n n ,.,.,.c U Q ` d.d.` C j ! 9.k.k.~ , ;.6XdXJX",
"KXKX9X>.% o W / B M o             8 B =.;.2 # # * *.l.q.,.n x n n m ,.m R 1.1.c Y Y ` ` H.(.;.U e j ! k.}.y.q ) 4XdXcXnX",
"BXCXKXFX4X+ + # + . ; &.&.=.&.>.4X9XDXDXbX`.< # # / a.7.n x x c ,.1.R S R R ! ^ ` t.(.(.H.-.I , p ~ f..X{.U < d.bXnXcXuX",
"sXzXCXKXFX=.      W 4XDXDXFXDXFXLXLXIXIXLXbX(.  + E l.j.6.x ! ! R 8.8.^ ^ Q ( ( ` d.;.*.I , - p 8.y.{. Xr.e E 6XnXnXcXQ.",
"1XpXmXKXFX3X&.>.3XMXLXLXIXIXIXPXKXGXGXIXDXLXDX=.  * s.{.h.9.0.^ ~ 8.~ C y r 2 u I N 2 ; $ t ^ 3.u. X.X|.) < `.nXnXcXyXY.",
"-XrXgXPXKXCXmXKXLXLXHXHXPXJXKXLXhX>.3XbXGXJXPX6X1   _ |.).y.r.R ! ~ i - % * o   @ ; q a ,.y.)./. XeX{.(.` H.dXnXnXyX^.Q.",
"1XzXVXAXZXCXAXVXGXKXGXGXJXCXIXFX>.  # H.nXHXJXgX=.  C ].{.e.5.q.8.Q q & r V U V Z U T 8.y.}..X0XqX|.;.) H.dXnXnXyX^.^.^.",
"lXBXVXNXlXzXgXzXxXVXAXAXJXGXIX4X  < ) r.`.fXHXGXP.  r l.{.j.z.|.r.h q h ~ 8.9.w.u.4.4.u.).0XqXwX0X( = D 5XJXJXnXuX~.^.Y.",
"jXaXpX>X>XrXK.#XaXZXZXAXKXPX6X8   / _.{.8.(.nXHX4X, & 0.}._.z.[.2.b 8.k.[.u.u.i.i.i./.XXXX.X0XwX*.# > -.uXJXnXnXuX~.!.U.",
";X;X;X-X=X-., E 5XxXvXBXCXGX3X  @ / l.z.*.E 8XHX8X;.9 q.}._.7.9.3.e.k..X0X{.{.{. X XXXXXXX X).t.I . K #XhXFXGXzX*X!.!.!.",
"&X%X-X&XK.F / ) =.iXaXgXgXVXCXP.  ; V / & W fXGX8X;.9 q.{.{.y.w.u.y.{.0XwX0XqX0XqXXXXX.X{.l.` F @ ..rXcXGXHXcX=XU.I.M.V.",
"L.OXOX+XG.*.].s.H.iXiXdXcXcXAXgXP.      L 6XGXGX3Xr *.z.].{.).k.[.}..X0XqXqXqXqXXX X].'.*.) F D G.iXJXJXJXcX^.S.M.v.P P ",
"Z.Z.L.OXG.*.g.) Q.sXsXgXMXZXzXkXrX#X>.P.fXGXAXhX&.% ].0X X}..XXXXX.XeXeXeXeXeX X].(.` I F L -.5XGXUXHXcXuX~.I.m.+.P P P ",
"%.Z.C.D.G.< , -.5XrXaXcXgXxXtX=XrXxXBXCXCXxXJXdX8 # *.'.|..X.X X].).|.0XqX X).s./ 8 F W >.8XFXUXIXGXaX^.!.M.v.P K K K K ",
"#.N.N.L.Q.K.H.Q.5XrXaXxXkXrX$X@X;XrXrXtXrXiXcXhX>.    ; *.s.j.s.( Q ( a.a.` E < ..=.3X9XFXUXIXMXsX*XE.M.M.v.P J K K K K ",
"X.N.C.R.Q.#XR.K.$XpXzXlXpXW.D.W.*X*X*X!.W.&XkXAXmXoX&.3   . = * .       < L -.`.8XDXKXUXPXmXlX%XJ.B.B.C.n.P J J { H H { ",
"@.%.L.+XR.G.+.J.;XkXkXtXQ.J.E.&X*X%XW.E.E.W.>XkXBXmXfX8X3X;.B 8 8 &.P.`.`.dXcXAXLXKXCXsX<X%XA.o.@.O.X.$.$.J H } { H 6 [ ",
"@.B.OXA.n.+.n.Q.pXaXpXR.G.J.E.Q.Q.$XK.I.W.W.W.*XaXCXGXDXDXbX6X8XfXMXGXSXSXSXSXmXpX<X@XF.D.A.@... .{ G X.} } { { { ] ' ' ",
"X.Z.A.b.o.b.J.^.pXtX$XJ.n.S.E.R.$XK.G.n.E.W.W.~.=XuXgXgXhXGXKXKXSXSXvXzXaX<X%XOXD.F.F.F.S.X.} { { [ G G [ [ [ [ ' ' ] ] ",
"#.%.#.X.o.n.Y.*X-X+XA.#.o.S.E.E.R.J.} o.T.E.S.U.U.Y.>XuXaXtXpXjXjX2X>X&X&XD.V.b.N.A.D.V.v.J H } { [ [ ' 6 G G 5 4 4 ] ' ",
"H L K O.O.-.R.W.T.B.#.J X.L.OXOXZ.K J @.Z.b.v.v.m.R.;XaXpX$XI.E.E.+XE.E.T.b.J } } O.B.G.+.J H { { ] G 7 4 4 5 3 3 7 4 7 "
};
