/* XPM */
static char *result[] = {
/* columns rows colors chars-per-pixel */
"60 60 256 2 ",
"   c #100C08",
".  c #1A170A",
"X  c #191B19",
"o  c #251304",
"O  c #261914",
"+  c #142718",
"@  c #282619",
"#  c #302C11",
"$  c #342C19",
"%  c #061D23",
"&  c #171D24",
"*  c #201C22",
"=  c #072521",
"-  c #1D2324",
";  c #1E252A",
":  c #1E2A2B",
">  c #1D2834",
",  c #222424",
"<  c #232925",
"1  c #2B2B23",
"2  c #23252B",
"3  c #29252B",
"4  c #242B2D",
"5  c #2B2D2C",
"6  c #322C24",
"7  c #273529",
"8  c #2C312B",
"9  c #3B3423",
"0  c #32332C",
"q  c #393529",
"w  c #3C3A2D",
"e  c #232631",
"r  c #262C32",
"t  c #2A2E32",
"y  c #312F33",
"u  c #263435",
"i  c #2C3234",
"p  c #2D3539",
"a  c #2D393B",
"s  c #323433",
"d  c #3B3335",
"f  c #353A34",
"g  c #3C3C34",
"h  c #33363B",
"j  c #343B3D",
"k  c #3A3D3C",
"l  c #4C391F",
"z  c #423B2B",
"x  c #463B28",
"c  c #583C23",
"v  c #453D35",
"b  c #334F19",
"n  c #374A2A",
"m  c #35542B",
"M  c #39552B",
"N  c #38592A",
"B  c #2C4B36",
"V  c #33433D",
"C  c #3C443C",
"Z  c #374D3B",
"A  c #3B5533",
"S  c #385637",
"D  c #3D5B32",
"F  c #3F6037",
"G  c #4B422C",
"H  c #534429",
"J  c #43582C",
"K  c #4C4433",
"L  c #464439",
"P  c #564A38",
"I  c #425B37",
"U  c #59533A",
"Y  c #5C543C",
"T  c #65512F",
"R  c #62543C",
"E  c #685A3A",
"W  c #6F613C",
"Q  c #2B3B44",
"!  c #343D42",
"~  c #3A3D44",
"^  c #433F45",
"/  c #354344",
"(  c #3B4444",
")  c #3B4B45",
"_  c #354749",
"`  c #3B454B",
"'  c #3C4A4B",
"]  c #3C5844",
"[  c #3D524C",
"{  c #2B4C5A",
"}  c #384B55",
"|  c #2B5051",
" . c #395559",
".. c #3D555A",
"X. c #2C576B",
"o. c #395A67",
"O. c #1A667D",
"+. c #266864",
"@. c #28667A",
"#. c #326D72",
"$. c #376678",
"%. c #424444",
"&. c #464A46",
"*. c #424C4C",
"=. c #564D42",
"-. c #43534D",
";. c #475948",
":. c #465B4C",
">. c #5C5343",
",. c #585648",
"<. c #434D52",
"1. c #484C52",
"2. c #445353",
"3. c #4A5454",
"4. c #465B52",
"5. c #4A5C55",
"6. c #47565B",
"7. c #4C5C5C",
"8. c #575A55",
"9. c #525D5C",
"0. c #675946",
"q. c #645C45",
"w. c #645C4B",
"e. c #725F44",
"r. c #655D55",
"t. c #48624C",
"y. c #51694C",
"u. c #4C6254",
"i. c #4B6657",
"p. c #4E625C",
"a. c #52645C",
"s. c #59655A",
"d. c #536A5B",
"f. c #6A6347",
"g. c #74664A",
"h. c #686656",
"j. c #766A55",
"k. c #717251",
"l. c #7B7456",
"z. c #424E60",
"x. c #445D67",
"c. c #4D5D62",
"v. c #525C63",
"b. c #4B6566",
"n. c #536564",
"m. c #556965",
"M. c #5A6C65",
"N. c #546469",
"B. c #5B6568",
"V. c #566B6B",
"C. c #5A6C6B",
"Z. c #5A7368",
"A. c #5D726D",
"S. c #476975",
"D. c #586973",
"F. c #5C6D71",
"G. c #4B737C",
"H. c #5D7172",
"J. c #577379",
"K. c #656B69",
"L. c #62736D",
"P. c #69766B",
"I. c #767668",
"U. c #656C75",
"Y. c #627373",
"T. c #677877",
"R. c #757A78",
"E. c #88734D",
"W. c #847759",
"Q. c #857C68",
"!. c #7B857C",
"~. c #8D835D",
"^. c #898666",
"/. c #898E7D",
"(. c #3E5C80",
"). c #196689",
"_. c #096C96",
"`. c #1A6A99",
"'. c #18739B",
"]. c #2B6B85",
"[. c #366B85",
"{. c #2A7889",
"}. c #357588",
"|. c #246C94",
" X c #277795",
".X c #387A97",
"XX c #1171A5",
"oX c #1777A6",
"OX c #187BB5",
"+X c #267AA7",
"@X c #367CA8",
"#X c #3A7EBA",
"$X c #4E728B",
"%X c #48768B",
"&X c #567986",
"*X c #447896",
"=X c #6A7981",
"-X c #717C84",
";X c #437FA1",
":X c #278399",
">X c #39849D",
",X c #1B85A9",
"<X c #1D92AC",
"1X c #1985B6",
"2X c #168BBC",
"3X c #1B8CBC",
"4X c #1994B8",
"5X c #1B92BC",
"6X c #2886A9",
"7X c #3483A5",
"8X c #3C84A4",
"9X c #3483AC",
"0X c #3B85AA",
"qX c #3889AB",
"wX c #2893AD",
"eX c #3B93AB",
"rX c #2986B6",
"tX c #3584B2",
"yX c #3888B7",
"uX c #2897B8",
"iX c #3798B8",
"pX c #30A3BB",
"aX c #5B878F",
"sX c #46839C",
"dX c #6B8388",
"fX c #758489",
"gX c #6D8E95",
"hX c #4886A7",
"jX c #5686A2",
"kX c #4995B2",
"lX c #57ACBC",
"zX c #198BC2",
"xX c #1B94C3",
"cX c #1C97C9",
"vX c #1D9CD3",
"bX c #378CC3",
"nX c #269AC5",
"mX c #2B92CA",
"MX c #239BCB",
"NX c #3597C3",
"BX c #229DD4",
"VX c #1EA3CF",
"CX c #29A4C9",
"ZX c #27A5D6",
"AX c #32ABD6",
"SX c #31AFD4",
"DX c #38B7DB",
"FX c #1CA1E2",
"GX c #29ACE2",
"HX c #31B7E4",
"JX c #47B0D1",
"KX c #62BBD1",
"LX c #3BC3DD",
"PX c #37C5E6",
"IX c #52C7E9",
"UX c #829194",
/* pixels */
"C.V.L.A.7.p.m.N.7.C.U.N.A N N N N N m t.Z.i.S m m m N D N N N A N N m B > > ; > > e 4 r r r 5 r 5 2 t p _ 2.7.M.n.3.9.n.",
"n.m.V.C.p.6.n.m.n.2.D.B.4.m N N N N m F m.d.t.m m m N N D J N J N b b m B : > > > > 4 r 4 5 4 : 2 e e ! _ ' n.a.4.5.7.a.",
"m.M.m.m.m.7.3.v.9.2.v.C.m.;.N m m N m S d.m.i.S m S m N N S ] +.| ] S b n b B u u > > 4 4 : : 4 u a V / ' -.L.5.[ 5.u.7.",
"C.m.n.C.H.9.3.v.9.v.8.B.D.n.m m m N N m t.Z.Z.t.m ] {.6X<X,XuXuXrXNXiX+.m N m S _ _ a u u a a a k -.;.I ) M.M.;.:.u.5.5.",
"n.n.V.A.m.[ 7.9.8.9.5.a.D.m.;.m N D D S D d.Z.] b {.MXMX4XvXZXvXcXZXFXuX+.J D N ] ] &.Z ) ) ' / Z ;.I I a.A.u.;.:.:.:.4.",
"n.m.m.m.C.5.-.5.5.9.u.5.N.V.m.] D N J F D t.d.S.:XnXvXcXVXFXvXcXxXvXZXuXeX+.D I N | S S D N D I I I M ;.Z.d.) ;.u.4.u.4.",
"C.n.n.n.C.M.3.*.5.5.5.5.z.D.D.a.B N F I t.+.y.>XZXZXZXZXGXvXcXcX2XzXVXcX<XwX}.Z.d.i.p.t.] D D m M I A t.d.:.;.:.4.5.4.[ ",
"p.n.m.m.M.a.9.-.3.5.5.7.2.v.N.n.n.Z.Z.T.T.!.kXuXvXGXBXMXZXMXcXzX2X4XvXcX4XCX<X}.J.J.D.V.V.p.t.;.I n ;.;.u.[ :.4.4.4.:.n.",
"m.C.C.m.n.n.m.n.-.-.7.7.m.n.m.Y.L.!.!.dX-XjXDXZX,XCXVXcXMXCXxX2XxXcXxXxXcXCX4XO.7.A.K.B.L.L.s.s.4.;.] Z Z ] 5.5.4.2.n.C.",
"N.V.m.a.n.n.m.M.n.[ u.A.T.Y.m.M.k.W ~.^.gXIXDXCXMXcXCXcXxXxX2X2XzXzXzXcXxXSXiX_.N.j.W.r.8.9.s.9.B.M.d.:.S ] ;.] 4.m.Y.m.",
"n.n.m.m.C.C.V.V.m.n.L.U.R.R.3.f.g.T l./.KXIXIXLXAXnXxX3X5X4X1X2XMXMXxXxX5XCX:X+XsXs.P P j.x  .H.=XF.L.K.a.u.t.Z :.M.F.m.",
"5.n.V.C.C.C.Z.A.F.F.c.T.fXU.v.P j.I.R.dXKXDXSXSXZXZXCXZX3X3X3X2XMXZXAXMX1XnXXXcXmXo.v.r.0.x B.T.dXm.b.b.M.M.d.;.] [ d.L.",
"4.[ 7.C.C.A.H.Y.A.H.-.K.I.r.h.%.v.T.U.aXDXDXuX4XMXnXAXSX5X5XxXcXxXcXAX5X2XmX1XMXwXS.b.v.Q 3.r.R l.,.% p.T.Z.Z.M.i.S m :.",
"4.t.] 7.A.Y.T.T.P.h.g.e.H g.^.A.8.T.fXkXCXCXZXnX5X5XCX4X4X5XxXVXZXMXCX1XMXmXzXCX>XJ.G.7.{ B.j.T P j.h.,.s.M.a.5.5.;.t.] ",
":.;.i.A.T.P.8.k.,.G l.j.g.I.fX/.gXgXgXkXuXoXCXCX5XcXVX5XxXxXvXFXcXxX2XzXMXcXnX5X}.&X.XhXG.5.V.d.f.W.h.h L ;.n Z m.Z.d.d.",
"S i.A.T.L.,.W.W.P 9 # H j.T.gXUXlXhXr.:XnXXX'.CXSXZXVXVXFXGXHXVXxXzXcXZXZXZXZXoX}.dXhXrXsX$XS.V.s.# o # G Y ,.V -.C.A.m.",
"D Z.P.B.&.,.0.j.w.j.l.H ,.P.dXkXeX>Xt.}.OXnXXX'.rX,X2XcXGXHXZXCX2XcXGXGXZXZXxX`.[.aXjX9X6X7X&Xn.y v f.w w z w ) ' ' m.K.",
"y.A.7.i &.,.8.L w L >.h.I.R.A.fX!.| Z.*X_.rX,X_.XXoX1XOX1X_.XXoX1X2XVXZXMXuXoX`.$. .[.bXbX6X;X$X=.>.L k 4 j L ( <.[ ) a.",
"A.C.` p ~ %.1.d r.e.x >.I.U.h.-XK.v.b.&X X_.'.XXoXoX1X1X2X2X4X4XxX2XuXMX+XXX`.).$XS.[.JXNXrX9XsXn.n P j.=.Q &.g h ( ' 2.",
"F.N.7.~ t h 2 0.j.P ,.>.P =.v v k B.1.x.|.OX1XzX1X2XzXzX3X2X2X2X,XoXOXoX`.oX`.%XdXc.} S.G.S.J.C.L.F.T q.I.=.L C ` 2.B.m.",
"N.V.N.7.( r k h.w.r.&Xo.w } ` ~ %.s s } |.OXzXzXzXzX1XOXoXoXoXoX`.`.`.`.oXoX].&Xv.*.v.8.-XR.v.8.N.*XT.K.!.~.8.B.B.N.C.A.",
"K.Z.C.C.9.h r.j.R.dX0X$.L  .6.<.<.! h / ].XXXXXX_._.XX'.`.|.`.|.`.).).XXOX`.].o.s *.v.&.r.K.8.h.h.@X;X-XR.^.I.C.n.n.m.m.",
"L.H.L.C.N.8.j.I.fXjX9X}.^ 1.} } %.! j L ].XX|.}.|.`.'.|.[.].).`.)._.).'.OX`.].{ j ~ } s 0 z v P *.@X#XfXfXW.I.9.n.N.m.n.",
"Y.Y.A.Y.B.=.,.K.F.*XrX>X<.&.6.} 2.' j z ].bX].b.&X$X$.$XdX&X(.].].$.$. XoX'.]._ s ` *.( 3.1.1.w  .@XhX&XK.r.q.5.b.N.m.m.",
"L.L.A.V.<.U U 3.x..X@X7Xo.' o...$.S.Q d [.+XO.k v &._ p.T.F.b.S.b.c.` ].oX'.}./ w ` %.` -...6._ x.0X9X[.1.3.>.P 6.b.n.V.",
"C.B.p. .k 0.,.p.N..XrX9X@._ 6.S.tX.Xj { kXyX).~ q h u Q | ! k s f 5 y @.OX|.@.V s } _ 2.7.6. ._ S.tX#X$X,.x.w.P } N.c.F.",
"B.n.n.} =.j.8.p.S.;XtX9X*X$.S.%XrX8Xo.$.@XXX'.} v g X a } _ 4 0 v j t |.1X|.@._ f } o.G.o.6.6._ [.yXyX*X8.x.w.q.Q z.} c.",
"B.m.n.2.,.e.9.3.$.9X7X9XtX9X@X@X7X7X>X#.|.XX'.} g i ' ' } } ' j v ~ f +X1X).}.[.` _ }.hX.X$.[ C @XrXyX*X6.7.=.Y &.} ` 3.",
"3.B.6.` P f.B.T.&XyXtX@X7X9X9X7X7X8XS.o.{.'.,X@.0 f 8.3.<.c.U.1.f j / +XOX).).}. .| 8X9X8X[.'  .+X#XbXhXT.U.0.Y ~ 2.3.1.",
"j 3.` % P I.R.fX&XrXtXtX9X9X9X7XqX.Xo.x.}. X1X Xa 0 ^ =.*.<.<.! / 0 X.+XXX).{.}.{  .sX6X7X.X[.>XrX#XbXhXfX-Xh.0.& h ( ( ",
"t 3 r % P j.K.-X=X9X0XtXtXtXtXqX0X>Xo.6.$. X1X6XX.- r.UX-XR.8.5 ! @ `.OX'.).].}.{ <.$.>XqXtX0XtXbX#XmX;X-XY.0.0.4 < < r ",
"4 , 2 3 w j.j.r.J..X9X#X9XtXyX0XtX.X$...o.:X2X1X{.4 0.UXfXQ.,.i g { XXOX'.).].$. .[ [.8X9XyXtXyXrXbXhX&XK.8.w.P r 5 4 4 ",
"n 7 @ 7 8 h.q.P 0.h.G.tXtX7X0X0XtX9X}.x.o. X3XrX:XC E K.-XW.v h v O.'.OXoX'.{.$. .{ *X@X9XyXkX#XbXjXI.k.U P k.C 5 5 ! } ",
"n n 7 7 a L f.W.E.T Y %XrX8X0X#XqXqXhX}.o. X3XuX:X/ q.I.P.f.P d ~ |.oXoX'.'. X@.X.o.*XtXtXyXyXbXsXh.T g.~.k.q.f u 2 ` B.",
"A m 7 7 j w H W Y L G h.*XqX8X@XqXqXqX.Xo.[.4X4XwX} $ ,.&.x v k _  XoX6X,X,X}.@.X.%X0X#XyXyXyXyXP.T p 0.g.W G C p r Q D.",
"A n 7 4 u U G 9 g.g.0.T a.tX9X0X8XqX0X.X#.$.uX5XuX#.$ f h w ( f { +XoX<XuX6X}.o.X.@XbXkXyXyXbX.X>.E q.W.U # f.C i r ~ v.",
"m b 7 : C U 9   O G P @ h F.&X0XqXqXeX8X#.@.uXpXCX#.x / k v C } >X<X,XuXuXwX}.o.[.yXbXyXkXhX%X6.O K K # . # Y L i : / p.",
"Z Z V 8 L H 9 . @ X   ^ 0.W e.P.0XyXhXqX[.@.wXCXpX:Xw ) ^ %.f :XpXuXwXCXpXuX{.}. XNXyXqX&Xh.T ,.&.@   r   # f.P g = V b.",
"m.b._ C P x 9 , <.} &.&.f.Y x R l.gX9XqX}.@.wXCXCX:Xf C ~ ^ ^ #.pXuXuXCXCXuX6X XtXyXjXC.>.c P f.8.8.<.6.h @ G G P + B 6.",
"F.7.C >.z q o :.Y.-.*.j K j.L U E.k.sXbX.X+.wXCXpXwXQ w ~ k ` o.eXCXAXHXDXCX6X.XtXhXn.E q.x j.Y 0 9.} V.N.@ 9 9 >.K + B ",
"m.5.w.K 9 @ f =XfXY.<.*.v P T ~.w.o T.hX0X].wXSXCXuX}.s d Q o.o.iXDXDXPXDXpX.X+XtXaX9 H ~.W R x ` 2.V.dXdX3.. w x f.U + ",
"7.f.Y x q.# V U.dX-XD.%.2 O R e.= T P *XkX:XuXSXZXAXNX{ } $.o.qXLXLXLXPXPXNX). X.X8.R O Y q.O X ! n.=X-X=X1.X P P K f.=.",
"~ >.e.j.G + f ' N.%.t 3 q K c   ,.j.l a.J.G.eXDXZXHXNX@.$X*X(.hXLXPXPXLXJXeX(.S.h.z f.f.. w P 9 . 4 ! c.3.~ < @ =.0.E L ",
"h L l.P @ 5 %.( 2 & 3 K Y R x x l.K Y T U M.aXaXjXJX@XX.(.@X X[.pXJXJXkXsX!.B.0.P Y w f.v 9 U P L 1 X & ~ %.s @ 6 q.q.5 ",
"j k g . @ s %./ 5 X z K $ $ 6 K H h.^.g.0.s.B.dXfXgXJ. .[.*X$.#.#.D.dXfXT.Y.,.,.q.W.g.1 z $ 1 $ x q X 4 ~ %.k , X 1 g h ",
"h 2 X < X %.1.! 2 5 @ . .   9 K $ >.g.g.W.j.j.I.R.R.M.6.N.v.v.c.a.v.T.R.K.I.j.^.Q.j.>.- K K   X . # 0 ; r *.*.r , @ O 5 ",
"h i 5 4 y &.*.u 5 =.L @ 9 P U 9 , f i w K R e.j.W.W.,.8.v.c.c.7.7.3.j.Q.W.W.k.f.G r > < 6 K x z @ x ,.C - %.3.j 3 < 4 r ",
"2 ! h s f *.) - C =.P 9 U R x 1 5 ~ ~ Q u 4 5 w x P K U P ,.r.>.q.Y Y w.L z 3 ; a V Z 4 < v K 0.x K ,.%.3 ! 1.k t r p 8 ",
"! u : 4 p ( a 4 &.R # G P . X 7 4 s k k / j j f i < 6 x P U k.f.P 9 , < t Q ! ^ <.~ 0 < r 5   P T o =.,.t r ( i r 2 e u ",
"7.} <.p ; r 4 8 w.0.c 0.z 7 / 5 , i s g g k ~ j s w 0 @ 6 @ 1 @ . 6 w s ~ ~ ( / ! h i 3 2 j ! $ e.U R j.L - r r ; h ` *.",
"p.c.7.<.> 4 i 8 P 0.e.0.8 3./ - 5 5 5 i a h h p y 6 0 6 @ 8 8 @ 1 g f s p ! ! a h i r 3 , t 9.h >.j.e.q.g 5 t 2 h *.2.7.",
"C.m.7.2.' 4 5 < X $ K q ( %.< 5 - 2 r i i i h p s 5 5 5 5 %.&.0 8 8 0 s i h h i y t 3 - e 3 ~ %.d Y x O @ t e h *.2.5.4.",
"Y.H.Z.2.2.a 7 8 s s , i ' i i 4 & & & - ; r r i t t 5 1 4 ! V i 5 1 0 5 t t t e ; : u i 5 r 5 ( k * s f 2 i r / -.5.7.n.",
"Z.Y.A.4.[ V - i i p V *.! i 5 r ` <.` h i 4 ; ; ; 2 5 2 5 [ 3.j 2 5 5 4 e 2 ; p _ 2.p.b.` 2 r h <.^ h i i 4 u %.3.3.n.V.",
"M.A.m.[ ' -./ 4 4 5 5 8 i p / c.D.Y.F.V.N.6.2.' ~ u 2 & i c.v.~ * - - X : V } 7.m.V.V.V.V.` e t t t 4 2 < u %.4.:.) p.M.",
"m.n.M.M.) ' 2.` i 2 5 j i / N.V.F.F.F.H.F.F.V.N.c.v.6.r t <.3.! 2 < 7 *.2.c.V.m.V.N.V.V.T.B.a i i t 4 4 p ) -.&.[ C ) p.",
"d.m.m.Z.u.m.7.' ' ! i r a 2.A.H.F.H.H.Y.H.H.A.V.V.J.V./ r p p a 4 7 :.A.F.c.N.N.n.m.V.V.H.F.6.u 5 u p ` [ ' -.) V -.d.u.",
"m.Z.Z.H.m.M.C.7.*.` ~ h 2.7.A.T.H.F.H.H.J.J.J.F.F.V.C.} ; e ; ; : [ Z.H.V.c.V.V.n.V.N.V.F.H.V.6.u ( 3.-.2.[ ) [ ;.5.u.a.",
"i.!.!.Z.L.i.i.Z.V.2./ / 6.p.i.C.Y.F.F.V.F.Z.F.F.F.V.H.c.u r u u : 6.J.H.V.7.m.V.n.n.n.V.V.A.V.m.5._ ' *.) ) -.:.u.u.u.u.",
"t.d.!.A.A.M.i.b.C.V.a.c.2.] Z Z 7.C.N.m.V.F.Z.Z.J.V.F.n.' 2.2.[ V 6.n.V.m.7.b.m.m.n.a.m.n.m.n.a.m.p.-.) :.p.i.y.u.;.;.;."
};
