/* XPM */
static char *result[] = {
/* columns rows colors chars-per-pixel */
"60 60 209 2 ",
"   c #344E26",
".  c #344E2A",
"X  c #2F5525",
"o  c #2F552D",
"O  c #355426",
"+  c #395426",
"@  c #365926",
"#  c #3A5A26",
"$  c #355429",
"%  c #395529",
"&  c #355A2A",
"*  c #3B5C2B",
"=  c #354B35",
"-  c #394F35",
";  c #35453A",
":  c #344E39",
">  c #3E4E3C",
",  c #2F5533",
"<  c #345334",
"1  c #3E5D30",
"2  c #35553C",
"3  c #3C593C",
"4  c #396B27",
"5  c #3D622C",
"6  c #366B2C",
"7  c #3C6B2E",
"8  c #3D712E",
"9  c #3E6431",
"0  c #366B35",
"q  c #3C6C33",
"w  c #3F633C",
"e  c #366B38",
"r  c #3B6A3B",
"t  c #3D7233",
"y  c #3F7B34",
"u  c #3E723A",
"i  c #445729",
"p  c #425E2D",
"a  c #495D2F",
"s  c #454F3B",
"d  c #445337",
"f  c #495737",
"g  c #445D32",
"h  c #4A5C35",
"j  c #45533C",
"k  c #49533B",
"l  c #445B3C",
"z  c #4D5D3B",
"x  c #535D3E",
"c  c #436F27",
"v  c #43642D",
"b  c #49642E",
"n  c #436B2E",
"m  c #496A2E",
"M  c #44722D",
"N  c #49742E",
"B  c #467A2D",
"V  c #4A7A2E",
"C  c #446431",
"Z  c #496532",
"A  c #456B32",
"S  c #4A6C33",
"D  c #44643C",
"F  c #4C633B",
"G  c #446B39",
"H  c #4D6D3B",
"J  c #516C36",
"K  c #54613E",
"L  c #536D3D",
"P  c #5A6D3F",
"I  c #447333",
"U  c #4B7434",
"Y  c #437A35",
"T  c #4C7B34",
"R  c #43753A",
"E  c #4D753B",
"W  c #447C3B",
"Q  c #4C7B3B",
"!  c #517636",
"~  c #527C35",
"^  c #5B7F37",
"/  c #53753D",
"(  c #59753D",
")  c #537C3B",
"_  c #597D3D",
"`  c #3D5344",
"'  c #375842",
"]  c #3C5944",
"[  c #3E5148",
"{  c #31594C",
"}  c #3F5848",
"|  c #3F6241",
" . c #3F6940",
".. c #455543",
"X. c #495642",
"o. c #435C44",
"O. c #4C5B44",
"+. c #43564B",
"@. c #49564C",
"#. c #445A4B",
"$. c #4C5C4B",
"%. c #525C44",
"&. c #5A5E43",
"*. c #515E4B",
"=. c #455C51",
"-. c #436240",
";. c #4C6443",
":. c #416A41",
">. c #4F6D44",
",. c #4D634D",
"<. c #546344",
"1. c #5D6345",
"2. c #546C42",
"3. c #5C6B44",
"4. c #54634C",
"5. c #5C654A",
"6. c #556A4D",
"7. c #5A6A4C",
"8. c #427640",
"9. c #4F7540",
"0. c #477C41",
"q. c #45704C",
"w. c #547342",
"e. c #5C7442",
"r. c #537C41",
"t. c #5C7B42",
"y. c #53714F",
"u. c #5B7A4B",
"i. c #4F6552",
"p. c #4D6A57",
"a. c #536552",
"s. c #5A6554",
"d. c #546A55",
"f. c #5B6B54",
"g. c #556C5A",
"h. c #5A6D5B",
"j. c #4C7953",
"k. c #557055",
"l. c #5C7054",
"z. c #5D7C52",
"x. c #55715C",
"c. c #5B735D",
"v. c #5C7A5E",
"b. c #616646",
"n. c #636B46",
"m. c #686B47",
"M. c #616749",
"N. c #646C4A",
"B. c #696E4A",
"V. c #627245",
"C. c #617B44",
"Z. c #65734C",
"A. c #6B724C",
"S. c #60784C",
"D. c #6A7A49",
"F. c #71754E",
"G. c #636E53",
"H. c #647254",
"J. c #6A7453",
"K. c #627C54",
"L. c #687953",
"P. c #62745B",
"I. c #69765B",
"U. c #657B5C",
"Y. c #6C7C5D",
"T. c #596F60",
"R. c #557262",
"E. c #5A7462",
"W. c #5D7A63",
"Q. c #5B7768",
"!. c #5E796A",
"~. c #607761",
"^. c #627A64",
"/. c #6A7D63",
"(. c #647D6B",
"). c #667F71",
"_. c #4B8034",
"`. c #4D813C",
"'. c #538134",
"]. c #5A8533",
"[. c #53823C",
"{. c #5A813F",
"}. c #448140",
"|. c #4B8546",
" X c #558342",
".X c #5D8342",
"XX c #588944",
"oX c #4F8B54",
"OX c #528C54",
"+X c #578F5B",
"@X c #5A9258",
"#X c #648547",
"$X c #638946",
"%X c #678449",
"&X c #74825B",
"*X c #5F9965",
"=X c #668465",
"-X c #698561",
";X c #66846D",
":X c #6C856D",
">X c #718161",
",X c #788864",
"<X c #648274",
"1X c #698674",
"2X c #6C8975",
"3X c #658579",
"4X c #678B79",
"5X c #6B8B7A",
"6X c #708D7B",
/* pixels */
"            O O O + + . . . $           .           $ O O $ O # + @ 5 * * * * * & * # * & 5 @ & 5 5 5 & 5 A C A n S ! U ",
"  . . . , o   O + $ + + + $ $ O   . + . . % % . O + + + $ $ % $ + @ * # $ @ @ & # @ # * * & 5 5 5 v A 5 v 7 A E U A ! ! ",
"O $ $ O { < O   + + O + .     + + $ + . $ % % % + + $ % % + % % % * @ @ & & & 5 & & & 5 & 5 5 5 9 v v 5 v 7 I U U 7 m m ",
"$ . O   2 < X O O $   $ + $ $ %   + + $ + + . + $ + + # % + % 5 C C @ + * @ 1 * * & 5 & 5 5 * * 5 S I S n 7 A m A n n 5 ",
"O $ $ + O   $ $ $   $ $ $ $ % + % + + # % % + % $ % # * % % p v v * v v 5 * 1 * Z S * C v v v v v Z Z m v n m v v v v v ",
"$ $ % + $ .   O $ O $ O + + + # @ % % * # % * & & $ # # * p * 5 p v v b v v n m S v C S v Z b b v v v C v v b Z g v v 5 ",
"@ * # $ $ % O $ * % % % @ % % % % % & & * & * * & & @ @ @ # v m Z a b b m v S S m v m v v v p g Z p C * g p p g Z p b 5 ",
"@ # # p * & * & * & & * * & * p p # * g 5 9 1 * 1 & # # # i p p a g g Z C C v n v v n v v p v p p p * * v p p p p p * * ",
"# v v v v v * 5 & * * v p * v Z v * p C p C g * 1 1 1 g % i * 1 p g g g 1 9 C C C n v n v 5 5 5 v * * * & 1 & * p # * a ",
"* v v v C v v * 9 A v A v v C m b a Z v g C g g 1 C v g 1 * * v 5 * * 9 1 C g C C v v 5 5 # 5 * 5 * # 5 1 1 1 & p d h h ",
"9 5 5 v 9 9 5 7 S v n v v v Z v v v v C Z Z g v 5 C v S C p p * v p g v C v v Z n C v 9 n 5 * 5 5 * p i i g g h h h z x ",
"9 9 9 9 G q q n n n n m m A v v v m A Z S S Z S C A S S m v g C g a Z Z A m S S v q 7 5 n v v 5 v a g h z z F z x x x x ",
"q A A C A A A n m m m N n n S n m n m n n n S Z Z S D g x z h g Z C C Z m S S S n 7 C n v A C C p h z z x x x x x K x <.",
"G G A m m A N S I m m A A S m c c m n 7 n n Z <.4.*.s %.%.O.$.O.l F Z Z A S S S S A n S A n C F x x x x x %.<.K <.4.a.s.",
"~ U U S N A U U N 7 n I I I n n n n 7 7 7 A f.E.E.*.$.g.4.O.O.@.X.X.O.l Z Z S G S C S S J K K 1.&.%.&.1.&.5.4.d.g.g.h.g.",
"~ ! E S U U N U S N T I 7 7 A q n A C G A 2.c.E.d.*.s.g.g.a.*.%.%.@.$.%.O.;.K K &.L 3.3.M.M.&.&.1.&.1.J.G.G.H.h.c.k.d.4.",
"T U U U U S U U N U ) A 7 M M 7 I A A G H f.P.d.O.<.6.d.g.h.g.a.a.*.*.4.*.a.a.*.5.M.M.M.N.M.1.&.1.&.b.>XI.G.P./.-Xl.a.g.",
"! S E U ! U R U U U T U I I U N m M I A S 3.4.<.<.7.<.d.f.g.h.g.d.a.a.*.4.s.g.s.h.a.%.G.5.1.b.1.b.b.m.Y.H.J.I./.U.l.c.x.",
"/ ! E ) ) U T U U V V U U U U U U I I U ! E F K 7.4.7.6.g.h.R.E.g.a.a.s.s.h.T.T.*.+.@.T.f.s.1.n.b.b.7.J.J.J.J.U.P.c.v.W.",
"! ! ! .X$X.Xu./ ~ ~ ) ) Q T Q T T Q U E E / / ( n.M.1.7.d.k.g.h.g.a.d.d.h.E.g.i.@.*.h.g.h.g.4.M.b.b.M.A.M.J.Y.U.U.v.W.W.",
"U.-X=X=X:X1X/.P.2./ [.) T W T T Q Q E E w.S.A.A.D.A.B.1.1.7.h.f.g.a.a.d.T.T.i.$.a.a.a.s.d.a.a.4.4.M.b.&.1.&X,XY.U.U.-Xz.",
":X1X3X3X3X3X).).^.l.L Q `._.W Q T E / ( V.A.A.B.B.m.N.m.n.1.1.$.4.a.,.g.T.a.i.h.g.s.g.a.a.a.s.a.*.b.M.M.7.J.&XL.S.u.2.E ",
"<X).).).).3X3X3X4X(.f.2.) `.T ) / e.t.V.Z.A.A.m.B.B.N.N.m.m.n.<.1.f.a.a.i.g.E.E.Q.T.T.T.s.*.a.*.%.5.m.M.n.3.2.H 9.9.E / ",
"3X1X3X3X2X1X5X5X2X(.g.2.$X[.r.#Xt.e.e.e.Z.A.F.A.A.N.B.B.m.m.m.m.b.f.4.a.s.T.c.E.~.T.E.s.$.5.%.1.N.m.M.7.e.Q w.) E E Q / ",
"v.P.c.~.~.P.P.f.f.6.O.C.#X) .Xu.t.t.e.N.B.A.F.A.A.m.B.B.B.B.B.m.m.3.1.f.v.h.h.E.T.T.*.*.N.B.A.A.V.P F H / E ! r.E E 9.w.",
"E w.t._ / P P w.w.r.e..X{..Xt.t.V.Z.Z.B.A.B.Z.Z.Z.N.B.B.N.B.N.M.n.m.m.M.G.c.g.h.a.a.M.I.G.3.C.t./ U T E E ) r.E Q Q 9.Q ",
"z.z.u.z.z.K.u.u.u. X.X{.{..Xt.t.J.Z.J.Z.A.B.N.N.A.A.N.N.Z.N.N.m.n.M.m.m.B.h.f.f.G.G.G.G.f.s.r.) Q T [.) ! ) E E E E E T ",
"1X1X2X4X:X^.c.c.f.k.e.C.C.V.t.Z.J.A.Z.G.B.N.Z.N.m.m.m.N.m.N.N.V.V.m.V.m.B.B.H.J.G.s.h.h.h.4.( ) ) `.) '.[.) ~ T T T E U ",
"4X5X6X:X^.~.^.^.E.c.k.2.t.u.Z.M.M.M.B.n.M.B.N.N.M.M.m.n.3.n.e.e.e.n.V.V.V.A.Y.P.h.T.h.h.f.4.! '.) ) '.{.XX.XT T T U U E ",
"5X1X^.W.W.!.!.!.!.R.c.7.e.V.G.m.M.M.M.M.M.b.3.7.1.3.3.2.3.w.( ( t.t.( ( / S.P.P.P.f.h.f.f.<.) ) ~ '.) ) ].[.T T T U I U ",
";XE.E.Q.Q.Q.!.Q.Q.Q.E.x.<.m.G.N.N.M.7.n.3.3.2.L e.2.L w./ ( t.C.%XC._ _ _ C.S.H.P.f.s.s.7.%.E ) ~ ! ) ~ T T T U U N I I ",
"E.c.R.R.Q.E.Q.Q.Q.Q.Q.E.d.s.B.n.3.e.3.2.2.L J L L / / r..Xt..X$X$Xt._ _ _ _ e.2.L ;.;.F O.z H T E U U U U E U U N I m n ",
"c.x.E.E.E.h.R.R.R.g.d.a.a.d.%.L L L 2.L L 2.H L E ! w.Q ) )  X X`. X.X{.{.) ! E T ( C./ E / U U I U I S U S S S U A n n ",
"i.,.$.o.....s s k 4.<.6.w.<.O.<.2.4.l.x.v.k.>.L H E E E 9.w.w.E [.[.[._.T Q ) _ / %XD.e./ ! U S n A A I A A Z S m m n n ",
"s ..j k k X.%.1.f.f.6.6.6.6.d.d.d.g.R.x.x.a.O.L E r.d.p.g.g.a.$.;.E Q E T U E ! ) / n.7.J U S I I q A Z n n A A m v 7 n ",
"&.M.M.M.N.G.G.c.f.g.k.g.x.g.g.x.E.R.p.x.E.,.g / r.>.k.p.p.g.h.g.a.$.;.2.E I M U ! ! 2.<.F m S A A G A C C 5 v A A 7 5 v ",
"N.N.M.N.M.H.c.g.x.x.x.R.x.R.R.R.Q.g.g.v.v...F r.9.d.x.d.p.g.g.g.h.a.4.O.O.z F U / S S L H Z G m A A A 5 5 C Z C 5 5 5 5 ",
"m.N.3.M.P.W.x.g.R.R.R.R.R.R.R.R.x.g.x.W.g.l w.L ;.c.E.d.g.d.a.a.*.$.@.;.;.D F Z H S S U S U I A m v G n C J R 9 & * 5 & ",
"A.Z.P.^.c.g.g.x.R.x.x.x.x.x.x.x.x.c.v.^.a.D 9.>.a.i.#.@.o.O.o.-.-.D D C 9 9 A C g S S S n U A S S S H v C S v g G C C o ",
"K.c.v.v.g.h.k.g.p.p.a.g.g.g.p.y.a.d.4.,.j F ) H l 3 l F H / U U I n 7 v G C S Z Z Z v A n I S m m Z S v Z Z G Z J S 5 & ",
";Xc.x.g.x.p.p.h.p.p.,.,.,.O.X.j f f l g H E T U U ~ V ~ _.T T U A A G E q 9 G G H A n A n S m m A n C v v Z C S J C 1 $ ",
"W.d.g.i.,.i.,.-.O.o.j s d * g G S U S E ~ T T U V ~ V V V T T U U ! ) ) 9 9 9 D C G S U m m m m m v v p v Z S C Z G * @ ",
";.;.H D D w G G G G R A A I N n N n N V V V V V B B _._.T ~ ^ ^ U ~ ! I q q q A 9 n S m m m v m v v p v v b p v 9 * % * ",
"r.) E E I `.`.t t t t 8 8 M 7 n M *X@XM N N V V _.].'.'.'.V V ~ ) ! U G C n n n 5 v 5 n v v v v C p v v v D q.v 5 C G C ",
") r.) E Q  XR R t W t 7 8 4 OX+X4 *XOXc B M N V '.].]._.T _.V V _.~ T N 7 A 7 5 5 5 v v v p v # p v v v 5 E j.Z m b b m ",
"Q ) E W Q 9.W Q `.Y 7 6 0 6 oXoX8 t M M M M B T V _.T B ~ _.T _.T T V n 5 7 5 5 5 # v S v v v v v m v v C m v m m v p p ",
") ) E Q Q 0.`.[.[.Y 6 0 6 8 8 8 M A I M B U B Q |.T T ^ ^ N B T T N V N q 7 5 4 5 5 v m n v v # v n v p Z Z v 5 5 * 5 5 ",
"w.Q Q T [.`.`.`.T 8 6 t t t M Y I I I G T A M W }.T V ~ B M M B I U N U A 5 9 5 5 5 v v v 5 # v * * * * Z Z * * * * & # ",
"Q Q Q Q [.`.`.Q T q q u y y R y t R t G I R M 8 8 M N N U V N n N N N n v 7 5 v 5 5 5 5 * & 5 * + * * @ * 5 # & % $ $ $ ",
"{. X XQ Q Q W y I R Y y y y y y t t t R I I t 8 n M M n m c n n 5 n c 7 7 n A A 5 * * @ # & * & @ # # @ $ + % % $ $ $ $ ",
"[.[.) Q Q Q W W `.`.|.}.}.0.y y t Y 8 t t 7 6 q 7 n 7 n n 7 5 5 5 5 5 5 5 n m 5 5 C 5 * * * 1 & & O O O + + % + + $ $ $ ",
") Q Q r.`.Q `.`.Q `.`.}.0.y y y Y 8 t q q 7 6 7 7 n 7 7 5 5 5 * 5 5 5 5 5 7 5 5 v 5 * * v # & $ X o O % % % % % % & $ & ",
"`.[.`.r.0.Q `.Q `._.W _.Y y Y t t Y t 6 6 t 7 7 7 A 7 6 5 5 9 * & 5 & & @ 5 5 v 5 * p * & % O o + O + i O + % * * & g p ",
") Q  X X XW Q Q Y W _._._._.Y Y T [.t 7 q 7 8 7 7 7 q 5 5 5 5 & & & & & & 5 v * v p * # % * O # * + + + + + + + + * p p ",
"Q 8.|.XXQ W W R y R Y Y B y t _.[.Q 8 8 M Y 7 6 7 q q w w 3 l g & & $ o & & # * * * # # # i % i @ + + +   + O + + + # # ",
"Q w. Xr.E Y u q q t A t t t I R I q G R G G D D D o.o.o.o.#.$.> $ & o $ 1 & @ $ & & # * * $ + + @ i i + + + # + @ + % % ",
"9.w.R R R t 0 0 0 e t 0 q q r w D :.-.3 ] ,.#.#.@.#.@.@.#.$.@.- @ X & $ @ & , o $ & % & % $ - 1 # a i + O % % % @ @ # * ",
"W 8.8.u u q 0 0 0 e 0 0 r G G  .| 3 > ` #.=.=.#.#...+.+.#.+.` % & @ & o o $ $ $ $ $ + $ % % * i i i i + O + % # $ + % % ",
"W 0.R R R t q 0 q 0 0 r  . .:.3 = = 2 ] #.} } [ +.+.+.=.} [ = $ @ $ @ $ $ $ & & $   + + + % % + % & + O O + + % & $ # % ",
"8.8.u u R t t t R q e r  .-.' : ' +.' ' ' ' 2 3 ` [ } [ [ ; = & & & $ $ < $ $ . O O + .   $ O O $ @ + O O % @ $ & $ * O "
};
