/* XPM */
static char *floor[] = {
/* columns rows colors chars-per-pixel */
"60 60 216 2 ",
"   c #43843C",
".  c #458844",
"X  c #468C49",
"o  c #488B48",
"O  c #478F50",
"+  c #4C9255",
"@  c #4C945C",
"#  c #55955C",
"$  c #539252",
"%  c #649857",
"&  c #4D9A6B",
"*  c #4B9763",
"=  c #5A9B65",
"-  c #549B6B",
";  c #5B9C6C",
":  c #529763",
">  c #4E9E72",
",  c #549D74",
"<  c #599E73",
"1  c #579F7A",
"2  c #599F7A",
"3  c #609D6A",
"4  c #4EA17B",
"5  c #5EA076",
"6  c #53A27C",
"7  c #5BA27C",
"8  c #57A076",
"9  c #62A073",
"0  c #64A579",
"q  c #78AC77",
"w  c #6EA268",
"e  c #8DAE4C",
"r  c #8DB04E",
"t  c #8DB454",
"y  c #8EB758",
"u  c #8CBA5D",
"i  c #91B254",
"p  c #94B55C",
"a  c #97B65E",
"s  c #8EAA65",
"d  c #8FAD6B",
"f  c #8DA762",
"g  c #91AE69",
"h  c #91AB65",
"j  c #8CBC64",
"k  c #8FB06F",
"l  c #8BBF6B",
"z  c #86BF6A",
"x  c #9BB664",
"c  c #93BA64",
"v  c #91B16D",
"b  c #9BB36E",
"n  c #95BE6C",
"m  c #9DBB6B",
"M  c #99B963",
"N  c #8DAF72",
"B  c #87AF76",
"V  c #8CB274",
"C  c #85B37C",
"Z  c #89B479",
"A  c #86B97D",
"S  c #8BBA7C",
"D  c #92B573",
"F  c #9DB672",
"G  c #9DBC75",
"H  c #95BC7D",
"J  c #9ABE7B",
"K  c #96B876",
"L  c #A0B76D",
"P  c #A1B96D",
"I  c #A0B771",
"U  c #A1BB72",
"Y  c #8EC06F",
"T  c #96C16C",
"R  c #85C273",
"E  c #8AC174",
"W  c #83C47C",
"Q  c #8BC47D",
"!  c #93C174",
"~  c #9BC077",
"^  c #95C27D",
"/  c #9BC17A",
"(  c #99C879",
")  c #ADCC7C",
"_  c #A6C97A",
"`  c #A5C26C",
"'  c #3FB88F",
"]  c #4FA584",
"[  c #4FA98D",
"{  c #54A484",
"}  c #5BA483",
"|  c #54A68B",
" . c #5AA68B",
".. c #53A98D",
"X. c #59A98C",
"o. c #41B98F",
"O. c #4DA79A",
"+. c #4EAA9C",
"@. c #4FAB90",
"#. c #52A793",
"$. c #53AA94",
"%. c #58A890",
"&. c #51AC9B",
"*. c #54A794",
"=. c #44BA94",
"-. c #49BC97",
";. c #4CBD9B",
":. c #51B19E",
">. c #5DB59E",
",. c #50BF9F",
"<. c #5BB296",
"1. c #69AE85",
"2. c #7CB484",
"3. c #7FB987",
"4. c #74B58C",
"5. c #7AB689",
"6. c #76B98E",
"7. c #7BBB8C",
"8. c #6BB694",
"9. c #6EBA96",
"0. c #63B79B",
"q. c #65BB9D",
"w. c #6BBD9B",
"e. c #64B495",
"r. c #71B691",
"t. c #74BC93",
"y. c #71BF99",
"u. c #79BE90",
"i. c #4FAEA0",
"p. c #50AFA0",
"a. c #53B3A3",
"s. c #5BB7A2",
"d. c #54BCA4",
"f. c #5BBBA5",
"g. c #56BAA8",
"h. c #59BEA9",
"j. c #55B7A8",
"k. c #62BDA2",
"l. c #4EC09B",
"z. c #57C995",
"x. c #5ACA96",
"c. c #52C29E",
"v. c #5CCC9B",
"b. c #7EC785",
"n. c #7CCA8C",
"m. c #7EC78B",
"M. c #63C69F",
"N. c #6CC49D",
"B. c #62CD9C",
"V. c #6DCD9E",
"C. c #76C796",
"Z. c #7BC494",
"A. c #77CC95",
"S. c #7CCA95",
"D. c #73C49A",
"F. c #78C698",
"G. c #73CC9D",
"H. c #7BCC9A",
"J. c #6FD29D",
"K. c #67D09F",
"L. c #72D29D",
"P. c #7BD39C",
"I. c #55C1A3",
"U. c #5BC4A4",
"Y. c #5FCCA2",
"T. c #57C1A8",
"R. c #5BC2AA",
"E. c #5EC9A8",
"W. c #63C3A4",
"Q. c #69C4A1",
"!. c #64CEA4",
"~. c #6DCDA4",
"^. c #60C3A8",
"/. c #65CEAC",
"(. c #6ACEAA",
"). c #71CEA2",
"_. c #66D0A5",
"`. c #6CD2A4",
"'. c #66D0AB",
"]. c #69D1A9",
"[. c #73D3A2",
"{. c #78D4A0",
"}. c #82B582",
"|. c #82BA83",
" X c #8DBE84",
".X c #83BE8B",
"XX c #89BF89",
"oX c #92BE81",
"OX c #83C785",
"+X c #8DC485",
"@X c #84C48D",
"#X c #8AC48A",
"$X c #84C98D",
"%X c #83C884",
"&X c #92C282",
"*X c #93CE8D",
"=X c #9BCE8A",
"-X c #9DCD85",
";X c #8ED28F",
":X c #9DD186",
">X c #95D28E",
",X c #9BD18A",
"<X c #81C490",
"1X c #83CC95",
"2X c #81CE98",
"3X c #88CF94",
"4X c #86D296",
"5X c #8CD294",
"6X c #82D299",
"7X c #88D398",
"8X c #92D291",
"9X c #A3CE84",
"0X c #AACE81",
"qX c #A3D085",
"wX c #AAD082",
"eX c #A1D188",
/* pixels */
"O.O.O.O.O.O.O.+.O.i.O.O.i.O.O.i.O.i.O.i.i.i.p.i.p.a.a.a.a.a.d.j.j.g.g.g.h.g.h.R.R.R.R.R.T.T.d.;.-.=.' ' E./././.'.].].].",
"O.O.O.O.O.O.O.O.O.O.O.i.O.i.i.O.i.i.i.i.i.i.p.a.i.i.p.a.a.d.j.j.g.g.g.g.h.h.R.h.R.R.R.R.T.,.,.-.=.=.' T././././.'.].].].",
"O.O.O.O.O.O.O.i.O.i.O.+.O.O.i.i.i.i.i.i.i.i.i.p.p.p.a.a.a.j.j.j.g.g.g.h.h.h.T.R.R.T.R.T.T.,.;.=.=.' -./././././.].].].].",
"O.O.O.O.O.O.O.O.O.O.i.+.i.i.O.i.i.O.i.i.i.i.p.i.a.a.a.a.a.a.j.j.g.g.h.h.h.T.T.R.R.R.T.T.,.,.;.=.' =.T./././././.].].`._.",
"O.O.O.O.O.O.O.O.+.O.+.+.+.i.+.i.O.i.i.i.i.i.p.a.i.a.a.j.j.j.j.d.g.h.h.h.R.T.R.T.R.T.T.d.,.;.-.=.=./././././././.].].`.`.",
"O.O.O.O.O.i.i.O.O.+.+.+.+.+.+.i.i.i.+.i.i.i.i.i.a.a.a.j.j.j.d.g.g.h.h.T.R.R.R.T.T.T.d.d.,.=.-.=.c././.'././.'.'.].]._.`.",
"O.O.O.O.O.i.O.O.O.+.+.+.+.i.p.+.O.i.i.i.i.i.i.a.a.a.j.j.j.g.g.g.h.h.h.R.h.R.T.T.T.T.T.;.;.-.=.;././.'.'.'.'.'.'._.`.K.`.",
"O.O.O.O.O.O.O.O.+.+.+.+.+.+.+.+.i.i.i.i.i.i.a.a.a.a.j.j.j.g.R.g.g.h.R.h.R.R.T.T.T.T.d.;.=.=.=.T././.'.'.'.'.'.'._.`.`.K.",
"O.O.O.O.O.O.O.O.i.*.i.i.+.+.+.+.i.+.p.:.+.a.p.a.j.j.j.g.g.g.h.g.T.R.R.R.R.R.T.T.T.d.;.l.l.=.T.E././././.'.].].].].`.`.`.",
"O.O.O.O.i.*.*.i.O.O.i.O.&.&.+.p.+.i.:.p.a.:.a.j.a.j.j.g.g.h.h.T.T.R.h.R.R.R.T.d.c.c.;.-.=.l././././././.].].].].`.].`.`.",
"*.O.O.#.i.O.+.O.i.*.O.+.&.&.&.&.a.+.:.p.:.:.&.s.j.g.j.g.h.h.h.T.R.R.R.R.R.R.T.T.,.;.-.-.l.E././././././.].].`.].`.`.`.`.",
"O.O.#.O.*.+.*.i.+.O.i.*.&.&.p.p.:.:.:.:.:.a.j.j.j.g.g.g.h.h.h.R.R.R.R.R.T.T.T.T.,.;.-.l.E./././././././.].].].].`.`.`.`.",
"*.$.*.&.*.O.*.*.*.+.&.&.&.O.&.&.:.:.:.:.p.a.s.g.g.h.h.h.h.h.R.R.T.R.R.R.T.T.I.,.,.;.;.I./././././.'.'.'._._.`.`.`.`.`.J.",
"*.&.*.&.*.&.&.i.&.+.O.O.$.$.a.&.&.:.+.:.p.s.s.g.g.h.h.h.h.h.R.R.R.R.R.R.T.T.,.,.;.;.I.E././././.'.'.'.'.]._._.`.`.`.J.J.",
"&.*.*.*.*.*.*.&.*.&.*.*.&.:.&.&.&.&.:.:.s.j.g.j.g.k.h.h.h.R.R.R.R.R.T.T.I.I.T.;.l.l.E././././.'.'.'.'.'._.].`.`.`.`.J.J.",
"*.*.&.*.&.*.*.*.*.&.&.&.&.&.:.$.&.:.:.:.j.j.s.g.h.h.h.h.R.R.R.R.R.R.T.T.I.,.c.l.l.E./././.'.'.'.'.'.'.'.]._.`.`.J.J.J.J.",
"$.*.*.$.$.$.*.*.:.$.$.:.$.:.:.&.@.-.<.s.s.g.s.s.h.h.h.^.h.R.R.R.E.R.T.I.I.I.c.l.U.E./././.'.'.'._._._._._.`.`.`.J.J.J.J.",
"%.%.$.%.*.*.*.$...$.$.<.$.$.@.@.@.:.s.s.s.f.h.h.h.R.R.h.^.R.R.^.R.U.I.I.I.I.l.I.'./././.'.'.'.'._._.v._.`.`.`.J.J.J.J.J.",
"%.$.$.$.%.$.*.$.$.$.$.$.@.@.@.&.@.>.s.s.f.f.h.h.k.h.^.^.R.R.^.R.R.R.I.U.c.c.c.E././././.'.'._._.v._._.`.`.`.J.J.J.J.J.J.",
"%.%.%.%.%.%.| *...$.$.$.$.@.@.@.:.s.s.s.f.f.k.h.R.^.h.^./.R.E.^.U.I.I.c.c.c.E.'././././.'.'.!.Y._.v._.`.`.`.J.J.J.J.J.J.",
"X.%.%.%. .| | | X...$.....[ [ ..>.s.>.s.k.f.h.k.k.R.^.^.R.^.^.R.I.I.U.U.I.R././././.'.'.'.'.!.Y.v._.`.`.J.J.J.J.J.J.J.J.",
" . . . .| | | ..X.$.....[ [ ..>.>.k.k.s.k.k.k.^.^.^.^.^.R.^.^.E.U.U.c.c.U./././././.'.'.'.Y.Y.v._.`.`.`.J.J.J.J.J.J.J.J.",
"%. . .} { | | X.X.| | ] ..] $.k.0.s.k.k.k.k.f.k.^.^.^.^.^.^.E.R.U.U.U.U.E.'././././.'.'.!.Y.v.v._._.`.`.J.J.J.J.J.J.J.n.",
"} } } } } 6 X.X.| | ] ] ] X.0.0.k.0.k.k.k.^.W.^.W.^.^.^.^.W.R.E.Y.c.c.E./././.(./.'.].'.Y.v.x._.`._.`.`.J.J.J.J.J.J.J.J.",
"1.} } } 1 }  .{ { 4 ] ] { 0.0.0.k.k.k.k.k.k.W.k.k.^.^.W./.R.U.U.f.U.U./.(./.(.'.'._._._._.v.].`.`.`.`.`.[.J.J.J.J.J.J.J.",
"} { 1 2 } } } { 6 6 4 4 e.e.0.0.k.w.k.k.k.Q.k.W.W.W.W.^.k.W.U.M.v.U./././.(.'.]._._._.v.v.v.`.].`.`.`.`.J.J.J.J.J.J.n.J.",
"2 1 1 2 } } } 1 4 4 >  .e.e.q.e.9.k.k.y.Q.Q.w.Q.W.Q.^./.W.U.W.v.U.(.(.].].'.'.]._._.v.v.z._.`.`.`.`.`.`.J.J.J.[.J.n.J.J.",
"< < , } } 1 1 > , 4 6 8.8.w.w.w.k.y.k.y.Q.k.Q.Q.Q.Q.Q.^.W.W.M.U./.(.(.(.(.].'.]._.v.v.z.v._.`.`.`.`.`.`.J.J.J.J.J.J.J.J.",
"< - 7 7 2 2 , & & > e.8.8.9.9.w.y.k.y.k.k.Q.Q.Q.Q.Q.~.W.M.W.v.W.].].].].'._._._._.v.v.z.`.`.`.`.J.J.J.J.J.J.J.J.J.n.J.n.",
"- < 0 5 < - & & & 1.8.8.8.9.9.w.y.9.y.y.D.k.Q.Q.Q.Q.M.W.M.M.M.(.].].].].]._._._.v.v.z._.`.`.`.`.`.[.[.[.J.[.J.J.J.J.J.J.",
"= 0 0 < - : * * 0 r.r.r.8.8.r.y.y.y.y.y.Q.D.Q.Q.N.Q.~.M.W.M.~.(.].].].].].`._.K.v.z.z.].`.`.`.[.`.J.J.J.J.J.J.J.J.J.J.n.",
"9 9 ; - : * * - 4.4.r.r.r.y.t.y.y.y.y.Q.D.Q.D.D.V.Q.N.N.M.Q.~.~.`.].`.`.`._.K.K.v.v.`.].`.[.`.`.[.`.[.J.L.L.J.J.J.J.J.J.",
"9 ; = : @ + * 1.4.4.4.r.r.u.u.t.y.y.y.y.).y.y.Q.F.Q.N.N.N.).~.~.~.).(.~.~._.B.B.x.V.[.].[.].[.[.[.J.J.J.[.L.L.L.J.J.J.J.",
"3 = # @ + + 0 5.4.5.5.6.u.r.t.t.u.y.y.<X).y.).F.).D.N.N.).).).~.).(.~.~.`.K.B.B.B.`.].[.[.[.[.`.J.J.J.[.J.L.L.L.L.J.L.L.",
"3 # + + + = 2.2.2.5.5.6.6.6.r.u.u.F.y.F..X.X).Q.G.N.N.G.).).).).~.~.).[.K.V.B.B.L.[.`.[.[.[.[.`.J.[.L.J.L.L.J.L.J.J.L.J.",
"$ + O o + 1.2.2.2.5.5.5.7.7.7.Z.y..X<Xy.y.).y.F.C.D.G.G.G.).).[.[.).[.).V.V.B.[.[.[.[.[.[.[.[.[.L.[.L.L.L.J.L.L.n.J.J.J.",
"$ o o o q 2.2.}.2.5.3.5.7.7.m.7.u.Z.Z.Z.Z.C.C.C.C.C.G.).H.).).).).).[.V.V.K.K.[.[.[.[.[.[.[.J.J.L.[.L.L.L.L.J.L.J.J.J.J.",
"o . . 3 }.q 2.}.}.3.}.3.3.3.u..X.X<X<XZ.Z.Z.Z.A.C.C.H.H.H.H.G.L.G.[.L.V.J.V.[.{.[.[.[.[.[.[.J.[.[.[.L.[.L.L.L.L.J.J.J.n.",
". . $ 2.C C 2.}.}.}.3.3.|..X.X<X.X<X<X<XZ.S.Z.Z.F.H.H.H.G.G.G.G.G.[.G.L.A.L.[.[.[.{.{.{.L.[.[.L.L.[.L.L.L.L.L.J.J.J.J.J.",
"  o B B C }.C }.}.}.|.|.|.XX.XXX@X<X<X<X<Xm.Z.S.S.S.S.H.H.C.A.A.P.H.L.G.J.L.L.{.{.[.{.[.[.L.[.L.[.L.[.[.L.L.J.L.J.J.J.J.",
"  w C C C C C C }.S A }.|.XX#XXX@X#X<X1X<X<X$X1X1X1XS.A.A.F.H.{.P.P.{.{.{.{.{.{.{.{.{.{.L.L.L.{.[.L.L.L.L.L.L.J.L.L.L.L.",
"% B B C Z C C C A A A A  X XXX#X#X#X#X@X@X@X<X<XS.n.S.S.S.F.H.2XP.P.{.{.{.6X{.{.{.{.{.{.{.{.{.L.L.[.{.L.J.[.J.J.J.L.K.L.",
"V B C B Z Z Z Z Z A A  X X X X#X#X#X#X%X%X3X3X$X$Xn.n.n.n.A.2X2XP.P.{.6X6X{.{.P.{.P.{.{.{.L.L.{.{.L.P.L.L.J.L.L.L.V.V.K.",
"B N V V N Z Z Z Z Z S oXoX X X&X+X+X#X+X#X#XOX@X$X$Xn.n.n.4X7X2Xn.P.6X6X{.6X{.6X{.{.{.{.{.{.{.L.L.L.[.L.{.J.J.[.K.L.L.V.",
"N B Z N Z Z V Z Z Z oXoXoXoX&X&X&X+X+X+X#X%X#XOXb.b.b.b.3X7X7X2X4XP.4X6X6XP.6X{.P.P.P.P.{.{.{.L.L.L.L.[.L.L.K.G.L.[.V.V.",
"N N Z N V N V D D K oXoX&X&X&X&XQ +X+X+X+X+X+XOXOXb.b.$X5X5X7X1X4X4X7X6X6X6X6XP.P.P.P.P.{.{.P.L.P.[.{.L.L.L.L.[.L.G.L.K.",
"N N N N N D N N K oXoXU J oX&X&X&X-X^ +X+XQ W W W W %X5X8X7X8X7X7X7X7X6X6X6X6XP.P.P.P.P.P.P.L.P.L.P.P.L.L.[.L.L.L.`.V.~.",
"N N N D k D N D K H oXU oX-XoX&X^ &X^ ^ Q Q W W W W *X8X8X7X8X7X7X7X7X7X4X4X4X6X6X6XP.P.P.P.P.P.{.P.L.L.{.L.G.[.V.G.V.V.",
"v v N v N N g K K oXU oXoXU / ^ / &X^ ^ E E E R R #X8X8X8X8X8X8X;X5X5X7X7X4X4X6X6XP.P.P.4XP.P.P.P.{.L.L.L.L.L.J.L.).V.V.",
"N d d v g v b J J I oXU oX0X/ J / / ! E E E R R +X=X,X*X>X8X8X8X8X5X5X5X7X7X4X4X4XP.4XP.P.P.P.P.P.P.P.P.P.L.L.L.K.G.~.V.",
"d d d d g k K J U -XU oXU oX0XJ ! ! ! Y z Y z E =X=X=X>X=X>X8X8X8X8X5X5X;X7X4X7XP.4X4X4X4XP.P.P.P.P.P.L.P.L.L.L.V.~.Q.V.",
"d d d h g F F F oXU U U U U J F ~ n T l z j z -XeX=X=X=X,X>X,X8X>X8X8X5X;X7X;X7X4X;XP.P.6X6X6XP.P.P.L.P.L.L.J.J.G.~.G.Q.",
"d g g s v F J F U G _ G ` ~ ~ G n n c j u j ( :XeX=XeX=X,X,X>X,X>X>X>X>X;X7X;X7XP.;XP.6X7X6X6X6X6XP.P.P.P.G.).G.V.V.V.V.",
"s s s d F F J I G U G G G ~ m m n c j j u T 9X-XqXqXeXeXeXeX,X,X>X>X>X>X;X;X;X;X;X4X;X6X6XP.4XP.P.P.H.H.P.G.G.).G.V.N.N.",
"s s s b F J I I U U G ` U m m M c p u u u 9X_ 9XqXqXeXeXeXeX,X,X>X>X>X>X>X;X7X;X5X5X5X7X7X4X6X6X2XP.P.H.H.G.G.G.G.N.N.N.",
"f s g F I I I I U U U U m m x a u y t t _ 0X0X0XwXwXqXeXeXeXeX:XeXeX>X>X>X>X>X;X;X7X;X5X7X4X4X6X6X2XP.H.H.A.G.G.G.N.N.M.",
"f f b F I I F I I U U P P a a a p t t T ) ) ) wXwXwXwXqXqXqXeXeXeXeX>X>X>X>X;X;X;X;X;X;X7X7X7X7X6X2X2XH.H.H.).G.D.Q.D.N.",
"f b b F I I I I I L P P x a p i t r a ) ) ) ) ) ) wXwXwXwXqXqXeXeXeX:X:X:X>X>X>X>X;X;X;X8X7X7X7X2X2X2X2XS.H.F.D.D.D.N.N.",
"h b b F I I I I L L P a a p r e e e _ ) ) ) ) ) ) wXwXwXwXqXwXwXeXeX:X:X:X>X>X>X>X>X;X8X8X7X7X7X3X2X2XH.H.S.H.D.N.D.N.w.",
"b b F b I I L I P L x a p i e e e P ) ) ) ) ) ) wXwXwXwXwXwXwXwX) eXeX:X:X:X,X>X>X>X>X>X8X;X7X7X3X2X2X2XH.F.F.F.C.D.N.w."
};
