/* XPM */
static char *player2[] = {
/* columns rows colors chars-per-pixel */
"60 34 200 2 ",
"   c #0E0B0D",
".  c #160907",
"X  c #130C0D",
"o  c #1A0F0F",
"O  c #1E100E",
"+  c #0E0D11",
"@  c #120E12",
"#  c #180F12",
"$  c #141014",
"%  c #1C1215",
"&  c #141219",
"*  c #1B151A",
"=  c #1E181E",
"-  c #23110E",
";  c #2D150E",
":  c #3A190F",
">  c #31150C",
",  c #231414",
"<  c #2C1615",
"1  c #21171C",
"2  c #2E161C",
"3  c #23191D",
"4  c #2C1B1C",
"5  c #2B1817",
"6  c #331A15",
"7  c #391A13",
"8  c #341C1B",
"9  c #3A1C1C",
"0  c #31171C",
"q  c #35201F",
"w  c #3B221C",
"e  c #171822",
"r  c #1D1A22",
"t  c #1C1D2A",
"y  c #241C22",
"u  c #2C1D22",
"i  c #2D1F29",
"p  c #221F28",
"a  c #321D21",
"s  c #371B26",
"d  c #1F2130",
"f  c #2C2126",
"g  c #2F2229",
"h  c #22202B",
"j  c #342024",
"k  c #3B2325",
"l  c #3A242A",
"z  c #3C2A2D",
"x  c #35232E",
"c  c #242432",
"v  c #2A2837",
"b  c #342632",
"n  c #3C2531",
"m  c #3B2834",
"M  c #31293C",
"N  c #352939",
"B  c #520E15",
"V  c #421F1A",
"C  c #541117",
"Z  c #4A2115",
"A  c #49241A",
"S  c #5B2A19",
"D  c #68361E",
"F  c #431B22",
"G  c #412525",
"H  c #4A2523",
"J  c #4C2A25",
"K  c #452B2E",
"L  c #532C23",
"P  c #5A2E23",
"I  c #512E2A",
"U  c #4E302C",
"Y  c #5D3024",
"T  c #54312C",
"R  c #59342B",
"E  c #452D34",
"W  c #432C3A",
"Q  c #482F3D",
"!  c #4F213F",
"~  c #4C3235",
"^  c #4B313C",
"/  c #423035",
"(  c #56363D",
")  c #56393B",
"_  c #592839",
"`  c #602F20",
"'  c #633225",
"]  c #643328",
"[  c #7A3B27",
"{  c #663C31",
"}  c #2A2D42",
"|  c #272B41",
" . c #3E2A49",
".. c #2C3149",
"X. c #353245",
"o. c #35334A",
"O. c #3A3448",
"+. c #322F52",
"@. c #353B53",
"#. c #3C3C55",
"$. c #3B3759",
"%. c #402B44",
"&. c #5D2345",
"*. c #453241",
"=. c #4B3343",
"-. c #42354B",
";. c #49344B",
":. c #4D384C",
">. c #453C47",
",. c #523945",
"<. c #503749",
"1. c #53394A",
"2. c #593D4D",
"3. c #503645",
"4. c #493C58",
"5. c #563955",
"6. c #5B3261",
"7. c #3D4562",
"8. c #444048",
"9. c #5D424C",
"0. c #5D4046",
"q. c #44425C",
"w. c #4E4957",
"e. c #5D4358",
"r. c #5C485B",
"t. c #544351",
"y. c #5F5256",
"u. c #69494C",
"i. c #64484D",
"p. c #67514F",
"a. c #674A53",
"s. c #6A4B56",
"d. c #63575E",
"f. c #785A55",
"g. c #444763",
"h. c #454A64",
"j. c #4A4D69",
"k. c #474767",
"l. c #584764",
"z. c #485272",
"x. c #4A5678",
"c. c #525C7E",
"v. c #644C65",
"b. c #614A6C",
"n. c #685A6B",
"m. c #725461",
"M. c #785763",
"N. c #656172",
"B. c #706376",
"V. c #833D27",
"C. c #8B472C",
"Z. c #844A32",
"A. c #A04A30",
"S. c #BF543D",
"D. c #A76336",
"F. c #BA6037",
"G. c #822E43",
"H. c #825B57",
"J. c #B94658",
"K. c #926E57",
"L. c #A87B5E",
"P. c #A6695C",
"I. c #866868",
"U. c #936E67",
"Y. c #936D6B",
"T. c #957A67",
"R. c #8B6972",
"E. c #85777C",
"W. c #A2786C",
"Q. c #B0786E",
"!. c #A47D73",
"~. c #A6797A",
"^. c #C77B47",
"/. c #AD8375",
"(. c #BD927E",
"). c #59668A",
"_. c #5C6A8F",
"`. c #546187",
"'. c #606583",
"]. c #8C7D90",
"[. c #A17E81",
"{. c #978584",
"}. c #B98D81",
"|. c #A78484",
" X c #C6A38F",
".X c #D4AC92",
"XX c #D9AF92",
"oX c #C4B09C",
"OX c #D9B699",
"+X c #E2BE9E",
"@X c #DBBCA1",
"#X c #E3BFA1",
"$X c #DFC2A3",
"%X c #EACAA9",
"&X c #EAC6A5",
"*X c #F1D2AE",
"=X c #F2D5B1",
"-X c #F4D8B3",
";X c #F9E4BD",
":X c None",
/* pixels */
":X:X:X:X:X:X:X:X:X:X:X:X:X:X:X:X:X:X:X:X:X:X:X:X:X:X:X:X:X:X:X:X:X:X:X:X:X:X:X:X:X:X:X:X:X:X:X:X:X:X:X:X:X:X:X:X:X:X:X:X",
":X:X:X:X:X:X:X:X:X:X:X:X:X:X:X:X:X:X:X:X:X:X:X:X:X:X:X:X:X:X:X:X:X:X:X:X:X:X:X:X:X:X:X:X:X:X:X:X:X:X:X:X:X:X:X:X:X:X:X:X",
":X:X:X:X:X:X:X:X:X:X:X:X:X:X:X:X:X:X:X:X:X:X:X:X:X:X:X:X:X:X:X&X&X+X&X-X:X:X:X:X:X:X:X:X:X:X:X:X:X:X:X:X:X:X:X:X:X:X:X:X",
":X:X:X:X:X:X:X:X:X:X:X:X:X:X:X:X:X:X:X:X:X:X:X:X:X:X:X:X:X[.~.Y.U.U.H.W. X:X#X@XOXXX;X:X:X:X:X:X:X:X:X:X:X:X:X:X:X:X:X:X",
":X:X:X:X:X:X:X:X:X:X:X:X:X:X:X:X:X:X:X:X:X:X:X:X:X:X:X:XR.R.M.2.^ m E m.s.u.Y..X%X;X*X-X:X:X:X:X:X:X:X:X:X:X:X:X:X:X:X:X",
":X:X:X:X:X:X:X:X:X:X:X:X:X:X:X:X:X:X:X:X:X:X:X:X:X:X:XI.M.9.=.m n E v.v.a.*.1.s././.=X%X:X:X:X:X:X:X:X:X:X:X:X:X:X:X:X:X",
":X:X:X:X:X:X:X:X:X:X:X:X:X:X:X:X:X:X:X:X:X:X:X:X:X:X:X].n.r.=.W x =.v.<.:.O.$.-.a.f.!.%X:X:X:X:X:X:X:X:X:X:X:X:X:X:X:X:X",
":X:X:X:X:X:X:X:X:X4.;.;.:X:X:X:X:X:X:X:X:X:X:X:X:X:X:Xe.j.6.l.4.o.5.5.Q X.+.$.#.g.t.i.}.&X:X:X:X:X:X:X:X:X:X:X:X:X:X:X:X",
":X:X:X:X:X:X:X:X9 l ;.n l :X:X:X:X:X:X:X:X:X:X:X:X:X:Xs.:. .<.&.&.:.:.=.O. .6.j.`.z.-.H.XX:X:X:X:X:X:X:X:X:X:X:X:X:X:X:X",
":X:X:X:X:X:X:X:Xa 8 2 x , :X:X:X:X:X:X:X:X:X:X:X:X:X:X:XW u i M %.=.^ =.O.`.)._.`.6.l.s.T.:X:X:X:X:X:X:X:X:X:X:X:X:X:X:X",
":X:X:X:X:X:X:X:XF 8 9 < * y p :X:X:X:X:X:X:X:X:X:X:X:X:Xm s y u a y l Q ^ j.)._.x.`.'.|.}.[.:X:X:X:X:X:X:X:X:X:X:X:X:X:X",
":X:X:X:X:X:X:X:X:XH F 9 5 0 4 y r r :X:X:X:X:X:X:X:X:X:X%.n b i , o o u Q =.4.z.z.j.B./.~.:X:X:X:X:X:X:X:X:X:X:X:X:X:X:X",
":X:X:X:X:X:X:X:X:X:X:X:X:X:X:X:X4 4 1 g u.:X:X:X:X:X:X:X=.n N # o @ @ % y m a F _ G.J.Q.:X:X:X:X:X:X:X:X:X:X:X:X:X:X:X:X",
":X:X:X:X:X:X:X:X:X:X:X:X:X:X:X:X, :X:X0 8 u m a U :X:X2.=.;.i % & r M O.4.l.0.m 9.K.P.:X:X:X:X:X:X:X:X:X:X:X:X:X:X:X:X:X",
":X:X:X:X:X:X:X:X:X:X:X:X:X:X:X:X5 :X:X:X:X:X0 5 * >.d.3.<.<.i # # :.w.l.n G J z K { L.oX:X:X:X:X:X:X:X:X:X:X:X:X:X:X:X:X",
":X:X:X:X:X:X:X:X:X:X:X:X:X:X:X:Xu :X:X:X:X:X:Xw 5 b =.Q ,.W 2 # r 4.O.u J 8 P 8 L J { T.:X:X:X:X:X{.n.h.h.h.7.:X:X:X:X:X",
":X:X:X:X:X:X:X:X:X:X:X:X:X:X:X:X:X:X:X:X:X:X:X:X:X2.( ( ~ b 5 # b b b f q A % u A P Y p.:X:X:X:XE.N.z.7.7.7.$.@.c t :X:X",
":X:X:X:X:X:X:X:X:X:X:X:X:X:X:X:X:X:X:X:X:X:X:X:X:X:X:X:X:X:X9 1 y 4 u 4 % % X * r 8.f.d.!.:XI.y.w.7.z.z.7.#...t e & :X:X",
":X:X:X:X:X:X:X:X:X:X:X:X:X:X:X:X:X:X:X:X:X:X:X:X:X:X:X:X:X:X' 8 O 5 4 , O % % 3 j U /.~ ) p.8.N } } | ..@.@.t e & & :X:X",
":X:X:X:X:X:X:X:X:X:X:X:X:X:X:X:X:X:X:X:X:X:X:X:X:X:X:X:X:X:X:XV.A , :X, % , # % Y L R f z z f h c M } | v t e & $ :X:X:X",
":X:X:X:X:X:X:X:X:X:X:X:X:X:X:X:X:X:X:X:X:X:X:X:X:X:X:X:X:X:X:X:X:X:X:X:X3 % o % f w w U f z 3 r r = h v v c & $ + :X:X:X",
":X:X:X:X:X:X:X:X:X:X:X:X:X:X:X:X:X:X:X:X:X:X:X:X:X:X:X:X:X:X:X:X:X:X:X:.l , 1 % f 4 3 z 3 q 5 O * = f 3 y & + + + :X:X:X",
":X:X:X:X:X:X:X:X:X:X:X:X:X:X:X:X:X:X:X:X:X:X:X:X:X:X:X:X:X:X:X:X:X:X:X-.x , u 3 f f 3 = 5 q w q - & % = u *     @ :X:X:X",
":X:X:X:X:X:X:X:X:X:X:X:X:X:X:X:X:X:X:X:X:X:X:X:X:X:X:X:X:X:X:X:X:X:X:X*.k 4 g 1 h h & * q j Z S ; % * $ $ + @ & X :X:X:X",
":X:X:X:X:X:X:X:X:X:X:X:X:X:X:X:X:X:X:X:X:X:X:X:X:X:X:X:X:X:X:X:X:X:X:X:XT K K ) K g y 5 4 : 8 0 V < o % %   X . . :X:X:X",
":X:X:X:X:X:X:X:X:X:X:X:X:X:X:X:X:X:X:X:X:X:X:X:X:X:X:X:X:X:X:X:X:X:X:X:X:Xq L I ' Y l :X:X: ; : > 7 , % <   . . o :X:X:X",
":X:X:X:X:X:X:X:X:X:X:X:X:X:X:X:X:X:X:X:X:X:X:X:X:X:X:X:X:X:X:X:X:X:X:X:X:XJ ` C.A.[ :X:X:X:X; A Z ; : O %   . X & :X:X:X",
":X:X:X:X:X:X:X:X:X:X:X:X:X:X:X:X:X:X:X:X:X:X:X:X:X:X:X:X:X:X:X:X:X:X:X:XJ Y Y D V.:X:X:X:XZ 7 8 8 : ; O -   .   & :X:X:X",
":X:X:X:X:X:X:X:X:X:X:X:X:X:X:X:X:X:X:X:X:X:X:X:X:X:X:X:X:X:X:X:X:X:X:X:XD S Y A :X:X:X:X:X:X6 6 , * % % % X   @ & :X:X:X",
":X:X:X:X:X:X:X:X:X:X:X:X:X:X:X:X:X:X:X:X:X:X:X:X:X:X:X:X:X:X:X:X:X:X:XD.C.[ Z.] :X:X:X:X:X:Xa 0 2 3 * % % X @ @ :X:X:X:X",
":X:X:X:X:X:X:X:X:X:X:X:X:X:X:X:X:X:X:X:X:X:X:X:X:X:X:X:X:X:X:X:X:X:X:X:XS.C.^.F.Z.I :X:X:X:X:XC C s = * * + @ :X:X:X:X:X",
":X:X:X:X:X:X:X:X:X:X:X:X:X:X:X:X:X:X:X:X:X:X:X:X:X:X:X:X:X:X:X:X:X:X:X:X:X:X^.D.Z.Y :X:X:X:X:X:X9 9 4 f * * @ :X:X:X:X:X",
":X:X:X:X:X:X:X:X:X:X:X:X:X:X:X:X:X:X:X:X:X:X:X:X:X:X:X:X:X:X:X:X:X:X:X:X:X:X:X:X:X:X:X:X:X:X:X:X:X:Xq 8 4 % :X:X:X:X:X:X",
":X:X:X:X:X:X:X:X:X:X:X:X:X:X:X:X:X:X:X:X:X:X:X:X:X:X:X:X:X:X:X:X:X:X:X:X:X:X:X:X:X:X:X:X:X:X:X:X:X:X:X:X9 :X:X:X:X:X:X:X"
};
