/* XPM */
static char *result[] = {
/* columns rows colors chars-per-pixel */
"60 60 254 2 ",
"   c #2D1F13",
".  c #2B2B11",
"X  c #39342A",
"o  c #4F3510",
"O  c #523016",
"+  c #334F24",
"@  c #355424",
"#  c #395524",
"$  c #365A24",
"%  c #3A5B25",
"&  c #345428",
"*  c #3A5629",
"=  c #365A29",
"-  c #3B5C29",
";  c #315132",
":  c #36573A",
">  c #3D632A",
",  c #3A6628",
"<  c #3C6D2C",
"1  c #3D742D",
"2  c #3E792F",
"3  c #356D33",
"4  c #3C6D33",
"5  c #3D6738",
"6  c #3D7432",
"7  c #3E7A34",
"8  c #5A4717",
"9  c #5C4B10",
"0  c #674609",
"q  c #78590B",
"w  c #654617",
"e  c #6E5312",
"r  c #795815",
"t  c #786D0E",
"y  c #796817",
"u  c #504B2E",
"i  c #435D29",
"p  c #4A5C36",
"a  c #545C3C",
"s  c #6F5C30",
"d  c #46672B",
"f  c #43642C",
"g  c #446B2C",
"h  c #44722D",
"j  c #49732E",
"k  c #46792D",
"l  c #476637",
"z  c #446B32",
"x  c #4B6D39",
"c  c #54623B",
"v  c #526B3C",
"b  c #437333",
"n  c #4B7432",
"m  c #437C34",
"M  c #4C7B34",
"N  c #4D743B",
"B  c #43783A",
"V  c #4D7B3A",
"C  c #527A36",
"Z  c #52743C",
"A  c #537B3B",
"S  c #746A2F",
"D  c #365548",
"F  c #3F6840",
"G  c #4B504B",
"H  c #575C43",
"J  c #6E5B46",
"K  c #4C6849",
"L  c #586646",
"P  c #5A7747",
"I  c #576955",
"U  c #5C7559",
"Y  c #686949",
"T  c #766F4D",
"R  c #657949",
"E  c #666B55",
"W  c #687758",
"Q  c #797658",
"!  c #5D6064",
"~  c #5C7961",
"^  c #667B67",
"/  c #6F746F",
"(  c #767968",
")  c #875C0B",
"_  c #8C5D13",
"`  c #89640A",
"'  c #966909",
"]  c #897609",
"[  c #9A760A",
"{  c #876716",
"}  c #966A17",
"|  c #897718",
" . c #967717",
".. c #A36E0F",
"X. c #A8780A",
"o. c #B67B0A",
"O. c #A87916",
"+. c #B57B18",
"@. c #845422",
"#. c #876728",
"$. c #8A7825",
"%. c #987927",
"&. c #897334",
"*. c #AA7525",
"=. c #C17D14",
"-. c #90784B",
";. c #887B56",
":. c #847A67",
">. c #877B77",
",. c #47812E",
"<. c #4A8138",
"1. c #52813A",
"2. c #59833A",
"3. c #558442",
"4. c #658745",
"5. c #718459",
"6. c #688569",
"7. c #7A8468",
"8. c #648375",
"9. c #688777",
"0. c #788676",
"q. c #7D937A",
"w. c #97830F",
"e. c #9B8618",
"r. c #AB880B",
"t. c #B8850B",
"y. c #AB970A",
"u. c #B8980D",
"i. c #A78917",
"p. c #B88716",
"a. c #AB9417",
"s. c #B79917",
"d. c #BCA309",
"f. c #BBA319",
"g. c #98852C",
"h. c #A88824",
"j. c #B68A25",
"k. c #AB9625",
"l. c #B89924",
"z. c #AD8D3A",
"x. c #BAA526",
"c. c #B5A13A",
"v. c #C98A09",
"b. c #D48D0E",
"n. c #CC960B",
"m. c #D9970A",
"M. c #C58916",
"N. c #C79616",
"B. c #D89817",
"V. c #E39B0B",
"C. c #E39B16",
"Z. c #C7A80B",
"A. c #D9A60B",
"S. c #D8B70B",
"D. c #C8A817",
"F. c #D8A818",
"G. c #CBB413",
"H. c #D6B417",
"J. c #DDBC13",
"K. c #DDBC1B",
"L. c #E6A60B",
"P. c #E2B709",
"I. c #E3BC0C",
"U. c #E2A917",
"Y. c #E6B617",
"T. c #E4BC13",
"R. c #E3BD1B",
"E. c #C49522",
"W. c #C6922E",
"Q. c #E29B28",
"!. c #C7A926",
"~. c #D5A926",
"^. c #D9B825",
"/. c #CDAF36",
"(. c #E4A528",
"). c #E3BD22",
"_. c #E6B825",
"`. c #DBC20D",
"'. c #DDC215",
"]. c #E5C10B",
"[. c #E4C214",
"{. c #E4C21C",
"}. c #E8C21A",
"|. c #DCC227",
" X c #E4C223",
".X c #E6C326",
"XX c #E4C435",
"oX c #998D46",
"OX c #8B845A",
"+X c #958757",
"@X c #9C9558",
"#X c #A89646",
"$X c #B69B48",
"%X c #AC9558",
"&X c #B7A74D",
"*X c #898569",
"=X c #94906F",
"-X c #868777",
";X c #938B77",
":X c #979779",
">X c #A59B6A",
",X c #A99A71",
"<X c #99A570",
"1X c #B4AA6C",
"2X c #CA9B4C",
"3X c #CFB052",
"4X c #CCA666",
"5X c #CEB36E",
"6X c #DAC454",
"7X c #E3C54A",
"8X c #E4C959",
"9X c #D9C872",
"0X c #E4C76B",
"qX c #E4C975",
"wX c #E4D271",
"eX c #7E7A81",
"rX c #807A83",
"tX c #798786",
"yX c #858B86",
"uX c #8A9487",
"iX c #989888",
"pX c #919795",
"aX c #999B97",
"sX c #A49C87",
"dX c #A29F99",
"fX c #9AA487",
"gX c #9DA394",
"hX c #A8A68B",
"jX c #B3A988",
"kX c #A5A797",
"lX c #A6AB9B",
"zX c #ACB29B",
"xX c #B4B193",
"cX c #989AA1",
"vX c #96A9A9",
"bX c #A8ABA4",
"nX c #ADB2A4",
"mX c #ACB2AD",
"MX c #ACB4AE",
"NX c #B6B7A9",
"BX c #BBBCB3",
"VX c #C4BA87",
"CX c #CCB98E",
"ZX c #C1BCAB",
"AX c #BAC089",
"SX c #BBC2B0",
"DX c #D9CA98",
"FX c #D6D092",
"GX c #E5D18D",
"HX c #D2CBAA",
"JX c #C6C5B7",
"KX c #E3D7A9",
"LX c #BCB6C2",
"PX c #ADC8CC",
/* pixels */
"+ + + + + @ @ @ @ @ # + + & @ + + + + + + @ + + + + + # @ & @ % $ $ f % - - - $ - , % % $ , $ $ , - > = > < f z g n n j ",
"+ @ + + ; ; @ @ @ $ # # @ @ @ @ + & & & & * & + @ # $ @ @ @ @ @ @ $ % $ $ $ $ = $ $ - % - - , > > g g > < f z M h g C n ",
"+ & & @ D ; + @ @ @ @ & + + @ @ # & + & @ & & & # # @ $ # & * $ % % $ $ $ $ $ , $ & = , $ , > - > f > > f , 1 j j g g g ",
"@ & @ + : ; @ + @ & @ @ @ & @ # + @ # @ # @ # @ @ @ % % # @ - > f f $ $ $ - > = > = , $ , , - l x Z j g g g j g g h d f ",
"& & @ @ $ + & & + & @ @ @ @ $ @ # # $ $ # # & @ @ % $ % * % > > f - f f - > - f z d > x x Z P kXlXiXZ g g g d d f > > , ",
"@ & $ @ $ + + & & @ & @ $ # $ # $ # % @ * l l p p $ % % % i % f f i f f f f g d d f K NXkXNXgXzXR BXnXf > f v v v f f , ",
"$ $ $ @ $ & $ $ $ % @ @ @ % # % % # - - x JXmXkXlXl $ # $ $ f d f f f d d d g z d g R zXR JXnXv JXNXlX> i R SXkXbXf f > ",
"$ $ $ , = = = = = - - - - - % f - % - f P MXlXP NXnXf % % % v v v c l f f f f g d Z BXSXJXJXzXx kX( l - P nXaXbXuXi - = ",
", , i f f > - - = - > f , i f d f - f v BXNXR NXSXbXzXl i v xXxXjXjXd l l > f z f N zXP JXBXx > P BXkXl JXmXP bX-Xl * i ",
"> f , d d f > > < d f d i , d d f f d v JXJXzXx JXNXzXOXoXe.y.y.y.y.h.OX:X: i f f Z nXhXkXZXSXP JXBX:Xl nXnXkXl nXlXp c ",
"> > , f f 4 > < g f g f f f d d d f f v BXnXv R SX>Xg.1X9XqX3XR.}.}.].Z.w.Y f d z f , x NXJXJXmXiXuX- i l kXiXI kXp p a ",
"4 > < > 4 4 < g g g g g d d d d d d d P kXzXSXJX=Xy.qXSXP HXxX7XI.I.[. X|.a.J n z < N P NXNXnXiX, i i p p L nXkXlXc c a ",
"> z d f z z g h g h g j d g g g d g j lXC N P hXs.[.DXP HXxXQ 6Xx.$X/.J.I. Xy.W x R FX1X:X<Xf f f p a a a a a a a c H H ",
"b z z d g h g j g h g h g h g h g h M hXNXhX;X#X`.H.CXW JXJXDXoXH ! ;./.I.[.|.w.bXVXc.HX6Xy.Z l a a a a a a c v L L K I ",
"M j j j h h j j h g < h h h < g < < < n fX,X#XZ.a.y &XFXVX9X$XD tXtX8.OX^.].{.D.T @X9XHX6Xl.bXH H a H H Y L L I I I U I ",
"C C n n j j j j j h k j g < < < g z P P xX3X&Xf.tXvXT G.x.S. .tXG / mXE !.].R.H.{ o./.c.n.#.Y Y L H Y R I E U I U I I K ",
"j n n j j h j j j j M n < h h g A P NXNX%Xf.x.s.vXI =XZ.x.^.$.vX~ PX! / s.{.R.J.$.M.B.M.O.S ;XsXY Y L 7.W E W W 6.U I K ",
"C j n n n n M j j M j j h k b 4.ZX#Xy.] >X+XZ.D.7.0.c.^.D.'.| PX^ PXI G Z.R.'.J.$.*XoXe.z.e.] t S xXR Q W W W 6.U I ~ ~ ",
"C n n 1.1.n M n M j k j n n 3.zXFX3Xy.a.z.c n.J.Z.Z.I.D.D.{.k.uXMX~ uXt ^.T.R.S.$.T 2XFXVX3XR.).G.k.NXW R W W W U U U ~ ",
"n C C 2.4.3.P Z M C 1.M <.2.NXiXFX1X/ =Xd.i.i.A.Y.).R.Z.!.{.`.e.I T w.~.Y.Y.Y.F.$.y.5XBXHXwXS.F.G.$X*XE Y R ( W 6.U U 6.",
"W 5.6.6.9.6.^ W C C C M <.4.<XkX>X5.yX:.] u.r.O.B.U.Y.B.^.Y.P._.A.n.H.B.M.p.j.i.s ( >.kXW 5XoXiXlXmXdXaXL 5.7.5.4.W 6.P ",
"6.9.8.8.8.8.8.8.W U Z A 2.xXx.kX( -XyXu +.2Xc.w.} +.=.p.N.n.m.C.Q.E.p.i.a.D.e.! bXpXpXsXhXiXbXLXLXmXbX:.T R 5.R U P K N ",
"8.8.8.8.8.8.9.9.8.6.I K 2.6XH.%X/ yX/ } 5XOX1X] { i.i.w.| { ' O.p.s.D.!.!.s.*XpXkXpXrXyXpXMXBXbXsX%X$Xa.NXL L N N N M M ",
"8.9.8.8.9.9.9.9.9.6.I v 4.3X].Z.OXdX*Xp.qXxX#X!.0XwXwX0X^.H.e.9 s.J.N.a.a.-.cXmXeXT T yXMXMXaX@XZ.S. X!.nXV M N V V V A ",
"U U U ^ U W U I I I H Z 4.1XZ.C.-.yX;.b.j.l.9XDXVXsXjX1X2XF.R.s.y e.!. XG.:.aXbX-.+.:.cXnXiXoXS..X{.|.G.nXV V N V N V N ",
"N A 2.2.R P R P Z 3.A 4.4.4.e.b.-.pX;XX.k.DXsXQ *.v.o.' O.t a.R.u.y H.{.N.( eXE ..$XyXiXiX@X^..XK.!.!.s.NXM A V V V N N ",
"U 3.4.6.CXxXjXR 5.xX@X@X1XhXE { z.iX:.$.FX;X  v.V.C.%.p.L.B.O.h.^.a.|  XD.cXdXS O.>.yXyX%XK.H.E.a.a.l.a.zXC M M M M n M ",
"6.9.tX5XG.J.G.c.oXk.6XwXH.[ &.s d.z.8 1XiXD $XY._.W.+X(.Y.L.V.+.l.H.| s.a.tX0.X.p.>.;X$XF.D.w.| | $.g.@X1.V C n n M M n ",
"9.q.VXS.XX.XGX8XZ.3XwXKXwXA.*.i.J.A.z.AX/ uX~.R.'.+X&X].R.R.T.L.X.G.D.t D.@.} F.B.-.&.D.f.#.E >.uXpXaX:X4.2.,.M M M j n ",
"9.0.c..X.X{.GX9Xn.^.}.KX0XL.E.p.^.s.1X>XyX,XP._.#X*X!.{.T.T.R.T.u.a.'.| s.I.A.N.k.u.w.s S - T Q Q -XbXiX=X2.1.M k j j n ",
"9.zXG.}._._.GX5Xu.^.XXKX3Xn.E.!.^.k.5XOXvX$XI.G.-X#X'.H.T.T.I.[.H.e.`.s.e.{.x.a.|.|.r.{ f.!.Z.Z.d.e.S S i.@XfXC j j h b ",
"^ jX/.0X7X7XGX4Xu. X8XKX2Xv.M.D.[.k.G.:XlXx.].>XvX<X@X>X/.].R.[.K.a.K.G.e.H.e.H.8X3Xt D.wX8X].}..X XS.w.e.S.u.Q j A h z ",
"^ kXW.qXqXqXGXW.N.Y.0XDXW.b.p.!.J.l.D.bXgXu.I.&X1X&X@X*X!.]. XR.'.s.K.H.a.x.a.'.wX&X[ G.9X8X`.{.R.T.}.J.s.!.^.Z.g.gX1 1 ",
"K L } n.Q.Q.2Xv.D..XFXqXt.M.p.3X6Xk.f.bXhXZ.}.I.].].x.g.`.{.[.T.K.x.Y.G.d.y.f.XX9X*.X./.FX8X[.I.I.S.K.'.f.S y ^.G.S g < ",
": H iX[ o.=.o.o./.GXGX3X..M.+.x.XXl.s.bXkXZ.].).|.H.:Xc.]._.R.I.K.x.F.n.z.@XD.wX5X' ..2XGXKXGX8X7X'.T.R.l.%.| f. Xs.E n ",
"H L T l.E.p.i.X.j.3X3XN.O.M.p.d.T.l.a.dXkXd.[.R.H.:X:XS.R.R.[.R.^.&X(.n.c.&X3XwX3Xq @.o.W.5XCX9X0X_.P.H.a.e.k.a.`.E.e bX",
"Y Q jX^.GXKX5Xb.t.o.t.p.M.M.+.s.).l.s.;XlXl.'.S.&XvX$X].R.{.T.I./.4XC.M.u.D.1X3Xo.w e _ r 0 q } +.p.N.r.[ a.a.e.`.F._ -X",
"Y Y >XJ.8XwXHX2Xb.*.+.M.V.n.o.k.R.D.a.oXpX+XS.x.mXiXG..XR.].).H.1X2XV.%.!.H.X...) y B.p. .+.} q o e e o +.s.i.h.G.F...Q ",
"R R @X].I. XKX1XV.E.p.L.B.B.O.} H.H.h.p.tXyXi.iXPXk.J.'.J.T.U.E.4XQ.M.e.K.{.H.l.a.a.b.2X4X_.L.F.M.t.*.w X.| e.f.D.A.X.S ",
"R W %X`..X.XDX4XV.M.p.C.B.A.X.{ p.T.l.o.z.-XE P fXv.U.A.U.(.N.,X5XV.h.!.T.Y.R.[.D.p.b.jX9X}.I.P.D.Z.p.u t.j.h.s.D.Y.X.Y ",
"8.W @XP._.Y.DX1XV.=.' X.v.F.X.#.@.A.F.h.o.*.( 0.&.m.C.m.b.p.+X9X~.r.e.R.R.I.K.T.D.t.E.jX9X`.R.J.D.H.a.X j.s.e.k.G.F...Y ",
"U I >XU._.C.3XW.b.*.r.+.r p.r.#.X v.L.G.e.+.t.[ ' O.p.W.,X5X4Xl.[ a.`.I.T.I.T.I.N.t.M.jX8X`.R.J.s.H.k.u n.D.i.i.G.B.' ( ",
"K K ,Xp.m.B.N.t.[ [ B.V.' q t.s u } b.A.D. .[ M.N.M.N.W.2X$X' e s.'.R.T.I.S.P.A.v. .O.5XGX8XJ.D.s.F.$.S Z.f.e.e.S.M.r ;X",
"A C A sX-.X. .} p.v.v.m.o.r +.u +. .} b.V.L.N.e.[ | ] ` q t i.G.[.R.Y.A.L.m.b.v.t.e e X.3X3XF.i.M.X.G oXf.h.g.i.Y.+.8 fX",
"A 1.V P dXt.B.m.C.V.p.B.O.` &.u v.%.9 [ p.n.V.L.B.} x.D.G.K.I.Y.P.L.A.m.B.v.=.+.} i.Z.i.) ' ..) t.} G %.r.k.| f.F.) s f ",
"A A M 3.zXr.Q.V.A.m.n.o.{ #.X s %.lXgXw ' O.o.v.N.} D.L.V.L.m.L.V.V.m.v.o.X...) e N.Y.T.F.N.r.X.p.*.s M.N.a.| S.E.w 7.- ",
"A A M M A *Xo.Q.C.L.B.#.y 8 ( fX1 1 A iXO y ] X.X.@.e.A.b.m.b.v.v.v.o.X.[ { 8 I -.b.U.Y.I.[.K.A.Z.S s v.p.e.a.F.` X > > ",
"A V B m 1.1.R p.m.b. .8 S -X1 1 h b b h x G . e ` q t N.X.X.X.X.' [ ' q 8   / x hX+.C.C.H.S.f.l.s.O  .w.i.| ~.j.. -X- * ",
"V V A <.1.1.3.:X-.-.7.fX2 2 2 2 2 2 6 6 n *Xe O   w o  .` _ ) ) ) q o . e t zX< z :Xp.B.Q.N.*.E.#. .!.i. .x.~.r I ; $ & ",
"1.1.1.<.V m 7 7 7 7 2 7 7 7 2 7 7 3 6 h P hXu.!.|   o w 0 0 9   o e  .s.D.g.kXg > z :XO.=.} o...O i.k.i.a.G.} ! @ & & & ",
"1.1.C M V m B m <.<.<.B <.<.7 7 2 1 3 6 M lX] B.Z.t 0 0 0 o . w.d.s.r.i.&.W g > > > x lX=X;.;.*X:.e p.u.i.S 0.# @ & & & ",
"1.M <.V <.<.1.<.<.<.<.<.7 7 7 7 2 2 <.3 6 < b kX1XoXe 9 . t y.s.t 8 0.iX< > x z f f - - - % $ $ p kX*X*X7.# * - - & & = ",
"1.1.1.<.<.<.1.<.m ,.M <.,.2 2 7 7 <.NXS W 5 < < N jX0 g.G.H.A.r o OXgXf z P hX-Xf - - - = = @ @ $ @ # # & $ # % % % i - ",
"<.<.1.3.<.B V B ,.M <.,.,.,.2 2 M 1.z.Z.e.E 6 < V hX0 } p.p.} @.} kXaXyXMX-X[ e.W > f $ @ - @ % # # # # $ @ # # $ % i f ",
"V B 3.3.V B m B 7 7 m 7 m 1 6 V <.2.!..Xx.y *X6 < v #.) w 9 r } } jXuXuXxX] {.|.t $ % - % * - % # $ + # @ # @ # @ # $ % ",
"<.K 1.V B 7 6 6 3 4 1 1 1 1 6 b b j $XS.K.e.w.=XR zX#.t.{ r _ ..r.OX: l =Xy. XS.| $ $ - % # * @ # i i # # # # # $ @ % % ",
"V N B 6 B 6 3 3 3 3 3 3 3 6 4 4 l K +Xm.Q.N.%.y.z.j.r.l.s...j.F.s.$.iX=Xy F.Y.Z.&.& * * * & & * # i 9 $ # # % # $ $ $ % ",
"V B B 7 6 3 3 3 3 3 3 3 5 5 5 F F K ,X=.Q.Q.*.*.b.B.W.} } *.j.h.j.D.[ q h.~.Q.b.;.& & & # * * i # i % $ @ @ # % @ $ # % ",
"<.K B 5 7 3 3 3 3 3 3 4 F B K : ; ; p ;.p.M.M._ r } ..} ) r ) @...' ) ' o.M.M.%.;X@ # # & * # $ $ $ $ # @ @ # # $ @ % $ ",
"7 B 3 7 7 7 3 7 B 3 3 5 5 F : ; : K D D tX:.;.;.T :.-.-.s J :.:.( Q Q Q -.;.:.6.@ @ @ @ @ @ @ & @ $ @ $ @ $ @ $ & & - @ "
};
