/* XPM */
static char *result[] = {
/* columns rows colors chars-per-pixel */
"40 40 236 2 ",
"   c black",
".  c #090000",
"X  c #0B0811",
"o  c #2A2200",
"O  c #000934",
"+  c #1F272C",
"@  c #2C2F2F",
"#  c #5A3100",
"$  c #00285A",
"%  c #033859",
"&  c #193A51",
"*  c #002B6C",
"=  c #03396B",
"-  c #1F3F64",
";  c #003678",
":  c #4F3941",
">  c #074369",
",  c #15476B",
"<  c #074475",
"1  c #05457C",
"2  c #09457C",
"3  c #194878",
"4  c #1D5079",
"5  c #225074",
"6  c #54504A",
"7  c #60645E",
"8  c #5D5E60",
"9  c #6F5D6C",
"0  c #716B6B",
"q  c #A35C31",
"w  c #9E6D5B",
"e  c #AB7053",
"r  c #B77959",
"t  c #815F6D",
"y  c #906E6F",
"u  c #A77969",
"i  c #CE7D4A",
"p  c #D38435",
"a  c #AA8166",
"s  c #A2856D",
"d  c #B6886E",
"f  c #DA8B49",
"g  c #CA8E55",
"h  c #D68A53",
"j  c #C28B66",
"k  c #DA9A67",
"l  c #E19C69",
"z  c #D9A46C",
"x  c #CFA879",
"c  c #E6A769",
"v  c #E5B37C",
"b  c #F1B674",
"n  c #F7C176",
"m  c #00328D",
"M  c #014584",
"N  c #094785",
"B  c #0A4A84",
"V  c #00438C",
"C  c #014A8B",
"Z  c #0B4B8C",
"A  c #114A86",
"S  c #0A5388",
"D  c #135B8D",
"F  c #004394",
"G  c #004C95",
"H  c #0A4E94",
"J  c #00459C",
"K  c #004C9B",
"L  c #0B4F9A",
"P  c #144F98",
"I  c #015395",
"U  c #0C5294",
"Y  c #01529C",
"T  c #0B529C",
"R  c #035B9B",
"E  c #0D5B9C",
"W  c #145394",
"Q  c #13549D",
"!  c #1A559B",
"~  c #185A98",
"^  c #264F84",
"/  c #235797",
"(  c #2C5092",
")  c #1D6894",
"_  c #18659A",
"`  c #3A678A",
"'  c #226A91",
"]  c #246A9B",
"[  c #36639D",
"{  c #0047A4",
"}  c #0054A2",
"|  c #0C56A1",
" . c #045CA4",
".. c #0D5BA3",
"X. c #0059AA",
"o. c #1657A3",
"O. c #135AA2",
"+. c #1959A2",
"@. c #0A54B1",
"#. c #235DA2",
"$. c #0B63A7",
"%. c #0E63A9",
"&. c #1665A8",
"*. c #1270B5",
"=. c #3464A1",
"-. c #2F70A7",
";. c #2A79A8",
":. c #2779B5",
">. c #525B8A",
",. c #4B6588",
"<. c #53728A",
"1. c #476C94",
"2. c #4E739F",
"3. c #5A7796",
"4. c #62798E",
"5. c #697C95",
"6. c #4C73A1",
"7. c #537BA5",
"8. c #657FAC",
"9. c #247EC1",
"0. c #8E7E8A",
"q. c #2E84BC",
"w. c #3389B9",
"e. c #6B809D",
"r. c #73879A",
"t. c #4581B7",
"y. c #6682A5",
"u. c #768CA6",
"i. c #769BAF",
"p. c #7C97BA",
"a. c #1192CF",
"s. c #2A8CC9",
"d. c #318BC7",
"f. c #3995C8",
"g. c #399BD8",
"h. c #28A1DB",
"j. c #33A5D8",
"k. c #3EA3DB",
"l. c #13B0EF",
"z. c #3EA8E6",
"x. c #2AB8F2",
"c. c #36B3F4",
"v. c #39B6F4",
"b. c #639AC3",
"n. c #52A2CC",
"m. c #45A5D9",
"M. c #74A8CA",
"N. c #75ACD4",
"B. c #42AAE4",
"V. c #42ACEA",
"C. c #49AFEC",
"Z. c #45B3EE",
"A. c #49B4EB",
"S. c #46B5F4",
"D. c #49B5F4",
"F. c #45B9F5",
"G. c #49B9F6",
"H. c #46B9F8",
"J. c #49BBFB",
"K. c #51B8F1",
"L. c #64B3E5",
"P. c #6EC2F3",
"I. c #76C3F3",
"U. c #78C3F1",
"Y. c #89898D",
"T. c #88949A",
"R. c #969998",
"E. c #A3938D",
"W. c #B69485",
"Q. c #A9A39E",
"!. c #8A9BA9",
"~. c #8895B3",
"^. c #9BA2A5",
"/. c #97A7B6",
"(. c #A4A8AA",
"). c #AEB2AE",
"_. c #A3AEB8",
"`. c #A9B3B7",
"'. c #B4B7BA",
"]. c #B3BABD",
"[. c #CAA68C",
"{. c #D3B794",
"}. c #E9BA87",
"|. c #E7BB95",
" X c #D1B3A1",
".X c #BDC0BF",
"XX c #EAC189",
"oX c #F0C588",
"OX c #ECC393",
"+X c #EECB95",
"@X c #E5C69A",
"#X c #EFCD9B",
"$X c #F2CD97",
"%X c #EFD39E",
"&X c #F1D29C",
"*X c #D8C4AB",
"=X c #D9C1B5",
"-X c #E9CCA1",
";X c #F0CFA1",
":X c #EDD6A7",
">X c #F2D5A7",
",X c #F4DAAD",
"<X c #ECDAB2",
"1X c #F1DBB3",
"2X c #F8E3BB",
"3X c #8BAFCB",
"4X c #A7B6C5",
"5X c #B6BDC5",
"6X c #9FC5DE",
"7X c #BBC5C8",
"8X c #BCC4CA",
"9X c #BECAD4",
"0X c #C4C5CB",
"qX c #C7CACA",
"wX c #D6D2CB",
"eX c #C6CDD3",
"rX c #CBCDD3",
"tX c #CED3D4",
"yX c #CDD1DA",
"uX c #D3D4DB",
"iX c #D6D7D9",
"pX c #DADADD",
"aX c #E7E4DF",
"sX c #DBDCE1",
"dX c #E0DFE2",
"fX c #DBE2E4",
"gX c #E3E4E4",
"hX c #EAE9E6",
"jX c #E4E5E9",
"kX c #E9E6EA",
"lX c #E7E8E9",
"zX c #EBEBEB",
"xX c #F0E7ED",
"cX c #F1EEEE",
"vX c #EBEFF0",
"bX c #F4F4F3",
/* pixels */
"S.S.S.S.S.S.S.S.S.S.S.S.S.S.S.S.S.H.H.H.S.Z.V.V.z.z.V.D.D.J.D.S.Z.S.S.S.S.S.S.S.",
"S.S.S.S.S.S.S.S.S.S.S.S.S.S.S.J.D.z.g.s.:.*.&.%...%.*.:.d.g.Z.H.F.S.S.S.S.S.S.S.",
"S.S.S.H.H.S.S.S.S.S.H.S.S.H.S.g.9.%.X. . .....| ..| T R Y Y &.d.B.G.S.S.S.S.S.S.",
"S.S.F.B.m.B.S.G.S.S.Z.F.S.g.*.........O.....! W 2 U ....O.O.| K $.f.F.S.S.S.S.S.",
"S.F.Z.;.S D ] f.C.D.D.z.9. ...$.%.......W / { } A 2 ..| ..| ..| T C q.Z.S.S.S.S.",
"Z.F.z._ R E S > ' g.g.$. .%...........~ I K >.9 Y A T ..E | T | T W m q.D.S.S.S.",
"S.H.m.D $.$.$.S > S $...%..... ...X.! } ( u z x W S Q | | T T L T T E m d.D.S.S.",
"S.H.k.D $.E D S E $.O.............O.X.,.d v +X@X,.C Q T T T T T L L U H D m.S.D.",
"S.H.B.D U E 2 U %.........| T T T ! X.,.[.#X-X@X[ M ! | L L H L U U B C ; ;.F.S.",
"S.S.A.D S S D $.$.........| Q ~ Q W ! X.) {.,X*X+.= A T L L H Z M = , ] ;.;.C.S.",
"S.S.Z.) < S &.$.O.......T ~ Y M C C | / } ] -X X{ - = L H Z B % 4 w.B.D.H.H.S.S.",
"S.S.D.;.% D ........| T o.C 4 r.T.3.V ../ { 5.u.J & 2 H A < = w.A.F.S.S.S.S.S.S.",
"S.S.H.w.G R E ..E ....+.V 3.`.0XeX].4.K P / } } P % L L ; , f.K.S.S.S.S.S.S.S.S.",
"S.S.H.s.W ` Y ..| | +.K 4.7XsXpXuXeX_.D | | o.+.B B | L = f.J.F.Z.S.S.S.S.S.S.S.",
"S.S.D.$.e._.G Q E O.Y ` 7XfXgXsXpXyX5X2.} o.| T U L L L U :.g.B.G.S.S.S.S.H.S.S.",
"S.D.Z.R /.iX[ Y O.o.M /.pXjXgXgXpXyX0Xy.K +.| T T L L T T T G &.f.S.D.S.S.S.S.S.",
"S.S.Z.Y 5XvXy.K / K 4.tXjXhXgXgXsXyX8Xu.K +.| | L H L L T ..O.T I :.V.G.S.S.S.S.",
"S.S.V.R 7XvX~.J #.I _.hXlXhXlXlXjXyX9Xu.} ! | T L H H L T | ....O.G &.B.F.S.S.S.",
"S.D.z.] 7XcX4Xm O.1.tXzXlXhXzXqX'.uX7Xu.{ +.| T L Z Z G L | ..O...O.T &.Z.S.D.S.",
"S.D.V.-.qXbX5XF K !.fXzXlXlXlXR.+ eX7X8.K +.| | H N Z H L | | ..O.#.&.G q.D.S.S.",
"S.D.S.;.qXbXY.G I '.zXzXzXzXfX0 X '.8X7.K +.| T L N N H H T  .! } { J ..U m.F.F.",
"S.S.J.*.qXhX7 = I qXcXzXzXzXpX+ . `.7X[ K Q T T Z N N N H T +.K =.4Xp. .T :.F.A.",
"S.S.J.a.7XzX6 O /.aXzXzXlXvXpX@   `.4XI L L L L Z B N N H W K =.yXkXeX7.Y _ V.F.",
"S.D.G.a.7XbX0 @ gXcXzXcXlXlXfX:   './.V / ! L H Z 1 2 N A P V eXvXsX7X8.} W f.F.",
"F.S.J.l./.bXR.. gXzXvXzXzXhXjX8   8Xy.m G K P Z B < 3 B ^ m _.vXaXrX^.[  .Z w.v.",
"S.D.j.,.r.).).0 zXvXzXhXkXjXjXQ.s 4X9 a r t C Z 2 < ; 3 m y.kXjXuX_.1.C W U :.G.",
"S.H.q.# tXwX7 Q.hXkXvXlXkXgXfXpX9XE.v $X&Xc t 1 3 3 < 3 ; eXxXuX`.<.= , > * ] A.",
"S.H.n.+ o Y.6   [.OXwXfXgXfXpX9X{.|.,X;X-X;Xj = , $ 3 * ~.kXyX`.N.j.m.z.k.w.f.F.",
"F.S.D.m.5   O X e %XXX|.*X=X*X}.+X1X;Xk e }.h * , 5.4 B 5X0X^.M.S.H.S.H.H.H.H.S.",
"S.D.Z.D.J.Q.a w e |.,X%X#X+X+X>X1X>X;X}.r c i $ 9XpXu.,.0X5X!.V.S.C.S.S.S.S.S.S.",
"S.S.D.A.v.N.c j e k :X:X:X,X1X1X<X,X|.g }.c q !.cXqX(.tXhXgXrXL.S.S.S.S.S.S.S.S.",
"S.S.G.D.G.l.^.p d g +X%X%X>X:X>X;X}.x OX}.f : 9XhX5XtXaXrX0X).3Xv.S.D.S.S.S.S.S.",
"S.S.S.S.S.A.x.(.p h v +X$X$X&X&XoX}.$Xb h e $ tXpX'.qXqXuXuX.Xi.v.A.D.S.S.S.S.S.",
"S.S.S.S.S.D.A.v.R.i f z v }.n }.}.v l i e 5 * /..XT.'.jXkXxXxX5Xh.D.S.S.S.S.S.S.",
"S.D.S.S.S.S.S.C.c.M.W.f f h h h i i r 0 < 2 * e.(.Y.(.]..X5X5X4Xt.Z.S.S.S.S.S.S.",
"S.S.S.S.S.D.Z.Z.A.c.v.N.0.a a r w 9 , 1 5 V 1.rXqX^.R.tXaXgX.XT.~ g.H.S.S.S.S.S.",
"S.S.S.S.S.S.S.D.x.K.n.2.u a y > ; C S I K V /.gXfX.X].zXzXgXpXp.J :.D.D.D.S.S.S.",
"D.D.D.D.D.S.K.x.3Xd E.z l l z x 0.@.@.2.E.` r.qXiXeX(.'..X].5XM.{ ] B.J.D.D.D.D.",
"v.v.c.c.c.c.l.`.f d <X%X+XoXn n c 5.@.Y.n y r.R.pXgX).^.].qX8X6.V M s.v.c.c.c.c.",
"I.I.I.I.U.P.6XOX[.=X2X2X<X1X:X@X@X[.7.~.+X X9X.XpXzXhXdXgXpX4X6.7.2.b.U.U.I.U.U."
};
