/* XPM */
static char *result[] = {
/* columns rows colors chars-per-pixel */
"60 60 88 1 ",
"  c #001B13",
". c #071619",
"X c #04251B",
"o c #0C251E",
"O c #052B1E",
"+ c #0A2D1E",
"@ c #15241E",
"# c #0D1C21",
"$ c #101E23",
"% c #0E2423",
"& c #062C22",
"* c #0A2D22",
"= c #142426",
"- c #1A2424",
"; c #142D25",
": c #192D25",
"> c #152629",
", c #19272A",
"< c #162C2C",
"1 c #1A2B2D",
"2 c #0D3225",
"3 c #0E332A",
"4 c #0E3828",
"5 c #123326",
"6 c #193127",
"7 c #13362C",
"8 c #1C332D",
"9 c #153A2D",
"0 c #1A3B2E",
"q c #1C2D31",
"w c #153630",
"e c #1C3432",
"r c #163A31",
"t c #1A3C33",
"y c #1D3D39",
"u c #202F2C",
"i c #21322D",
"p c #212E31",
"a c #213332",
"s c #223C35",
"d c #24333A",
"f c #233D3A",
"g c #2A3C3D",
"h c #17402F",
"j c #19402F",
"k c #164132",
"l c #1C4334",
"z c #1E4937",
"x c #1E443A",
"c c #1E4A3A",
"v c #224336",
"b c #2B4637",
"n c #214937",
"m c #22453B",
"M c #29453C",
"N c #234B3C",
"B c #2A4C3E",
"V c #24503E",
"C c #303F46",
"Z c #244641",
"A c #2C4342",
"S c #244B41",
"D c #2B4D42",
"F c #324345",
"G c #324A45",
"H c #35464A",
"J c #354F49",
"K c #394C4E",
"L c #255342",
"P c #2B5244",
"I c #275845",
"U c #2A5A46",
"Y c #2C5548",
"T c #275D49",
"R c #2C5C49",
"E c #315346",
"W c #325847",
"Q c #335549",
"! c #345A4B",
"~ c #38584E",
"^ c #3A5C51",
"/ c #2D624D",
"( c #2F6752",
") c #346452",
"_ c #3A6353",
"` c #326852",
"' c #3F6758",
"] c #3A6C58",
/* pixels */
"lttlPPDDst9e0ttetDBsvMfvmlV_VhjBWVjjbUWVVnn08isssss0BP!B5@@@",
"l0zBPNvENtt00t00tEEsvnnmnvB_n9nVVbj4VWWVVnv09e0ssstlBQWsXo@@",
"chNVml9B!n909ttttEQvvnnvvnW!jhnWVnj4VWWUNzv660sfsvtlPWP768:i",
"`Nhl995n_!trt90ttP~nvnvnnBWWljVBbvj0VU/Ucnl868svvvlMPWBhnbvf",
"])z99429!_Prk99ttD^BmMvznVWBlnVVbj44VWRRVzv660bBvvnnW!MlnvMM",
"R)U99995S'_xlkthrN!NmBnnnVWVjnWBj4j5VRRRVzl05sEPvlvNW!nhmmvg",
"RRRl5544l_'Pkkh09NQllNnnvVWnjnVB4050VWU/Vzk75b~bklzVWEvvvvMv",
"IRRN5295lR)/lk9h9MP0hllvnBUnjnBn455jVU/VUzj56BGj0lVBBvjlnMDM",
"LLIL02559L/)V9990nBjjjjjnBBjnnVn954jVU//Unj5sEB99lbVB00jbbBM",
"cLLIm5529V/`/z470bBvnbjjnVBjnBnnl50jVURRUVl5vQb60vbBb00svssv",
"xLLLP0559VT(`V240vBjlnnjnBv4nBnlnhnhzUURUVl4vEb5isbBb6ssMs86",
"kcSLVv754cT(`V+29lBjjjjnBVj9nB0jvbVhzUURUVj5BWb50bbbv0svfv8%",
"klcVVct5+c/T//4+5jbj9jjnnBjjBnj00QB9n//VUVjhB!v60vbbs0svb8@o",
"kkzccLl9&h/TT/hX2lnj59jjnBjjnnj0v!bhnVV/VVhhP!v56vbbssvst8as",
"trkzcLNr24I/TTh49vvj4hjnVBjnblj0bPzjzVUVUchhPQv50jbv000vGQGs",
"lt9hcVVl42c/ITchnbnvjhjjVnjnnj00BnjjzVIVIVllPQv50svs00b~^M:-",
"lt55zcNz42kTTIc&tBDPNxlzzzlnnv0vbs0jlnLILVllQPv680s00B^~B;o:",
"lt94kzczk4kLILc&OlDPPBzlccnnnjhMv60vvnVLLVzlPEt5500vB^!B0;;u",
"vt759zNzl49LLLc420MPPLclNVznlhlBs6ivlvNVLVmlEB0250lDWWB06:uu",
"Bt749knmlh4zLLN429lNLLNlzzzzl0vBs6ijtlNVNVmzVBt;20BQPBl06:us",
"Em9999kmzk4kLLN929kvNBzlzzzkzlNv6iiitkzNNVzxNNv++mQEBn08iuui",
"JEl5549lxl4hVVzl4999lcllkzkzcNBbiiij0txNcVNlmmt20PPbn950ssai",
"mEDt599kll99mNzzh9h49nllzxlzLWPv6ii00vnmNLclvvklBBNv0566igpi",
"rmYB950tllk9xZnmlh994knllklkL^Ds6iiii0tncNzlkvvBDlt90s66iiid",
"9tDYm7rttltwtNxmltr520llllxkS!Pt8iiii0lnnxxltmBNnt00vvi0aiaa",
"rrtPDt99rtlrrxNmnkt527lkllktxLDm8iii88ennlmllmNmlt0tMNbsaiia",
"tttxQDt9wttt7xmZxt9727ttkkkkxmNAs1iii00vmxmtlNNl0ktvMMfseiaa",
"StxxYQm73rkt7ymxxtr550t9lltktnNPv8iii88smtlttDnr0tttvMsaaiii",
"ZxxxyDYr&wtt7ymmyt0967rtrtlkkzNYAy8aa89etsttmmte0ttteesieia8",
"ZcxxwxDZ33wtrymmlt9999ttkltkxxxPPf888a88yttxmfyrwe9teeieaeaa",
"ccxr3wZDt33tttymxte96wtttktrxxcPYmse8aeeetyxmytwtrtteeeeeaef",
"ZZxrr3rYc&3rttxxlrew9900ttkrlcxSPSs8888i9yymmtttreteeeeae8dd",
"cSckr4rSS33wrrxxxrr9990trttrlxxSYDZw18ieeymfyyt9wreyqeaepeaf",
"ZSLxrrrcSr3wrryxytrr9e0t0ttktxlzLPZt888qeetfyyteeyreeeeaaeef",
"SSLxrr4xSx3wrryxltree0tetktlklkxZLSy918qesytettwrrweeeapedsf",
"SSLSk3rxSxkwrrryttrr9t9900t0rtxlxSSme8a8aeyeytytweyedeaaieee",
"xZSSxrryZZxrrwrkttrr99e99ttttlxrxcSSy1a1aetweyewwwytaeeaaeet",
"rxSSSxrkccxtwwtytrrr9999999rttxtyxZDfaa1qqeeerwyeteeepiaaesm",
"rrZSLSxxcZxtw9wttrew77999w9tlxtttxxSmea8eeeeeeywtee8aaap8efA",
"4rZLSSxxZxxt9wwrtr9777w9999ttyttttxZmdaei1qeeteytreeeaeiasAF",
"t3xDLSSZxxxtw3wtrr977r09r75tttwtttxmmsa8q11eeetryeeeeapaeyGA",
"rwySSSZmcxxtw39wrr77ttt9999tttttettmCsda888qdtttwtw<eqaeeCGf",
"tttSDZNxxxyt773rtw59lmt999rtttttwttfmfd9181eeetewwweeaea1ACf",
"ew5ZPSZxyxxt743www79NNr797wttytwe9efffae118eeytwwweeeqi1igCC",
"5*XtPSSmtyyr737wr99xDNr977wttyewwwteffeq<q<qeewywtee1eaeagge",
"%X 7SAAStrxw3377w9wSPz99749rreweeeyeefeqq<<eeyryyyyeeqppeFGq",
"%* 3mSZStwyww337wrxLSSzkr39twwqwweeeedeeq1<qqwyyZZfeqeaedFKF",
"tmw3mSmSx3rtrw334rNSNLVcx9w9ywwwee9eeepe11<<qqyyZZZeepppsCgf",
"SAmymSZSZ3wryw333ySxcTSSSk3rwwww8eeeeeaq11,<1wyyZZdwqqed,qCC",
"NmxtxDZDZr3yrww33ZTxkTTTSkrrwwwweweeapaq1,1,<eyZZyyyeqqdC,dC",
"t93%3mSmZkryyrwwkSTxrLYYSxrrrwww7qeedaeq,,,1<etyyywqpqpp,..>",
"*OOO*mSSZxyxyrwwkSZkrcYYTcrrwwwwweeeeepp1,,1<wyyyywqqpqq$##q",
"**&X&xZmZZxxxyrrxScckkTTTyrrrwwwwweeeqdqq,,,<<rtyrweqq11###q",
"9O***xSZcZZcxrrrcSckr4STSxr3wwrwteeyeeapu,,,q<qweee81111##,q",
"n9rlcSSNZZZxyrkxcSSZk4xISrrrwwwyteeeeeepq1,,>><<<rq1q1,uqCdq",
"mmNSPSZZZZxyrryxSSSSkrxZxrrrrwrywetyteeqpp,11>>%qeqq1,,pCCd>",
"xzNmkxxSSSxkrryxSSSSkrxxxrrrrwwrryryrwqqqp1,,==%<eqq,q,qHC,q",
"mmxt44kZZZcxkryZSSScxrkxxrrrr3wrrryryreddpp,,==#qeqq=qq>ddqq",
"SDSl3&rZSZZxrrycZSScxrrxrrrrr3wrrwwyyydeqpp,====>q<<,qq>#qqq",
"LSPN4&wNSSxxkrxSSSSxxrrrrrrrrwrrrwyrryywqpp,-==>eqq1,,q>#qqq"
};
