/* XPM */
static char *result[] = {
/* columns rows colors chars-per-pixel */
"60 60 222 2 ",
"   c #133D0B",
".  c #1D3615",
"X  c #173D10",
"o  c #1C3D12",
"O  c #1F3E19",
"+  c #243A1B",
"@  c #303E25",
"#  c #1B450D",
"$  c #1C490C",
"%  c #1B4412",
"&  c #1B4115",
"*  c #1D4A13",
"=  c #1F4A1C",
"-  c #1F501C",
";  c #224B0D",
":  c #244615",
">  c #234B15",
",  c #2B4D16",
"<  c #22431B",
"1  c #2A421C",
"2  c #244C1C",
"3  c #2C4E1B",
"4  c #314F1D",
"5  c #255211",
"6  c #2D5316",
"7  c #2D5A15",
"8  c #24521B",
"9  c #2C531A",
"0  c #2C591C",
"q  c #315416",
"w  c #325B16",
"e  c #33541C",
"r  c #38541E",
"t  c #345B1B",
"y  c #395C1E",
"u  c #2D631F",
"i  c #36621C",
"p  c #3A631D",
"a  c #3E6C1E",
"s  c #3E711E",
"d  c #234723",
"f  c #2C4520",
"g  c #254D21",
"h  c #2C4D24",
"j  c #2B4529",
"k  c #264D29",
"l  c #2B4D2B",
"z  c #324E24",
"x  c #334D2A",
"c  c #344B2C",
"v  c #2C5323",
"b  c #285425",
"n  c #2E5A23",
"m  c #2C522B",
"M  c #345424",
"N  c #395524",
"B  c #355B23",
"V  c #3A5B24",
"C  c #345429",
"Z  c #3B552A",
"A  c #355B29",
"S  c #3B5C2A",
"D  c #304D31",
"F  c #2D5531",
"G  c #345433",
"H  c #3A5532",
"J  c #3D5C33",
"K  c #31553C",
"L  c #38593A",
"P  c #3B5C3E",
"I  c #366222",
"U  c #3B6323",
"Y  c #3D6C22",
"T  c #366028",
"R  c #3D632A",
"E  c #356C2F",
"W  c #3E6A2B",
"Q  c #3E7121",
"!  c #3B722E",
"~  c #3E6431",
"^  c #356D33",
"/  c #3B6C32",
"(  c #3B683B",
")  c #3D7333",
"_  c #3E7838",
"`  c #416D1E",
"'  c #42741E",
"]  c #425D26",
"[  c #445B2A",
"{  c #425E2C",
"}  c #454F3A",
"|  c #445D33",
" . c #455936",
".. c #4C5E36",
"X. c #4A523C",
"o. c #4B5C3C",
"O. c #535E3C",
"+. c #416525",
"@. c #496627",
"#. c #426C24",
"$. c #43642C",
"%. c #48652E",
"&. c #446B2B",
"*. c #496B2C",
"=. c #427323",
"-. c #44712B",
";. c #437629",
":. c #49722D",
">. c #4A782F",
",. c #446433",
"<. c #496535",
"1. c #446B32",
"2. c #4A6B34",
"3. c #45643A",
"4. c #4C623C",
"5. c #456C3A",
"6. c #4C6B3B",
"7. c #506D33",
"8. c #566639",
"9. c #53633D",
"0. c #536B3C",
"q. c #457333",
"w. c #4B7333",
"e. c #437B34",
"r. c #4B7C35",
"t. c #43753A",
"y. c #4D743B",
"u. c #467C3A",
"i. c #4D7C3A",
"p. c #507635",
"a. c #517A35",
"s. c #53743B",
"d. c #527B3B",
"f. c #2F594C",
"g. c #465A47",
"h. c #455C46",
"j. c #4B5B43",
"k. c #4C5C4B",
"l. c #535D43",
"z. c #525E4C",
"x. c #416243",
"c. c #4C6344",
"v. c #4B6A45",
"b. c #4B644C",
"n. c #4D6A4D",
"m. c #546443",
"M. c #5E6445",
"N. c #526C42",
"B. c #5C6944",
"V. c #52634C",
"C. c #5D664C",
"Z. c #536A4D",
"A. c #5B6A4A",
"S. c #437242",
"D. c #4F7441",
"F. c #4E7B40",
"G. c #44714B",
"H. c #557442",
"J. c #547B43",
"K. c #597B45",
"L. c #5D744A",
"P. c #577E48",
"I. c #5C7B4A",
"U. c #4E6751",
"Y. c #536451",
"T. c #5B6753",
"R. c #536B54",
"E. c #5B6D56",
"W. c #546C59",
"Q. c #5A6D5A",
"!. c #4B7A52",
"~. c #527155",
"^. c #5C7254",
"/. c #5D7A51",
"(. c #56725B",
"). c #5B735C",
"_. c #5B795D",
"`. c #626A46",
"'. c #646B4B",
"]. c #65784A",
"[. c #646D51",
"{. c #637455",
"}. c #6B7553",
"|. c #617C53",
" X c #6B7A54",
".X c #62735C",
"XX c #6B755B",
"oX c #657B5C",
"OX c #6B7C5C",
"+X c #5A7562",
"@X c #5D7C62",
"#X c #5F7A69",
"$X c #637560",
"%X c #637A65",
"&X c #6B7D62",
"*X c #657F69",
"=X c #478132",
"-X c #4B8136",
";X c #4C8239",
":X c #538136",
">X c #53823B",
",X c #5B863D",
"<X c #5D8B3A",
"1X c #538641",
"2X c #578747",
"3X c #5B8344",
"4X c #5B8051",
"5X c #61814D",
"6X c #648B50",
"7X c #63805A",
"8X c #718256",
"9X c #73815D",
"0X c #688668",
"qX c #6A846C",
"wX c #758661",
"eX c #648374",
"rX c #698675",
"tX c #648579",
"yX c #678A78",
"uX c #6A8B7A",
"iX c #758F79",
"pX c #76917E",
/* pixels */
"z z h M z M M M M N N x z C M v x z z N M z z z 4 z C N M C r V M B +.S V S S B R V V V V U V B R R T T R / &.1.1.w.w.:.",
"z C x x F C x e r M N N C M M r z x x C C C Z C C N N M M C M C M A S A M y V B B A S Z S T R R R $.&.R W $.&.r.-.1.a.a.",
"M C C M f.K e z N N M N N M z M N C N C M Z N C N C N B N M Z B V S B B B A B T B A B T T T S R W $.R $.R W &.w.:.#.&.1.",
"C z M M K G M M C C M v C x C N r M N N C N M N N N S ] V M Z R $.{ A V B S T J S T R T T R T R R &.q.&.&.&.-.-.1.&.&.$.",
"C C M M M z C M M M M C C C M M M N B M V Z C N M Z <.6.[ ] R S R S +.$.S R R R 1.%.S R $.$.$.U $.&.*.$.&.&.&.$.$.$.U Y ",
"M A Z M C M x M C M C M M N V N V M V Z N A V A C A ,.<.S S U $.$.] $.@.U $.&.0.7.$.,.*.%.%.%.$.$.$.$.$.$.R $.%.{ $.$.U ",
"B V V M B C M M A B M B S S V V N V Z S R R S Z S A ,.3 r V +.%.%.$.%.$.&.&.0.H.*.$.&.+.$.$.{ %.%.{ { $.%.$.{ [ { %.%.S ",
"V V V V S S V S S Z V S <.<.S { S S V 2.<.~ R S S A 3.. Z { $.{ { ..{ %.$.%.6.6.,.&.#.$.+.R R ] { { S ,.,.$.{ { +.{ S R ",
"V U +.{ $.R R S V S R R 2.Z | %.$.S $.0. ...| S R S 3.< H | S R R { { S ,.,.C ,.,.W &.#.$.R T R U R ,.S ,.S S S S Z Z $.",
"U $.+.$.$.$.R T W &.$.%.%.f x ,.@.$.$.0.+ H ,.{ J ~ ,., 9 S { ] R S J $.R 6.+ Z ,.$.$.R $.U T S R ,.Z Z J S A J { [ [ <.",
"R ~ R R R 1.W W &.&.&.&.R 2.< A *.$.$.6.: h ,.,.R $.,.B # ~ ,.T $.{ $.%.1.,.: S 1.$.R W W U U R ,.R .  .<.{ | | ....O.O.",
"E R / 1./ / / &.&.+.&.&.%.s.8 2 %.&.&.y.B # R 2.&.1.2.V # ,.<.{ { | %.%.s.B ; ,.5.W R W &.$.R $.,.9   | 9...4.O.O.8.O.O.",
"~ 1.&.,.&.1.-.&.&.*.&.:.*.p.9 $ B 1.&.1.$.6 8 <.2.2.<.e , S ..| | $.$.&.H.0 $ 1.1.&.W &.&.,.$.<.N 4 3 4.l.O.O.O.O.O.9.9.",
"q.1.1.&.-.-.:.:.:.&.-.&.&.w.V t $ W -.#.5.9 > S Z.V.o.r y , j.l.o...,.2.1.0 $ 1.2.&.&.&.&.&.6.,.z : ..l.O.O.9.m.9.V.Y.Y.",
"r.:.:.*.:.&.:.:.-.&.! -.q.W y.t 7 M 1.1.D.8 m = U.Y.V.B R & j.V.j.j.j.m.3 e * <.s.2.w.1.2.0.8.h Z < o.`.`.C.Z.Z.R.R.R.W.",
"a.p.p.w.w.:.:.:.:.;.>.:.W ! i.2 B 8 A ,.H.h C h H b.).m R , j.V.j.k.k.T.g C < 4.M.8.0.B.`.'.M r Z 3 9. X[.[.E.Q.).).T.Y.",
">.:.w.:.:.:.:.7.:.:.a.q.#.! q.T i U > W L.c l Z * c.).C T B S n.Y.z.V.m.v R < k.T.C.'.'.'.O.v S 4 %.M.wXOXXXoXoX7X(.U.~.",
"p.w.w.w.w.w.r.w.p.r.>.:.:.>.:.d.7 I 9 R I.S z V 9 J 4.M Y $., Y.Q.C.E.c M 1.= V..XY.l.'.A.z N $.: 9.'.9XC.XXOX&XOX^.(.+X",
"d.p.p.a.:Xr.r.*.{ w.>.w.r.d.w.d.8 I Y 6 y.6.q y y r 4 M U 1.= U.Q.Y.).j C 1.1 U.Y.g.k.+XC r +.U e m.'.}.@ V.oXoXoX).+X+X",
"a.p.p.,X,X3XK.I.1 S d.r.3Xr.r.a.E u W i V S q y +.y 4 e W 1.= b.).R.Z.v T 1.= b.k.Y.Q.b.m B 1.9 ..`.'...z A.9XoX_._.@X7X",
"|.7X0X0XqXqX*X&Xh # 1.:X1X9 / u.J.0 I Y t M 4 y @.p r r U &.0 J Z.W.H M &.&.< h.T.W.E.h C #.$.& k.}.O.+ | 9XwX9X7X7X7X/.",
"qXqXeXyXtXtXeXrX( M M w.;Xv x w.3XC T -.U r r r #.U r r +.@.y , c.$Xj x 5.R 0 Z.Q.Q.L M T &.B m V.A.x % 9.}.8X X].I.H.y.",
"*XeXeX*XeXeXtXtX#XJ 1 G i.P.< A P.L.i Q &.y r r +.&.V r y *.$.o c.wXl C -.U S (.%XR.j C &.&.> c.XXZ C : m.].N.y.y.y.J.s.",
"tXrXtXuXrXyXyXuXiXG C : y.6XB * ,.|.B U :.p r r ` :.#.r r $.&., 9.A.b B w.7 3.Q.%XK v R #.U 9 A.m.M 3 N 0.d.i.y.i.d.H.J.",
"+X$XY.).$X.X.XE..XH M t U J.W v e { r U =.*.V r y *.*.y r U +.e ] Z e R q.8 v.%XU.l M #.=.y S 9.y B % 3.s.i.s.i.J.3.v.J.",
"s.4Xf A s.s.s.s.s.s.r U t U R B r q r y @.:.y r y #.:.U r B +.y r q y #.-.8 Z.*Xm 9 +.:.#.y N r y U : 6.>Xa.i.J.y.& <.D.",
"/.4X( = ( 4X].I.P.6X0 B &.t r q V V r y ` =.+.r r #.:.@.r r V y r 4 p @.*.9 3.v.v V :.=.U r q y #.t B a.:Xi.p.w.6 * w.r.",
"qXrX0X~ 8 3.).).E._.J B &.V r r N ] y r p *.&.r r +.*.=.y r y y r r ` :.#.y N Z B +.-.&.B e q y &.* t.>X:Xd.a.y > $.i.w.",
"yXuXpX~ C v 6.@X+X(.^.r U #.r r r V +.r y @.-.y 4 +.*.=.#.r r t r e ` =.#.y M r y #.-.&.M e 7 ` #., s.,X<X3XW t $ 5.i.w.",
"uXeX*Xx.C G 9 v.+X+X%Xl B *.U r r y +.y q V #.U e ] =.' #.y q r q y ` =.#.B r B @.;.Q U e e p =.w U >X:X,Xw.0 B 9 5.r.:.",
"eX).).#Xm m C C n.#X#X( v @.@.y r r #.+.r q U U e r #.' =.p r t t y =.=.U V M V &.=.&.B 4 r Y #.* w.,Xp.q.6 T 7 &.w.-.q.",
"(.(.).%Xf.B S b F ~.+X#Xh B &.U r e U #.U q t I e e #.=.;.#.t B r +.=.=.p r y Y =.=.U q 9 I =.U 0 y.p.w.0 0 W * 5.w.&.-.",
"_.(.+X+XW.C V S b G Y..Xc x #.#.y q t Y W t q B e e Y =.;.=.p 0 6 U :.=.t q p =.=.=.p q t #.#.6 ,.i.p.~ b U I n 1.:.&.=.",
"U.b.k.g.Y.d M V r 1 H ^.N.e p =.U t r U -.Y r 6 9 M Y ! =.=.U y t U =.a t y Y =.;.@.y w a =.Y * ( y.1., t &.* ,.2.&.&.&.",
"} } } X.X.H v U U B : ,.|.C y #.&.B M V 1.&.i 6 e 9 U W ! -.&.B 9 y #.y 6 B Q =.=.U e V ` =.t v 5.y.8 9 Y Y 3 ,.2.&.W #.",
"M.C.'.C.'.XXC R &.T M M ,.N V &.-.W e M #.&.a t M e I &.-.-.-.U 3 r A t 7 U Q =.+.q q U =.=.% 3.P.| , T &.5 R 2.&.&.R R ",
"'.'.`.'.A.}.3.b W W B C 9 9 M W -.-.B e V #.=.Y q M t R -.-.-.R M M 4 4 r U Q &.V 9 y #.=.p 1 0.H.1 e #.#.# ,.5.R R R T ",
"`.`.B.'..X).).l A q.U B M C e V -.-.W A r U =.! B e r #.-.-.-.&.r 4 4 e p Q =.U q q a =.#.7 $.5X,.9 U #.t y y.R T A R T ",
"].].{.%X).(.).P F W &.B e M M C &.-.-.U 9 V Q Q U e 3 T &.#.-.#.i e 3 q a s Y y e y a ' #.> D.K.9 t =.&.* 3.2.,.,.&.R n ",
"|.{._._.W.W.W.(.b T -.$.B 9 M 9 T #.-.U q t Q Q Y y 3 U #.=.=.' a q , t a a p 9 e p a #.p M <.V r #.=.p 3 ,.2.2.2.2.R A ",
"0X(.W.~.~.W.~.+XG v W &.U 3 3 3 t Y Y Y y t i Q s U q i ' =X' =.` r q t a Q t 9 B Y ' ` w q r q p Q #.5 $.6.$.*.2.*.R F ",
"@XW.W.U.b.b.k.c.c.3 B #.#.y 3 e w p Q =.Y 6 i Q ' p q i ' ' ' ' =.p q e p i 6 q U Q ` a q q q t Y Y &.* ,.2.1.%.%.,.S B ",
"v.v.6.3.( ( 1./ D.9 0 Q =.U w e 7 i a =.#.w w Y ' p w y ' ' ' =.=.a e 6 y q 6 t Y s =.i q q q p Q =.B 9 %.%.+.R ~ R V S ",
"d.i.y.w.q.i.;X/ e.I 9 I s ' i 6 6 U ! ' =.i 6 I s a w t ` ' ' Q =.` t 9 e e q p s s ` r q 6 w ` s Y * ,.<.3.G.$.R R ,.&.",
"d.>Xi.w.i.;Xt.e.! 1X- 0 Y s =.I 9 T Y s =.Y t t s ' w w s ' ' =.=.' p 7 q , w ` ` ' ` q 3 6 p ` s p > $.%.y.!.*.*.@.@.%.",
"y.d.i.e.u.u.u.-Xu.;X8 6 U s ;.Y 6 6 i =.=.Y t 6 a a w 6 a =.=.=.' ;.U q 3 9 p ` a #.r 4 q r ` ` Y 7 V 1.1.&.$.$.*.+.S $.",
"d.a.r.r.i.;X;X>X;X;.q.8 t =.s Q i 6 t Y =.=.p q i a w w a Q =.=.=.=.#.r 9 q Y =.s ` w q q p #.` &.* ,.,.%.%.$.R R R R U ",
"s.a.u.r.:X;X;X;X=X! t.- 9 ! Q Q U q t Y =.Q Y 6 t Y t q i s =.=.=.=.Y t 6 y Y Y Q p e 6 y ` a =.V # ,.$.%.<.U B T V S Z ",
"i.;Xd.r.>X;X-X-Xe.) ) n 8 I Q Q Q u 6 p =.=.a q 6 I t 6 i =.=.=.Q =.p q t p Y ! Q i 9 q p ` Q Y 9 q $.Z S R V A C M A M ",
">X>X>X;Xr.u._ _ ) _ _ F.0 0 Q s s t 6 y Q =.Y w 6 t t 6 i s Q Y =.Q t 9 t a =.=.Y t 3 t a a Q Y * J $.A C B N N C C C C ",
">X>Xi.r.u.e.=Xe.;X;X;X2Xb b Y s =.i 7 w s s =.i 9 q q 6 i s s s Q a q , i #.Q s a e 9 i a a a T # J J e M N M N N C C C ",
":Xr.i.i.;X-X;X;X;X=X;X2X0 8 I s Q p 7 7 a s s i 6 e 6 6 w Y Y Q #.i 6 6 p Y a ' U e e U a ' a t # A S Z N C Z S N A C A ",
";X>X>X;X;Xu.;X;X=X=Xr.;XY 0 I Y =.p 6 6 i Q Q i 6 9 e , 7 Y Y Q Y 0 , q a a s #.i 9 y Y Y Q U 6 q V Z N M M V { S S S { ",
";Xi.;X,X;Xu.u.e.=X=X-X=X1X8 8 Y =.` 0 9 i Q Q a q 6 9 9 t a Q Q a 0 , t Y a ` Y r q I Y a Q U > { { N N N r M N N V ] { ",
"i.y.1X1Xu.u.r.e._ ! e.e.1X2 8 Y =.=.0 6 i Y Q ' w 9 9 9 t Y Q Y i 9 , i a s Y U 6 6 U a s Y T # | Z M N r r r M N N V V ",
"u.D.1Xi.q.e.) / ^ ) ! ! F.8 8 U Q s B 3 y Y =.Y t 4 h 9 B W Q Y t , 6 p Y Y Y t 5 t Y s a #.V X { { ] N N N N N B B M V ",
"y.y.t.t.) ) ^ ^ ^ ^ ^ ^ u.0 , B #.Q B 3 t $.&.&.B 3 z 3 B #.#.Y t , 9 U Y Y Y 0 6 p #.a a a B X H ..[ N M Z V N A B V S ",
"u.u._ _ ) ! ^ ^ ^ ^ ^ ^ S.R 9 C R R C z M R &.R A M x x B U $.U t , r U U Y I 6 9 S #.#.#.Y V X S %.] r r M N V M M V N ",
"=XS._ ) ) ) ^ ^ ^ ^ ^ ( S.v.h 2 2 2 : g 2 3 h b g g 2 2 2 h , 8 > > 2 8 8 8 8 > > 8 6 9 9 8 ,   C R N N M M M N Z v Z B ",
"_ S._ ) _ ) ) ) e.^ ^ ( ( v.D d k k k k k k k k l l D l F k d g g 8 2 2 2 < = = = > 2 * = 2 = O Z Z M M C V M A A C S M "
};
